999
dxflib 3.17.0.0
  0
SECTION
  2
HEADER
  9
$ACADVER
  1
AC1015
  9
$HANDSEED
  5
FFFF
  9
$ANGBASE
 50
0.0
  9
$ANGDIR
 70
0
  9
$ATTMODE
 70
0
  9
$AUNITS
 70
0
  9
$AUPREC
 70
2
  9
$CECOLOR
 62
256
  9
$CELTSCALE
 40
1.0
  9
$CHAMFERA
 40
0.0
  9
$CHAMFERB
 40
0.0
  9
$CHAMFERC
 40
0.0
  9
$CHAMFERD
 40
0.0
  9
$CMLJUST
 70
0
  9
$CMLSCALE
 40
20.0
  9
$DIMADEC
 70
0
  9
$DIMALT
 70
0
  9
$DIMALTD
 70
3
  9
$DIMALTF
 40
0.03937
  9
$DIMALTRND
 40
0.0
  9
$DIMALTTD
 70
3
  9
$DIMALTTZ
 70
0
  9
$DIMALTU
 70
2
  9
$DIMALTZ
 70
0
  9
$DIMAPOST
  1

  9
$DIMASZ
 40
2.5
  9
$DIMATFIT
 70
3
  9
$DIMAUNIT
 70
0
  9
$DIMAZIN
 70
2
  9
$DIMBLK
  1

  9
$DIMBLK1
  1

  9
$DIMBLK2
  1

  9
$DIMCEN
 40
2.5
  9
$DIMCLRD
 70
0
  9
$DIMCLRE
 70
0
  9
$DIMCLRT
 70
0
  9
$DIMDEC
 70
2
  9
$DIMDLE
 40
0.0
  9
$DIMDLI
 40
5.0
  9
$DIMDSEP
 70
46
  9
$DIMEXE
 40
1.25
  9
$DIMEXO
 40
0.625
  9
$DIMFRAC
 70
0
  9
$DIMGAP
 40
0.625
  9
$DIMJUST
 70
0
  9
$DIMLDRBLK
  1
STANDARD
  9
$DIMLFAC
 40
1.0
  9
$DIMLIM
 70
0
  9
$DIMLUNIT
 70
2
  9
$DIMLWD
 70
-2
  9
$DIMLWE
 70
-2
  9
$DIMPOST
  1

  9
$DIMRND
 40
0.0
  9
$DIMSAH
 70
0
  9
$DIMSCALE
 40
1.0
  9
$DIMSD1
 70
0
  9
$DIMSD2
 70
0
  9
$DIMSE1
 70
0
  9
$DIMSE2
 70
0
  9
$DIMSOXD
 70
0
  9
$DIMTAD
 70
1
  9
$DIMTDEC
 70
2
  9
$DIMTFAC
 40
1.0
  9
$DIMTIH
 70
0
  9
$DIMTIX
 70
0
  9
$DIMTM
 40
0.0
  9
$DIMTOFL
 70
1
  9
$DIMTOH
 70
0
  9
$DIMTOL
 70
0
  9
$DIMTOLJ
 70
0
  9
$DIMTP
 40
0.0
  9
$DIMTSZ
 40
0.0
  9
$DIMTVP
 40
0.0
  9
$DIMTXSTY
  7
STANDARD
  9
$DIMTXT
 40
2.5
  9
$DIMTZIN
 70
8
  9
$DIMUPT
 70
0
  9
$DIMZIN
 70
8
  9
$DISPSILH
 70
0
  9
$DWGCODEPAGE
  3
ANSI_1252
  9
$ELEVATION
 40
0.0
  9
$EXTMAX
 10
724.0000000000002274
 20
504.0000000000001137
 30
0.0
  9
$EXTMIN
 10
-604.0000000000001137
 20
-590.8000000000000682
 30
0.0
  9
$FILLETRAD
 40
0.0
  9
$FILLMODE
 70
1
  9
$INSBASE
 10
0.0
 20
0.0
 30
0.0
  9
$INSUNITS
 70
4
  9
$LIMCHECK
 70
0
  9
$LIMMAX
 10
420.0
 20
297.0
  9
$LIMMIN
 10
0.0
 20
0.0
  9
$LTSCALE
 40
1.0
  9
$LUNITS
 70
2
  9
$LUPREC
 70
4
  9
$MAXACTVP
 70
64
  9
$MEASUREMENT
 70
1
  9
$MIRRTEXT
 70
0
  9
$ORTHOMODE
 70
0
  9
$PDMODE
 70
0
  9
$PDSIZE
 40
0.0
  9
$PELEVATION
 40
0.0
  9
$PEXTMAX
 10
0.0
 20
0.0
 30
0.0
  9
$PEXTMIN
 10
0.0
 20
0.0
 30
0.0
  9
$PINSBASE
 10
0.0
 20
0.0
 30
0.0
  9
$PLIMCHECK
 70
0
  9
$PLIMMAX
 10
210.0
 20
297.0
  9
$PLIMMIN
 10
0.0
 20
0.0
  9
$PLINEGEN
 70
0
  9
$PLINEWID
 40
0.0
  9
$PROXYGRAPHICS
 70
1
  9
$PSLTSCALE
 70
1
  9
$PUCSNAME
  2

  9
$PUCSORG
 10
0.0
 20
0.0
 30
0.0
  9
$PUCSXDIR
 10
1.0
 20
0.0
 30
0.0
  9
$PUCSYDIR
 10
0.0
 20
1.0
 30
0.0
  9
$QTEXTMODE
 70
0
  9
$REGENMODE
 70
1
  9
$SHADEDGE
 70
3
  9
$SHADEDIF
 70
70
  9
$SKETCHINC
 40
1.0
  9
$SKPOLY
 70
0
  9
$SPLFRAME
 70
0
  9
$SPLINESEGS
 70
8
  9
$SPLINETYPE
 70
2
  9
$SURFTAB1
 70
6
  9
$SURFTAB2
 70
6
  9
$SURFTYPE
 70
6
  9
$SURFU
 70
6
  9
$SURFV
 70
6
  9
$TEXTSIZE
 40
2.5
  9
$TEXTSTYLE
  7
STANDARD
  9
$THICKNESS
 40
0.0
  9
$TILEMODE
 70
1
  9
$TRACEWID
 40
15.6799999999999997
  9
$TREEDEPTH
 70
3020
  9
$UCSNAME
  2

  9
$UCSORG
 10
0.0
 20
0.0
 30
0.0
  9
$UCSXDIR
 10
1.0
 20
0.0
 30
0.0
  9
$UCSYDIR
 10
0.0
 20
1.0
 30
0.0
  9
$UNITMODE
 70
0
  9
$USERI1
 70
0
  9
$USERI2
 70
0
  9
$USERI3
 70
0
  9
$USERI4
 70
0
  9
$USERI5
 70
0
  9
$USERR1
 40
0.0
  9
$USERR2
 40
0.0
  9
$USERR3
 40
0.0
  9
$USERR4
 40
0.0
  9
$USERR5
 40
0.0
  9
$USRTIMER
 70
1
  9
$VISRETAIN
 70
1
  0
ENDSEC
  0
SECTION
  2
TABLES
  0
TABLE
  2
VPORT
  5
8
100
AcDbSymbolTable
 70
1
  0
VPORT
  5
30
100
AcDbSymbolTableRecord
100
AcDbViewportTableRecord
  2
*Active
 70
0
 10
0.0
 20
0.0
 11
1.0
 21
1.0
 12
286.3055555555554861
 22
148.5
 13
0.0
 23
0.0
 14
10.0
 24
10.0
 15
10.0
 25
10.0
 16
0.0
 26
0.0
 36
1.0
 17
0.0
 27
0.0
 37
0.0
 40
297.0
 41
1.92798353909465
 42
50.0
 43
0.0
 44
0.0
 50
0.0
 51
0.0
 71
0
 72
100
 73
1
 74
3
 75
1
 76
1
 77
0
 78
0
281
0
 65
1
110
0.0
120
0.0
130
0.0
111
1.0
121
0.0
131
0.0
112
0.0
122
1.0
132
0.0
 79
0
146
0.0
  0
ENDTAB
  0
TABLE
  2
LTYPE
  5
5
100
AcDbSymbolTable
 70
47
  0
LTYPE
  5
16
100
AcDbSymbolTableRecord
100
AcDbLinetypeTableRecord
  2
Continuous
 70
0
  3
Solid line
 72
65
 73
0
 40
0.0
  0
LTYPE
  5
31
100
AcDbSymbolTableRecord
100
AcDbLinetypeTableRecord
  2
ACAD_ISO05W100
 70
0
  3
ISO long-dash double-dot ____ .. ____ .. ____ . 
 72
65
 73
6
 40
33.0000000000000071
 49
24.0
 74
0
 49
-2.9500000000000002
 74
0
 49
0.1
 74
0
 49
-2.9000000000000004
 74
0
 49
0.1
 74
0
 49
-2.9500000000000002
 74
0
  0
LTYPE
  5
32
100
AcDbSymbolTableRecord
100
AcDbLinetypeTableRecord
  2
DIVIDETINY
 70
0
  3
Divide (.15x) __..__..__..__..__..__..__..__.._
 72
65
 73
6
 40
4.7625000000000002
 49
1.905
 74
0
 49
-0.9025
 74
0
 49
0.1
 74
0
 49
-0.8524999999999999
 74
0
 49
0.1
 74
0
 49
-0.9025
 74
0
  0
LTYPE
  5
33
100
AcDbSymbolTableRecord
100
AcDbLinetypeTableRecord
  2
CENTERX2
 70
0
  3
Center (2x) ________  __  ________  __  _____
 72
65
 73
4
 40
101.6000000000000085
 49
63.5
 74
0
 49
-12.6999999999999993
 74
0
 49
12.6999999999999993
 74
0
 49
-12.6999999999999993
 74
0
  0
LTYPE
  5
34
100
AcDbSymbolTableRecord
100
AcDbLinetypeTableRecord
  2
ACAD_ISO09W100
 70
0
  3
ISO long-dash double-short-dash ____ __ __ ____
 72
65
 73
6
 40
45.0
 49
24.0
 74
0
 49
-3.0
 74
0
 49
6.0
 74
0
 49
-3.0
 74
0
 49
6.0
 74
0
 49
-3.0
 74
0
  0
LTYPE
  5
35
100
AcDbSymbolTableRecord
100
AcDbLinetypeTableRecord
  2
ACAD_ISO02W100
 70
0
  3
ISO dash __ __ __ __ __ __ __ __ __ __ __ __ __
 72
65
 73
2
 40
15.0
 49
12.0
 74
0
 49
-3.0
 74
0
  0
LTYPE
  5
36
100
AcDbSymbolTableRecord
100
AcDbLinetypeTableRecord
  2
DASHEDTINY
 70
0
  3
Dashed (.15x) _ _ _ _ _ _ _ _ _ _ _ _ _ _ _ _ _
 72
65
 73
2
 40
2.8574999999999999
 49
1.905
 74
0
 49
-0.9525
 74
0
  0
LTYPE
  5
37
100
AcDbSymbolTableRecord
100
AcDbLinetypeTableRecord
  2
BORDER
 70
0
  3
Border __ __ . __ __ . __ __ . __ __ . __ __ .
 72
65
 73
6
 40
44.4499999999999957
 49
12.6999999999999993
 74
0
 49
-6.3499999999999996
 74
0
 49
12.6999999999999993
 74
0
 49
-6.2999999999999998
 74
0
 49
0.1
 74
0
 49
-6.2999999999999998
 74
0
  0
LTYPE
  5
38
100
AcDbSymbolTableRecord
100
AcDbLinetypeTableRecord
  2
DASHDOT
 70
0
  3
Dash dot __ . __ . __ . __ . __ . __ . __ . __
 72
65
 73
4
 40
25.4000000000000021
 49
12.6999999999999993
 74
0
 49
-6.2999999999999998
 74
0
 49
0.1
 74
0
 49
-6.2999999999999998
 74
0
  0
LTYPE
  5
39
100
AcDbSymbolTableRecord
100
AcDbLinetypeTableRecord
  2
DASHED
 70
0
  3
Dashed _ _ _ _ _ _ _ _ _ _ _ _ _ _ _ _ _
 72
65
 73
2
 40
19.0499999999999972
 49
12.6999999999999993
 74
0
 49
-6.3499999999999996
 74
0
  0
LTYPE
  5
3A
100
AcDbSymbolTableRecord
100
AcDbLinetypeTableRecord
  2
CENTER
 70
0
  3
Center ____ _ ____ _ ____ _ ____ _ ____ _ ____
 72
65
 73
4
 40
50.8000000000000043
 49
31.75
 74
0
 49
-6.3499999999999996
 74
0
 49
6.3499999999999996
 74
0
 49
-6.3499999999999996
 74
0
  0
LTYPE
  5
3B
100
AcDbSymbolTableRecord
100
AcDbLinetypeTableRecord
  2
ACAD_ISO13W100
 70
0
  3
ISO double-dash double-dot __ __ . . __ __ . . _
 72
65
 73
8
 40
36.0000000000000071
 49
12.0
 74
0
 49
-3.0
 74
0
 49
12.0
 74
0
 49
-2.9500000000000002
 74
0
 49
0.1
 74
0
 49
-2.9000000000000004
 74
0
 49
0.1
 74
0
 49
-2.9500000000000002
 74
0
  0
LTYPE
  5
3C
100
AcDbSymbolTableRecord
100
AcDbLinetypeTableRecord
  2
CENTER2
 70
0
  3
Center (.5x) ___ _ ___ _ ___ _ ___ _ ___ _ ___
 72
65
 73
4
 40
28.5750000000000028
 49
19.0500000000000007
 74
0
 49
-3.1749999999999998
 74
0
 49
3.1749999999999998
 74
0
 49
-3.1749999999999998
 74
0
  0
LTYPE
  5
3D
100
AcDbSymbolTableRecord
100
AcDbLinetypeTableRecord
  2
HIDDENX2
 70
0
  3
Hidden (2x) ____ ____ ____ ____ ____ ____ ____ 
 72
65
 73
2
 40
19.0499999999999972
 49
12.6999999999999993
 74
0
 49
-6.3499999999999996
 74
0
  0
LTYPE
  5
3E
100
AcDbSymbolTableRecord
100
AcDbLinetypeTableRecord
  2
PHANTOM2
 70
0
  3
Phantom (.5x) ___ _ _ ___ _ _ ___ _ _ ___ _ _
 72
65
 73
6
 40
31.7500000000000036
 49
15.875
 74
0
 49
-3.1749999999999998
 74
0
 49
3.1749999999999998
 74
0
 49
-3.1749999999999998
 74
0
 49
3.1749999999999998
 74
0
 49
-3.1749999999999998
 74
0
  0
LTYPE
  5
3F
100
AcDbSymbolTableRecord
100
AcDbLinetypeTableRecord
  2
BORDER2
 70
0
  3
Border (.5x) __.__.__.__.__.__.__.__.__.__.__.
 72
65
 73
6
 40
22.2250000000000014
 49
6.3499999999999996
 74
0
 49
-3.1749999999999998
 74
0
 49
6.3499999999999996
 74
0
 49
-3.125
 74
0
 49
0.1
 74
0
 49
-3.125
 74
0
  0
LTYPE
  5
40
100
AcDbSymbolTableRecord
100
AcDbLinetypeTableRecord
  2
DOT
 70
0
  3
Dot . . . . . . . . . . . . . . . . . . . . . .
 72
65
 73
2
 40
6.3499999999999996
 49
0.1
 74
0
 49
-6.25
 74
0
  0
LTYPE
  5
41
100
AcDbSymbolTableRecord
100
AcDbLinetypeTableRecord
  2
ACAD_ISO11W100
 70
0
  3
ISO double-dash dot __ __ . __ __ . __ __ . __ _
 72
65
 73
6
 40
33.0
 49
12.0
 74
0
 49
-3.0
 74
0
 49
12.0
 74
0
 49
-2.9500000000000002
 74
0
 49
0.1
 74
0
 49
-2.9500000000000002
 74
0
  0
LTYPE
  5
42
100
AcDbSymbolTableRecord
100
AcDbLinetypeTableRecord
  2
DIVIDE
 70
0
  3
Divide ____ . . ____ . . ____ . . ____ . . ____
 72
65
 73
6
 40
31.7500000000000036
 49
12.6999999999999993
 74
0
 49
-6.2999999999999998
 74
0
 49
0.1
 74
0
 49
-6.25
 74
0
 49
0.1
 74
0
 49
-6.2999999999999998
 74
0
  0
LTYPE
  5
43
100
AcDbSymbolTableRecord
100
AcDbLinetypeTableRecord
  2
ACAD_ISO12W100
 70
0
  3
ISO dash double-dot __ . . __ . . __ . . __ . . 
 72
65
 73
6
 40
21.0
 49
12.0
 74
0
 49
-2.9500000000000002
 74
0
 49
0.1
 74
0
 49
-2.9000000000000004
 74
0
 49
0.1
 74
0
 49
-2.9500000000000002
 74
0
  0
LTYPE
  5
44
100
AcDbSymbolTableRecord
100
AcDbLinetypeTableRecord
  2
DASHDOTX2
 70
0
  3
Dash dot (2x) ____  .  ____  .  ____  .  ___
 72
65
 73
4
 40
50.7999999999999972
 49
25.3999999999999986
 74
0
 49
-12.6499999999999986
 74
0
 49
0.1
 74
0
 49
-12.6499999999999986
 74
0
  0
LTYPE
  5
45
100
AcDbSymbolTableRecord
100
AcDbLinetypeTableRecord
  2
DIVIDEX2
 70
0
  3
Divide (2x) ________  .  .  ________  .  .  _
 72
65
 73
6
 40
63.5
 49
25.3999999999999986
 74
0
 49
-12.6499999999999986
 74
0
 49
0.1
 74
0
 49
-12.5999999999999979
 74
0
 49
0.1
 74
0
 49
-12.6499999999999986
 74
0
  0
LTYPE
  5
46
100
AcDbSymbolTableRecord
100
AcDbLinetypeTableRecord
  2
HIDDEN2
 70
0
  3
Hidden (.5x) _ _ _ _ _ _ _ _ _ _ _ _ _ _ _ _ _ 
 72
65
 73
2
 40
4.7624999999999993
 49
3.1749999999999998
 74
0
 49
-1.5874999999999999
 74
0
  0
LTYPE
  5
47
100
AcDbSymbolTableRecord
100
AcDbLinetypeTableRecord
  2
DIVIDE2
 70
0
  3
Divide (.5x) __..__..__..__..__..__..__..__.._
 72
65
 73
6
 40
15.8749999999999982
 49
6.3499999999999996
 74
0
 49
-3.125
 74
0
 49
0.1
 74
0
 49
-3.0750000000000002
 74
0
 49
0.1
 74
0
 49
-3.125
 74
0
  0
LTYPE
  5
48
100
AcDbSymbolTableRecord
100
AcDbLinetypeTableRecord
  2
DOTX2
 70
0
  3
Dot (2x) .  .  .  .  .  .  .  .  .  .  .  .  .
 72
65
 73
2
 40
12.6999999999999993
 49
0.1
 74
0
 49
-12.5999999999999996
 74
0
  0
LTYPE
  5
49
100
AcDbSymbolTableRecord
100
AcDbLinetypeTableRecord
  2
ACAD_ISO04W100
 70
0
  3
ISO long-dash dot ____ . ____ . ____ . ____ . _
 72
65
 73
4
 40
30.0
 49
24.0
 74
0
 49
-2.9500000000000002
 74
0
 49
0.1
 74
0
 49
-2.9500000000000002
 74
0
  0
LTYPE
  5
4A
100
AcDbSymbolTableRecord
100
AcDbLinetypeTableRecord
  2
ACAD_ISO06W100
 70
0
  3
ISO long-dash triple-dot ____ ... ____ ... ____
 72
65
 73
8
 40
36.0000000000000071
 49
24.0
 74
0
 49
-2.9500000000000002
 74
0
 49
0.1
 74
0
 49
-2.9000000000000004
 74
0
 49
0.1
 74
0
 49
-2.9000000000000004
 74
0
 49
0.1
 74
0
 49
-2.9500000000000002
 74
0
  0
LTYPE
  5
4B
100
AcDbSymbolTableRecord
100
AcDbLinetypeTableRecord
  2
PHANTOM
 70
0
  3
Phantom ______  __  __  ______  __  __  ______ 
 72
65
 73
6
 40
63.5000000000000071
 49
31.75
 74
0
 49
-6.3499999999999996
 74
0
 49
6.3499999999999996
 74
0
 49
-6.3499999999999996
 74
0
 49
6.3499999999999996
 74
0
 49
-6.3499999999999996
 74
0
  0
LTYPE
  5
4C
100
AcDbSymbolTableRecord
100
AcDbLinetypeTableRecord
  2
PHANTOMX2
 70
0
  3
Phantom (2x) ____________    ____    ____   _
 72
65
 73
6
 40
127.0000000000000142
 49
63.5
 74
0
 49
-12.6999999999999993
 74
0
 49
12.6999999999999993
 74
0
 49
-12.6999999999999993
 74
0
 49
12.6999999999999993
 74
0
 49
-12.6999999999999993
 74
0
  0
LTYPE
  5
4D
100
AcDbSymbolTableRecord
100
AcDbLinetypeTableRecord
  2
DASHDOT2
 70
0
  3
Dash dot (.5x) _._._._._._._._._._._._._._._.
 72
65
 73
4
 40
12.6999999999999993
 49
6.3499999999999996
 74
0
 49
-3.125
 74
0
 49
0.1
 74
0
 49
-3.125
 74
0
  0
LTYPE
  5
4E
100
AcDbSymbolTableRecord
100
AcDbLinetypeTableRecord
  2
DASHED2
 70
0
  3
Dashed (.5x) _ _ _ _ _ _ _ _ _ _ _ _ _ _ _ _ _
 72
65
 73
2
 40
9.5249999999999986
 49
6.3499999999999996
 74
0
 49
-3.1749999999999998
 74
0
  0
LTYPE
  5
4F
100
AcDbSymbolTableRecord
100
AcDbLinetypeTableRecord
  2
ACAD_ISO10W100
 70
0
  3
ISO dash dot __ . __ . __ . __ . __ . __ . __ . 
 72
65
 73
4
 40
18.0
 49
12.0
 74
0
 49
-2.9500000000000002
 74
0
 49
0.1
 74
0
 49
-2.9500000000000002
 74
0
  0
LTYPE
  5
50
100
AcDbSymbolTableRecord
100
AcDbLinetypeTableRecord
  2
ACAD_ISO08W100
 70
0
  3
ISO long-dash short-dash ____ __ ____ __ ____ _
 72
65
 73
4
 40
36.0
 49
24.0
 74
0
 49
-3.0
 74
0
 49
6.0
 74
0
 49
-3.0
 74
0
  0
LTYPE
  5
51
100
AcDbSymbolTableRecord
100
AcDbLinetypeTableRecord
  2
BORDERTINY
 70
0
  3
Border (.15x) __.__.__.__.__.__.__.__.__.__.__.
 72
65
 73
6
 40
6.6674999999999995
 49
1.905
 74
0
 49
-0.9525
 74
0
 49
1.905
 74
0
 49
-0.9025
 74
0
 49
0.1
 74
0
 49
-0.9025
 74
0
  0
LTYPE
  5
52
100
AcDbSymbolTableRecord
100
AcDbLinetypeTableRecord
  2
CENTERTINY
 70
0
  3
Center (.15x) ___ _ ___ _ ___ _ ___ _ ___ _ ___
 72
65
 73
4
 40
7.6199999999999992
 49
4.7625000000000002
 74
0
 49
-0.9525
 74
0
 49
0.9525
 74
0
 49
-0.9525
 74
0
  0
LTYPE
  5
53
100
AcDbSymbolTableRecord
100
AcDbLinetypeTableRecord
  2
DASHEDX2
 70
0
  3
Dashed (2x) ____  ____  ____  ____  ____  ___
 72
65
 73
2
 40
38.0999999999999943
 49
25.3999999999999986
 74
0
 49
-12.6999999999999993
 74
0
  0
LTYPE
  5
54
100
AcDbSymbolTableRecord
100
AcDbLinetypeTableRecord
  2
DASHDOTTINY
 70
0
  3
Dash dot (.15x) _._._._._._._._._._._._._._._.
 72
65
 73
4
 40
3.8100000000000001
 49
1.905
 74
0
 49
-0.9025
 74
0
 49
0.1
 74
0
 49
-0.9025
 74
0
  0
LTYPE
  5
55
100
AcDbSymbolTableRecord
100
AcDbLinetypeTableRecord
  2
BORDERX2
 70
0
  3
Border (2x) ____  ____  .  ____  ____  .  ___
 72
65
 73
6
 40
88.8999999999999773
 49
25.3999999999999986
 74
0
 49
-12.6999999999999993
 74
0
 49
25.3999999999999986
 74
0
 49
-12.6499999999999986
 74
0
 49
0.1
 74
0
 49
-12.6499999999999986
 74
0
  0
LTYPE
  5
56
100
AcDbSymbolTableRecord
100
AcDbLinetypeTableRecord
  2
ACAD_ISO03W100
 70
0
  3
ISO dash space __    __    __    __    __    __
 72
65
 73
2
 40
30.0
 49
12.0
 74
0
 49
-18.0
 74
0
  0
LTYPE
  5
57
100
AcDbSymbolTableRecord
100
AcDbLinetypeTableRecord
  2
HIDDEN
 70
0
  3
Hidden __ __ __ __ __ __ __ __ __ __ __ __ __ __
 72
65
 73
2
 40
9.5249999999999986
 49
6.3499999999999996
 74
0
 49
-3.1749999999999998
 74
0
  0
LTYPE
  5
58
100
AcDbSymbolTableRecord
100
AcDbLinetypeTableRecord
  2
ACAD_ISO15W100
 70
0
  3
ISO double-dash triple-dot __ __ . . . __ __ . .
 72
65
 73
10
 40
39.0000000000000071
 49
12.0
 74
0
 49
-3.0
 74
0
 49
12.0
 74
0
 49
-2.9500000000000002
 74
0
 49
0.1
 74
0
 49
-2.9000000000000004
 74
0
 49
0.1
 74
0
 49
-2.9000000000000004
 74
0
 49
0.1
 74
0
 49
-2.9500000000000002
 74
0
  0
LTYPE
  5
59
100
AcDbSymbolTableRecord
100
AcDbLinetypeTableRecord
  2
DOT2
 70
0
  3
Dot (.5x) .....................................
 72
65
 73
2
 40
3.1749999999999998
 49
0.1
 74
0
 49
-3.0749999999999997
 74
0
  0
LTYPE
  5
5A
100
AcDbSymbolTableRecord
100
AcDbLinetypeTableRecord
  2
ACAD_ISO14W100
 70
0
  3
ISO dash triple-dot __ . . . __ . . . __ . . . _
 72
65
 73
8
 40
24.0000000000000036
 49
12.0
 74
0
 49
-2.9500000000000002
 74
0
 49
0.1
 74
0
 49
-2.9000000000000004
 74
0
 49
0.1
 74
0
 49
-2.9000000000000004
 74
0
 49
0.1
 74
0
 49
-2.9500000000000002
 74
0
  0
LTYPE
  5
5B
100
AcDbSymbolTableRecord
100
AcDbLinetypeTableRecord
  2
ACAD_ISO07W100
 70
0
  3
ISO dot . . . . . . . . . . . . . . . . . . . . 
 72
65
 73
2
 40
3.0
 49
0.1
 74
0
 49
-2.8999999999999999
 74
0
  0
LTYPE
  5
5C
100
AcDbSymbolTableRecord
100
AcDbLinetypeTableRecord
  2
DOTTINY
 70
0
  3
Dot (.15x) .....................................
 72
65
 73
2
 40
0.9525
 49
0.1
 74
0
 49
-0.8525
 74
0
  0
LTYPE
  5
15
100
AcDbSymbolTableRecord
100
AcDbLinetypeTableRecord
  2
ByLayer
 70
0
  3

 72
65
 73
0
 40
0.0
  0
LTYPE
  5
14
100
AcDbSymbolTableRecord
100
AcDbLinetypeTableRecord
  2
ByBlock
 70
0
  3

 72
65
 73
0
 40
0.0
  0
ENDTAB
  0
TABLE
  2
LAYER
  5
2
100
AcDbSymbolTable
 70
1
  0
LAYER
  5
10
100
AcDbSymbolTableRecord
100
AcDbLayerTableRecord
  2
0
 70
0
 62
7
420
16777215
  6
Continuous
370
13
390
F
  0
ENDTAB
  0
TABLE
  2
STYLE
  5
3
100
AcDbSymbolTable
 70
1
  0
STYLE
  5
5D
100
AcDbSymbolTableRecord
100
AcDbTextStyleTableRecord
  2
Standard
 70
0
 40
0.0
 41
1.0
 50
0.0
 71
0
 42
2.5
  3

  4

1001
ACAD
1000
txt
1071
0
  0
ENDTAB
  0
TABLE
  2
VIEW
  5
6
100
AcDbSymbolTable
 70
0
  0
ENDTAB
  0
TABLE
  2
UCS
  5
7
100
AcDbSymbolTable
 70
0
  0
ENDTAB
  0
TABLE
  2
APPID
  5
9
100
AcDbSymbolTable
 70
1
  0
APPID
  5
12
100
AcDbSymbolTableRecord
100
AcDbRegAppTableRecord
  2
ACAD
 70
0
  0
APPID
  5
5E
100
AcDbSymbolTableRecord
100
AcDbRegAppTableRecord
  2
QCAD
 70
0
  0
ENDTAB
  0
TABLE
  2
DIMSTYLE
  5
A
100
AcDbSymbolTable
 70
1
100
AcDbDimStyleTable
 71
0
  0
DIMSTYLE
105
27
100
AcDbSymbolTableRecord
100
AcDbDimStyleTableRecord
  2
Standard
 41
2.5
 42
0.625
 43
3.75
 44
1.25
 70
0
 73
0
 74
0
 77
1
 78
8
140
2.5
141
2.5
143
0.03937007874016
147
0.625
171
3
172
1
271
2
272
2
274
3
278
44
283
0
284
8
340
5D
  0
ENDTAB
  0
TABLE
  2
BLOCK_RECORD
  5
1
100
AcDbSymbolTable
 70
1
  0
BLOCK_RECORD
  5
1F
100
AcDbSymbolTableRecord
100
AcDbBlockTableRecord
  2
*Model_Space
340
22
  0
BLOCK_RECORD
  5
1B
100
AcDbSymbolTableRecord
100
AcDbBlockTableRecord
  2
*Paper_Space
340
1E
  0
BLOCK_RECORD
  5
23
100
AcDbSymbolTableRecord
100
AcDbBlockTableRecord
  2
*Paper_Space0
340
26
  0
BLOCK_RECORD
  5
5F
100
AcDbSymbolTableRecord
100
AcDbBlockTableRecord
  2
\U+0431\U+043b\U+043e\U+043a 14
340
0
  0
BLOCK_RECORD
  5
60
100
AcDbSymbolTableRecord
100
AcDbBlockTableRecord
  2
\U+0431\U+043b\U+043e\U+043a 5
340
0
  0
BLOCK_RECORD
  5
61
100
AcDbSymbolTableRecord
100
AcDbBlockTableRecord
  2
\U+0431\U+043b\U+043e\U+043a 1
340
0
  0
BLOCK_RECORD
  5
62
100
AcDbSymbolTableRecord
100
AcDbBlockTableRecord
  2
\U+0431\U+043b\U+043e\U+043a 6
340
0
  0
BLOCK_RECORD
  5
63
100
AcDbSymbolTableRecord
100
AcDbBlockTableRecord
  2
\U+0431\U+043b\U+043e\U+043a 15
340
0
  0
BLOCK_RECORD
  5
64
100
AcDbSymbolTableRecord
100
AcDbBlockTableRecord
  2
\U+0431\U+043b\U+043e\U+043a 12
340
0
  0
BLOCK_RECORD
  5
65
100
AcDbSymbolTableRecord
100
AcDbBlockTableRecord
  2
\U+0431\U+043b\U+043e\U+043a 13
340
0
  0
BLOCK_RECORD
  5
66
100
AcDbSymbolTableRecord
100
AcDbBlockTableRecord
  2
\U+0431\U+043b\U+043e\U+043a 3
340
0
  0
BLOCK_RECORD
  5
67
100
AcDbSymbolTableRecord
100
AcDbBlockTableRecord
  2
\U+0431\U+043b\U+043e\U+043a 10
340
0
  0
BLOCK_RECORD
  5
68
100
AcDbSymbolTableRecord
100
AcDbBlockTableRecord
  2
\U+0431\U+043b\U+043e\U+043a 9
340
0
  0
BLOCK_RECORD
  5
69
100
AcDbSymbolTableRecord
100
AcDbBlockTableRecord
  2
\U+0431\U+043b\U+043e\U+043a 7
340
0
  0
BLOCK_RECORD
  5
6A
100
AcDbSymbolTableRecord
100
AcDbBlockTableRecord
  2
\U+0431\U+043b\U+043e\U+043a 2
340
0
  0
BLOCK_RECORD
  5
6B
100
AcDbSymbolTableRecord
100
AcDbBlockTableRecord
  2
\U+0431\U+043b\U+043e\U+043a 8
340
0
  0
BLOCK_RECORD
  5
6C
100
AcDbSymbolTableRecord
100
AcDbBlockTableRecord
  2
\U+0431\U+043b\U+043e\U+043a 11
340
0
  0
BLOCK_RECORD
  5
6D
100
AcDbSymbolTableRecord
100
AcDbBlockTableRecord
  2
\U+0431\U+043b\U+043e\U+043a 4
340
0
  0
ENDTAB
  0
ENDSEC
  0
SECTION
  2
BLOCKS
  0
BLOCK
  5
20
100
AcDbEntity
  8
0
100
AcDbBlockBegin
  2
*Model_Space
 70
0
 10
0.0
 20
0.0
 30
0.0
  3
*Model_Space
  1

  0
ENDBLK
  5
21
100
AcDbEntity
  8
0
100
AcDbBlockEnd
  0
BLOCK
  5
1C
100
AcDbEntity
 67
1
  8
0
100
AcDbBlockBegin
  2
*Paper_Space
 70
0
 10
0.0
 20
0.0
 30
0.0
  3
*Paper_Space
  1

  0
ENDBLK
  5
1D
100
AcDbEntity
 67
1
  8
0
100
AcDbBlockEnd
  0
BLOCK
  5
24
100
AcDbEntity
  8
0
100
AcDbBlockBegin
  2
*Paper_Space0
 70
0
 10
0.0
 20
0.0
 30
0.0
  3
*Paper_Space0
  1

  0
ENDBLK
  5
25
100
AcDbEntity
  8
0
100
AcDbBlockEnd
  0
BLOCK
  5
6E
100
AcDbEntity
  8
0
100
AcDbBlockBegin
  2
\U+0431\U+043b\U+043e\U+043a 14
 70
0
 10
0.0
 20
0.0
 30
0.0
  3
\U+0431\U+043b\U+043e\U+043a 14
  1

  0
CIRCLE
  5
6F
100
AcDbEntity
  8
0
 62
256
370
-1
 48
1.0
  6
ByLayer
100
AcDbCircle
 10
-287.3999999999999773
 20
0.0
 30
0.0
 40
1.5
  0
CIRCLE
  5
70
100
AcDbEntity
  8
0
 62
256
370
-1
 48
1.0
  6
ByLayer
100
AcDbCircle
 10
0.0
 20
0.0
 30
0.0
 40
1.5
  0
ENDBLK
  5
71
100
AcDbEntity
  8
0
100
AcDbBlockEnd
  0
BLOCK
  5
72
100
AcDbEntity
  8
0
100
AcDbBlockBegin
  2
\U+0431\U+043b\U+043e\U+043a 5
 70
0
 10
0.0
 20
0.0
 30
0.0
  3
\U+0431\U+043b\U+043e\U+043a 5
  1

  0
LINE
  5
73
100
AcDbEntity
  8
0
 62
256
370
-1
 48
1.0
  6
ByLayer
100
AcDbLine
 10
-4.0
 20
-50.7999999999999972
 30
0.0
 11
-4.0
 21
0.0
 31
0.0
  0
LINE
  5
74
100
AcDbEntity
  8
0
 62
256
370
-1
 48
1.0
  6
ByLayer
100
AcDbLine
 10
-4.0
 20
-50.7999999999999972
 30
0.0
 11
0.0
 21
-50.7999999999999972
 31
0.0
  0
LINE
  5
75
100
AcDbEntity
  8
0
 62
256
370
-1
 48
1.0
  6
ByLayer
100
AcDbLine
 10
-4.0
 20
0.0
 30
0.0
 11
0.0
 21
0.0
 31
0.0
  0
ENDBLK
  5
76
100
AcDbEntity
  8
0
100
AcDbBlockEnd
  0
BLOCK
  5
77
100
AcDbEntity
  8
0
100
AcDbBlockBegin
  2
\U+0431\U+043b\U+043e\U+043a 1
 70
0
 10
0.0
 20
0.0
 30
0.0
  3
\U+0431\U+043b\U+043e\U+043a 1
  1

  0
LINE
  5
78
100
AcDbEntity
  8
0
 62
256
370
-1
 48
1.0
  6
ByLayer
100
AcDbLine
 10
0.0
 20
0.0
 30
0.0
 11
99.9999997864077841
 21
0.0000000000003411
 31
0.0
  0
LINE
  5
79
100
AcDbEntity
  8
0
 62
256
370
-1
 48
1.0
  6
ByLayer
100
AcDbLine
 10
99.9999997864077841
 20
0.0000000000003411
 30
0.0
 11
99.9999997864077841
 21
-3.999999999998693
 31
0.0
  0
LINE
  5
7A
100
AcDbEntity
  8
0
 62
256
370
-1
 48
1.0
  6
ByLayer
100
AcDbLine
 10
99.9999997864077841
 20
-3.999999999998693
 30
0.0
 11
140.7999997864077955
 21
-3.9999999999992042
 31
0.0
  0
LINE
  5
7B
100
AcDbEntity
  8
0
 62
256
370
-1
 48
1.0
  6
ByLayer
100
AcDbLine
 10
140.7999997864077955
 20
0.0000000000009095
 30
0.0
 11
140.7999997864077955
 21
-3.9999999999992042
 31
0.0
  0
LINE
  5
7C
100
AcDbEntity
  8
0
 62
256
370
-1
 48
1.0
  6
ByLayer
100
AcDbLine
 10
299.9999997864077841
 20
0.0000000000004547
 30
0.0
 11
399.9999997864077841
 21
0.0000000000000568
 31
0.0
  0
LINE
  5
7D
100
AcDbEntity
  8
0
 62
256
370
-1
 48
1.0
  6
ByLayer
100
AcDbLine
 10
299.9999997864077841
 20
0.0000000000004547
 30
0.0
 11
299.9999997864077841
 21
-3.9999999999986362
 31
0.0
  0
LINE
  5
7E
100
AcDbEntity
  8
0
 62
256
370
-1
 48
1.0
  6
ByLayer
100
AcDbLine
 10
259.1999997864077727
 20
-3.9999999999989768
 30
0.0
 11
299.9999997864077841
 21
-3.9999999999986362
 31
0.0
  0
LINE
  5
7F
100
AcDbEntity
  8
0
 62
256
370
-1
 48
1.0
  6
ByLayer
100
AcDbLine
 10
259.1999997864077727
 20
0.000000000000739
 30
0.0
 11
259.1999997864077727
 21
-3.9999999999989768
 31
0.0
  0
LINE
  5
80
100
AcDbEntity
  8
0
 62
256
370
-1
 48
1.0
  6
ByLayer
100
AcDbLine
 10
140.7999997864077955
 20
0.0000000000009095
 30
0.0
 11
259.1999997864077727
 21
0.000000000000739
 31
0.0
  0
ENDBLK
  5
81
100
AcDbEntity
  8
0
100
AcDbBlockEnd
  0
BLOCK
  5
82
100
AcDbEntity
  8
0
100
AcDbBlockBegin
  2
\U+0431\U+043b\U+043e\U+043a 6
 70
0
 10
0.0
 20
0.0
 30
0.0
  3
\U+0431\U+043b\U+043e\U+043a 6
  1

  0
INSERT
  5
83
100
AcDbEntity
  8
0
 62
256
370
-1
 48
1.0
  6
ByLayer
100
AcDbBlockReference
  2
\U+0431\U+043b\U+043e\U+043a 5
 10
4.0
 20
0.0
 30
0.0
  0
INSERT
  5
84
100
AcDbEntity
  8
0
 62
256
370
-1
 48
1.0
  6
ByLayer
100
AcDbBlockReference
  2
\U+0431\U+043b\U+043e\U+043a 5
 10
4.0
 20
-130.8000000000000114
 30
0.0
  0
INSERT
  5
85
100
AcDbEntity
  8
0
 62
256
370
-1
 48
1.0
  6
ByLayer
100
AcDbBlockReference
  2
\U+0431\U+043b\U+043e\U+043a 5
 10
4.0
 20
-261.6000000000000227
 30
0.0
  0
LINE
  5
86
100
AcDbEntity
  8
0
 62
256
370
-1
 48
1.0
  6
ByLayer
100
AcDbLine
 10
4.0
 20
-130.8000000000000114
 30
0.0
 11
4.0
 21
-50.7999999999999972
 31
0.0
  0
LINE
  5
87
100
AcDbEntity
  8
0
 62
256
370
-1
 48
1.0
  6
ByLayer
100
AcDbLine
 10
4.0
 20
-261.6000000000000227
 30
0.0
 11
4.0
 21
-181.5999999999999943
 31
0.0
  0
ENDBLK
  5
88
100
AcDbEntity
  8
0
100
AcDbBlockEnd
  0
BLOCK
  5
89
100
AcDbEntity
  8
0
100
AcDbBlockBegin
  2
\U+0431\U+043b\U+043e\U+043a 15
 70
0
 10
0.0
 20
0.0
 30
0.0
  3
\U+0431\U+043b\U+043e\U+043a 15
  1

  0
CIRCLE
  5
8A
100
AcDbEntity
  8
0
 62
256
370
-1
 48
1.0
  6
ByLayer
100
AcDbCircle
 10
0.0
 20
0.0
 30
0.0
 40
1.5
  0
CIRCLE
  5
8B
100
AcDbEntity
  8
0
 62
256
370
-1
 48
1.0
  6
ByLayer
100
AcDbCircle
 10
0.0
 20
-70.0
 30
0.0
 40
1.5
  0
ENDBLK
  5
8C
100
AcDbEntity
  8
0
100
AcDbBlockEnd
  0
BLOCK
  5
8D
100
AcDbEntity
  8
0
100
AcDbBlockBegin
  2
\U+0431\U+043b\U+043e\U+043a 12
 70
0
 10
0.0
 20
0.0
 30
0.0
  3
\U+0431\U+043b\U+043e\U+043a 12
  1

  0
INSERT
  5
8E
100
AcDbEntity
  8
0
 62
256
370
-1
 48
1.0
  6
ByLayer
100
AcDbBlockReference
  2
\U+0431\U+043b\U+043e\U+043a 7
 10
0.0
 20
0.0
 30
0.0
  0
INSERT
  5
8F
100
AcDbEntity
  8
0
 62
256
370
-1
 48
1.0
  6
ByLayer
100
AcDbBlockReference
  2
\U+0431\U+043b\U+043e\U+043a 7
 10
159.1999999999999886
 20
0.0
 30
0.0
  0
ENDBLK
  5
90
100
AcDbEntity
  8
0
100
AcDbBlockEnd
  0
BLOCK
  5
91
100
AcDbEntity
  8
0
100
AcDbBlockBegin
  2
\U+0431\U+043b\U+043e\U+043a 13
 70
0
 10
0.0
 20
0.0
 30
0.0
  3
\U+0431\U+043b\U+043e\U+043a 13
  1

  0
CIRCLE
  5
92
100
AcDbEntity
  8
0
 62
256
370
-1
 48
1.0
  6
ByLayer
100
AcDbCircle
 10
0.0
 20
0.0
 30
0.0
 40
9.5
  0
CIRCLE
  5
93
100
AcDbEntity
  8
0
 62
256
370
-1
 48
1.0
  6
ByLayer
100
AcDbCircle
 10
39.5
 20
0.0
 30
0.0
 40
9.5
  0
ENDBLK
  5
94
100
AcDbEntity
  8
0
100
AcDbBlockEnd
  0
BLOCK
  5
95
100
AcDbEntity
  8
0
100
AcDbBlockBegin
  2
\U+0431\U+043b\U+043e\U+043a 3
 70
0
 10
0.0
 20
0.0
 30
0.0
  3
\U+0431\U+043b\U+043e\U+043a 3
  1

  0
LINE
  5
96
100
AcDbEntity
  8
0
 62
256
370
-1
 48
1.0
  6
ByLayer
100
AcDbLine
 10
0.0
 20
-19.9999999999999396
 30
0.0
 11
0.0
 21
0.0000000000000568
 31
0.0
  0
LINE
  5
97
100
AcDbEntity
  8
0
 62
256
370
-1
 48
1.0
  6
ByLayer
100
AcDbLine
 10
0.0
 20
-19.9999999999999396
 30
0.0
 11
4.0
 21
-19.9999999999999396
 31
0.0
  0
LINE
  5
98
100
AcDbEntity
  8
0
 62
256
370
-1
 48
1.0
  6
ByLayer
100
AcDbLine
 10
4.0
 20
-40.7999999999999474
 30
0.0
 11
4.0
 21
-19.9999999999999396
 31
0.0
  0
LINE
  5
99
100
AcDbEntity
  8
0
 62
256
370
-1
 48
1.0
  6
ByLayer
100
AcDbLine
 10
0.0
 20
-40.7999999999999474
 30
0.0
 11
4.0
 21
-40.7999999999999474
 31
0.0
  0
LINE
  5
9A
100
AcDbEntity
  8
0
 62
256
370
-1
 48
1.0
  6
ByLayer
100
AcDbLine
 10
0.0
 20
-60.7999999999998977
 30
0.0
 11
0.0
 21
-40.7999999999999474
 31
0.0
  0
ENDBLK
  5
9B
100
AcDbEntity
  8
0
100
AcDbBlockEnd
  0
BLOCK
  5
9C
100
AcDbEntity
  8
0
100
AcDbBlockBegin
  2
\U+0431\U+043b\U+043e\U+043a 10
 70
0
 10
0.0
 20
0.0
 30
0.0
  3
\U+0431\U+043b\U+043e\U+043a 10
  1

  0
LINE
  5
9D
100
AcDbEntity
  8
0
 62
256
370
-1
 48
1.0
  6
ByLayer
100
AcDbLine
 10
0.0
 20
-50.0
 30
0.0
 11
4.0
 21
-50.0
 31
0.0
  0
LINE
  5
9E
100
AcDbEntity
  8
0
 62
256
370
-1
 48
1.0
  6
ByLayer
100
AcDbLine
 10
4.0
 20
-50.0
 30
0.0
 11
4.0
 21
0.0
 31
0.0
  0
LINE
  5
9F
100
AcDbEntity
  8
0
 62
256
370
-1
 48
1.0
  6
ByLayer
100
AcDbLine
 10
4.0
 20
0.0
 30
0.0
 11
0.0
 21
0.0
 31
0.0
  0
LINE
  5
A0
100
AcDbEntity
  8
0
 62
256
370
-1
 48
1.0
  6
ByLayer
100
AcDbLine
 10
0.0
 20
0.0
 30
0.0
 11
0.0
 21
-50.0
 31
0.0
  0
ENDBLK
  5
A1
100
AcDbEntity
  8
0
100
AcDbBlockEnd
  0
BLOCK
  5
A2
100
AcDbEntity
  8
0
100
AcDbBlockBegin
  2
\U+0431\U+043b\U+043e\U+043a 9
 70
0
 10
0.0
 20
0.0
 30
0.0
  3
\U+0431\U+043b\U+043e\U+043a 9
  1

  0
LINE
  5
A3
100
AcDbEntity
  8
0
 62
256
370
-1
 48
1.0
  6
ByLayer
100
AcDbLine
 10
0.0
 20
-98.2000000000000028
 30
0.0
 11
0.0
 21
0.0
 31
0.0
  0
ENDBLK
  5
A4
100
AcDbEntity
  8
0
100
AcDbBlockEnd
  0
BLOCK
  5
A5
100
AcDbEntity
  8
0
100
AcDbBlockBegin
  2
\U+0431\U+043b\U+043e\U+043a 7
 70
0
 10
0.0
 20
0.0
 30
0.0
  3
\U+0431\U+043b\U+043e\U+043a 7
  1

  0
LINE
  5
A6
100
AcDbEntity
  8
0
 62
256
370
-1
 48
1.0
  6
ByLayer
100
AcDbLine
 10
0.0
 20
-4.0
 30
0.0
 11
40.0
 21
-4.0
 31
0.0
  0
LINE
  5
A7
100
AcDbEntity
  8
0
 62
256
370
-1
 48
1.0
  6
ByLayer
100
AcDbLine
 10
40.0
 20
-4.0
 30
0.0
 11
40.0
 21
0.0
 31
0.0
  0
LINE
  5
A8
100
AcDbEntity
  8
0
 62
256
370
-1
 48
1.0
  6
ByLayer
100
AcDbLine
 10
40.0
 20
0.0
 30
0.0
 11
0.0
 21
0.0
 31
0.0
  0
LINE
  5
A9
100
AcDbEntity
  8
0
 62
256
370
-1
 48
1.0
  6
ByLayer
100
AcDbLine
 10
0.0
 20
0.0
 30
0.0
 11
0.0
 21
-4.0
 31
0.0
  0
ENDBLK
  5
AA
100
AcDbEntity
  8
0
100
AcDbBlockEnd
  0
BLOCK
  5
AB
100
AcDbEntity
  8
0
100
AcDbBlockBegin
  2
\U+0431\U+043b\U+043e\U+043a 2
 70
0
 10
0.0
 20
0.0
 30
0.0
  3
\U+0431\U+043b\U+043e\U+043a 2
  1

  0
INSERT
  5
AC
100
AcDbEntity
  8
0
 62
256
370
-1
 48
1.0
  6
ByLayer
100
AcDbBlockReference
  2
\U+0431\U+043b\U+043e\U+043a 5
 10
0.0
 20
0.0
 30
0.0
  0
INSERT
  5
AD
100
AcDbEntity
  8
0
 62
256
370
-1
 48
1.0
  6
ByLayer
100
AcDbBlockReference
  2
\U+0431\U+043b\U+043e\U+043a 5
 10
0.0
 20
-140.8000000000000114
 30
0.0
  0
INSERT
  5
AE
100
AcDbEntity
  8
0
 62
256
370
-1
 48
1.0
  6
ByLayer
100
AcDbBlockReference
  2
\U+0431\U+043b\U+043e\U+043a 5
 10
0.0
 20
-281.6000000000000227
 30
0.0
  0
LINE
  5
AF
100
AcDbEntity
  8
0
 62
256
370
-1
 48
1.0
  6
ByLayer
100
AcDbLine
 10
0.0
 20
-140.8000000000000114
 30
0.0
 11
0.0
 21
-50.7999999999999972
 31
0.0
  0
LINE
  5
B0
100
AcDbEntity
  8
0
 62
256
370
-1
 48
1.0
  6
ByLayer
100
AcDbLine
 10
0.0
 20
-281.6000000000000227
 30
0.0
 11
0.0
 21
-191.5999999999999943
 31
0.0
  0
ENDBLK
  5
B1
100
AcDbEntity
  8
0
100
AcDbBlockEnd
  0
BLOCK
  5
B2
100
AcDbEntity
  8
0
100
AcDbBlockBegin
  2
\U+0431\U+043b\U+043e\U+043a 8
 70
0
 10
0.0
 20
0.0
 30
0.0
  3
\U+0431\U+043b\U+043e\U+043a 8
  1

  0
LINE
  5
B3
100
AcDbEntity
  8
0
 62
256
370
-1
 48
1.0
  6
ByLayer
100
AcDbLine
 10
0.0
 20
-98.2000000000000028
 30
0.0
 11
0.0
 21
0.0
 31
0.0
  0
LINE
  5
B4
100
AcDbEntity
  8
0
 62
256
370
-1
 48
1.0
  6
ByLayer
100
AcDbLine
 10
0.0
 20
-98.2000000000000028
 30
0.0
 11
4.0
 21
-98.2000000000000028
 31
0.0
  0
LINE
  5
B5
100
AcDbEntity
  8
0
 62
256
370
-1
 48
1.0
  6
ByLayer
100
AcDbLine
 10
4.0
 20
-148.1999999999999886
 30
0.0
 11
4.0
 21
-98.2000000000000028
 31
0.0
  0
LINE
  5
B6
100
AcDbEntity
  8
0
 62
256
370
-1
 48
1.0
  6
ByLayer
100
AcDbLine
 10
0.0
 20
-148.1999999999999886
 30
0.0
 11
4.0
 21
-148.1999999999999886
 31
0.0
  0
LINE
  5
B7
100
AcDbEntity
  8
0
 62
256
370
-1
 48
1.0
  6
ByLayer
100
AcDbLine
 10
0.0
 20
-239.0
 30
0.0
 11
0.0
 21
-148.1999999999999886
 31
0.0
  0
ENDBLK
  5
B8
100
AcDbEntity
  8
0
100
AcDbBlockEnd
  0
BLOCK
  5
B9
100
AcDbEntity
  8
0
100
AcDbBlockBegin
  2
\U+0431\U+043b\U+043e\U+043a 11
 70
0
 10
0.0
 20
0.0
 30
0.0
  3
\U+0431\U+043b\U+043e\U+043a 11
  1

  0
LINE
  5
BA
100
AcDbEntity
  8
0
 62
256
370
-1
 48
1.0
  6
ByLayer
100
AcDbLine
 10
0.0
 20
-93.7999999999999972
 30
0.0
 11
0.0
 21
0.0
 31
0.0
  0
LINE
  5
BB
100
AcDbEntity
  8
0
 62
256
370
-1
 48
1.0
  6
ByLayer
100
AcDbLine
 10
0.0
 20
-93.7999999999999972
 30
0.0
 11
4.0
 21
-93.7999999999999972
 31
0.0
  0
LINE
  5
BC
100
AcDbEntity
  8
0
 62
256
370
-1
 48
1.0
  6
ByLayer
100
AcDbLine
 10
4.0
 20
-144.5999999999999943
 30
0.0
 11
4.0
 21
-93.7999999999999972
 31
0.0
  0
LINE
  5
BD
100
AcDbEntity
  8
0
 62
256
370
-1
 48
1.0
  6
ByLayer
100
AcDbLine
 10
0.0
 20
-144.5999999999999943
 30
0.0
 11
4.0
 21
-144.5999999999999943
 31
0.0
  0
LINE
  5
BE
100
AcDbEntity
  8
0
 62
256
370
-1
 48
1.0
  6
ByLayer
100
AcDbLine
 10
0.0
 20
-234.5999999999999943
 30
0.0
 11
0.0
 21
-144.5999999999999943
 31
0.0
  0
LINE
  5
BF
100
AcDbEntity
  8
0
 62
256
370
-1
 48
1.0
  6
ByLayer
100
AcDbLine
 10
0.0
 20
-234.5999999999999943
 30
0.0
 11
4.0
 21
-234.5999999999999943
 31
0.0
  0
LINE
  5
C0
100
AcDbEntity
  8
0
 62
256
370
-1
 48
1.0
  6
ByLayer
100
AcDbLine
 10
4.0
 20
-285.3999999999999773
 30
0.0
 11
4.0
 21
-234.5999999999999943
 31
0.0
  0
LINE
  5
C1
100
AcDbEntity
  8
0
 62
256
370
-1
 48
1.0
  6
ByLayer
100
AcDbLine
 10
0.0
 20
-285.3999999999999773
 30
0.0
 11
4.0
 21
-285.3999999999999773
 31
0.0
  0
LINE
  5
C2
100
AcDbEntity
  8
0
 62
256
370
-1
 48
1.0
  6
ByLayer
100
AcDbLine
 10
0.0
 20
-375.3999999999999773
 30
0.0
 11
0.0
 21
-285.3999999999999773
 31
0.0
  0
LINE
  5
C3
100
AcDbEntity
  8
0
 62
256
370
-1
 48
1.0
  6
ByLayer
100
AcDbLine
 10
0.0
 20
-375.3999999999999773
 30
0.0
 11
4.0
 21
-375.3999999999999773
 31
0.0
  0
LINE
  5
C4
100
AcDbEntity
  8
0
 62
256
370
-1
 48
1.0
  6
ByLayer
100
AcDbLine
 10
4.0
 20
-426.1999999999999886
 30
0.0
 11
4.0
 21
-375.3999999999999773
 31
0.0
  0
LINE
  5
C5
100
AcDbEntity
  8
0
 62
256
370
-1
 48
1.0
  6
ByLayer
100
AcDbLine
 10
0.0
 20
-426.1999999999999886
 30
0.0
 11
4.0
 21
-426.1999999999999886
 31
0.0
  0
LINE
  5
C6
100
AcDbEntity
  8
0
 62
256
370
-1
 48
1.0
  6
ByLayer
100
AcDbLine
 10
0.0
 20
-520.0
 30
0.0
 11
0.0
 21
-426.1999999999999886
 31
0.0
  0
ENDBLK
  5
C7
100
AcDbEntity
  8
0
100
AcDbBlockEnd
  0
BLOCK
  5
C8
100
AcDbEntity
  8
0
100
AcDbBlockBegin
  2
\U+0431\U+043b\U+043e\U+043a 4
 70
0
 10
0.0
 20
0.0
 30
0.0
  3
\U+0431\U+043b\U+043e\U+043a 4
  1

  0
LINE
  5
C9
100
AcDbEntity
  8
0
 62
256
370
-1
 48
1.0
  6
ByLayer
100
AcDbLine
 10
-400.0
 20
0.0
 30
0.0
 11
-299.6000000000000227
 21
0.0
 31
0.0
  0
LINE
  5
CA
100
AcDbEntity
  8
0
 62
256
370
-1
 48
1.0
  6
ByLayer
100
AcDbLine
 10
-299.6000000000000227
 20
3.9999999999984079
 30
0.0
 11
-299.6000000000000227
 21
0.0
 31
0.0
  0
LINE
  5
CB
100
AcDbEntity
  8
0
 62
256
370
-1
 48
1.0
  6
ByLayer
100
AcDbLine
 10
-299.6000000000000227
 20
3.9999999999984079
 30
0.0
 11
-259.6000000000000227
 21
3.9999999999992042
 31
0.0
  0
LINE
  5
CC
100
AcDbEntity
  8
0
 62
256
370
-1
 48
1.0
  6
ByLayer
100
AcDbLine
 10
-259.6000000000000227
 20
3.9999999999992042
 30
0.0
 11
-259.6000000000000227
 21
-0.0000000000007958
 31
0.0
  0
LINE
  5
CD
100
AcDbEntity
  8
0
 62
256
370
-1
 48
1.0
  6
ByLayer
100
AcDbLine
 10
-259.6000000000000227
 20
-0.0000000000007958
 30
0.0
 11
-140.4000000000000057
 21
-0.0000000000007958
 31
0.0
  0
LINE
  5
CE
100
AcDbEntity
  8
0
 62
256
370
-1
 48
1.0
  6
ByLayer
100
AcDbLine
 10
-140.4000000000000057
 20
3.9999999999993179
 30
0.0
 11
-140.4000000000000057
 21
-0.0000000000007958
 31
0.0
  0
LINE
  5
CF
100
AcDbEntity
  8
0
 62
256
370
-1
 48
1.0
  6
ByLayer
100
AcDbLine
 10
-140.4000000000000057
 20
3.9999999999993179
 30
0.0
 11
-100.4000000000000057
 21
3.9999999999995448
 31
0.0
  0
LINE
  5
D0
100
AcDbEntity
  8
0
 62
256
370
-1
 48
1.0
  6
ByLayer
100
AcDbLine
 10
-100.4000000000000057
 20
3.9999999999995448
 30
0.0
 11
-100.4000000000000057
 21
-0.0000000000011369
 31
0.0
  0
LINE
  5
D1
100
AcDbEntity
  8
0
 62
256
370
-1
 48
1.0
  6
ByLayer
100
AcDbLine
 10
-100.4000000000000057
 20
-0.0000000000011369
 30
0.0
 11
0.0
 21
0.0
 31
0.0
  0
ENDBLK
  5
D2
100
AcDbEntity
  8
0
100
AcDbBlockEnd
  0
ENDSEC
  0
SECTION
  2
ENTITIES
  0
CIRCLE
  5
D3
100
AcDbEntity
  8
0
 62
256
370
-1
 48
1.0
  6
ByLayer
100
AcDbCircle
 10
-530.0
 20
-370.0000000000001137
 30
0.0
 40
20.5
  0
CIRCLE
  5
D4
100
AcDbEntity
  8
0
 62
256
370
-1
 48
1.0
  6
ByLayer
100
AcDbCircle
 10
-530.0
 20
-260.0
 30
0.0
 40
20.5
  0
CIRCLE
  5
D5
100
AcDbEntity
  8
0
 62
256
370
-1
 48
1.0
  6
ByLayer
100
AcDbCircle
 10
-530.0
 20
-150.0
 30
0.0
 40
20.5
  0
CIRCLE
  5
D6
100
AcDbEntity
  8
0
 62
256
370
-1
 48
1.0
  6
ByLayer
100
AcDbCircle
 10
-400.0000000000001137
 20
-370.0
 30
0.0
 40
20.5
  0
CIRCLE
  5
D7
100
AcDbEntity
  8
0
 62
256
370
-1
 48
1.0
  6
ByLayer
100
AcDbCircle
 10
-400.0000000000001137
 20
-260.0
 30
0.0
 40
20.5
  0
CIRCLE
  5
D8
100
AcDbEntity
  8
0
 62
256
370
-1
 48
1.0
  6
ByLayer
100
AcDbCircle
 10
-400.0000000000001137
 20
-150.0000000000001137
 30
0.0
 40
20.5
  0
CIRCLE
  5
D9
100
AcDbEntity
  8
0
 62
256
370
-1
 48
1.0
  6
ByLayer
100
AcDbCircle
 10
-280.0000000000001137
 20
-370.0000000000001137
 30
0.0
 40
20.5
  0
CIRCLE
  5
DA
100
AcDbEntity
  8
0
 62
256
370
-1
 48
1.0
  6
ByLayer
100
AcDbCircle
 10
-280.0000000000001137
 20
-260.0
 30
0.0
 40
20.5
  0
CIRCLE
  5
DB
100
AcDbEntity
  8
0
 62
256
370
-1
 48
1.0
  6
ByLayer
100
AcDbCircle
 10
-280.0
 20
-150.0
 30
0.0
 40
20.5
  0
CIRCLE
  5
DC
100
AcDbEntity
  8
0
 62
256
370
-1
 48
1.0
  6
ByLayer
100
AcDbCircle
 10
-160.0000000000001137
 20
-370.0000000000001137
 30
0.0
 40
20.5
  0
CIRCLE
  5
DD
100
AcDbEntity
  8
0
 62
256
370
-1
 48
1.0
  6
ByLayer
100
AcDbCircle
 10
-160.0000000000001137
 20
-260.0000000000001137
 30
0.0
 40
20.5
  0
CIRCLE
  5
DE
100
AcDbEntity
  8
0
 62
256
370
-1
 48
1.0
  6
ByLayer
100
AcDbCircle
 10
-160.000000000000199
 20
-150.0000000000001137
 30
0.0
 40
20.5
  0
LINE
  5
DF
100
AcDbEntity
  8
0
 62
256
370
-1
 48
1.0
  6
ByLayer
100
AcDbLine
 10
-600.0
 20
-440.0
 30
0.0
 11
-599.9999999999998863
 21
-355.0000000000001137
 31
0.0
  0
LINE
  5
E0
100
AcDbEntity
  8
0
 62
256
370
-1
 48
1.0
  6
ByLayer
100
AcDbLine
 10
-600.0
 20
-165.0
 30
0.0
 11
-599.9999999999998863
 21
-79.9999999999999432
 31
0.0
  0
LINE
  5
E1
100
AcDbEntity
  8
0
 62
256
370
-1
 48
1.0
  6
ByLayer
100
AcDbLine
 10
-80.0
 20
-440.0000000000001137
 30
0.0
 11
-80.0
 21
-355.0000000000001137
 31
0.0
  0
LINE
  5
E2
100
AcDbEntity
  8
0
 62
256
370
-1
 48
1.0
  6
ByLayer
100
AcDbLine
 10
-79.9999999999999858
 20
-165.0000000000001137
 30
0.0
 11
-79.9999999999999716
 21
-80.0000000000000568
 31
0.0
  0
LINE
  5
E3
100
AcDbEntity
  8
0
 62
256
370
-1
 48
1.0
  6
ByLayer
100
AcDbLine
 10
-594.8319223300970862
 20
-31.7065728155338604
 30
0.0
 11
-594.8319223300970862
 21
53.2934271844661396
 31
0.0
  0
LINE
  5
E4
100
AcDbEntity
  8
0
 62
256
370
-1
 48
1.0
  6
ByLayer
100
AcDbLine
 10
-594.8319223300970862
 20
243.2934271844661396
 30
0.0
 11
-594.8319223300970862
 21
328.293427184466168
 31
0.0
  0
LINE
  5
E5
100
AcDbEntity
  8
0
 62
256
370
-1
 48
1.0
  6
ByLayer
100
AcDbLine
 10
-74.8319223300970862
 20
-31.7065728155339741
 30
0.0
 11
-74.8319223300970862
 21
53.2934271844657133
 31
0.0
  0
LINE
  5
E6
100
AcDbEntity
  8
0
 62
256
370
-1
 48
1.0
  6
ByLayer
100
AcDbLine
 10
-74.8319223300968588
 20
243.2934271844657417
 30
0.0
 11
-74.8319223300969725
 21
328.293427184466168
 31
0.0
  0
LINE
  5
E7
100
AcDbEntity
  8
0
 62
256
370
-1
 48
1.0
  6
ByLayer
100
AcDbLine
 10
-599.9999999999998863
 20
-355.0000000000001137
 30
0.0
 11
-604.0
 21
-355.0000000000001137
 31
0.0
  0
LINE
  5
E8
100
AcDbEntity
  8
0
 62
256
370
-1
 48
1.0
  6
ByLayer
100
AcDbLine
 10
-80.0
 20
-355.0000000000001137
 30
0.0
 11
-76.0000000000000711
 21
-355.0000000000001137
 31
0.0
  0
LINE
  5
E9
100
AcDbEntity
  8
0
 62
256
370
-1
 48
1.0
  6
ByLayer
100
AcDbLine
 10
-594.8319223300970862
 20
53.2934271844661396
 30
0.0
 11
-598.8319223300969725
 21
53.2934271844661396
 31
0.0
  0
LINE
  5
EA
100
AcDbEntity
  8
0
 62
256
370
-1
 48
1.0
  6
ByLayer
100
AcDbLine
 10
-74.8319223300970862
 20
53.2934271844657133
 30
0.0
 11
-70.8319223300970862
 21
53.2934271844661396
 31
0.0
  0
LINE
  5
EB
100
AcDbEntity
  8
0
 62
256
370
-1
 48
1.0
  6
ByLayer
100
AcDbLine
 10
-604.0
 20
-355.0000000000001137
 30
0.0
 11
-604.0
 21
-314.2000000000001023
 31
0.0
  0
LINE
  5
EC
100
AcDbEntity
  8
0
 62
256
370
-1
 48
1.0
  6
ByLayer
100
AcDbLine
 10
-76.0000000000000711
 20
-355.0000000000001137
 30
0.0
 11
-75.9999999999996163
 21
-314.1999999999999886
 31
0.0
  0
LINE
  5
ED
100
AcDbEntity
  8
0
 62
256
370
-1
 48
1.0
  6
ByLayer
100
AcDbLine
 10
-598.8319223300969725
 20
53.2934271844661396
 30
0.0
 11
-598.8319223300974272
 21
94.0934271844661509
 31
0.0
  0
LINE
  5
EE
100
AcDbEntity
  8
0
 62
256
370
-1
 48
1.0
  6
ByLayer
100
AcDbLine
 10
-70.8319223300970862
 20
53.2934271844661396
 30
0.0
 11
-70.8319223300969725
 21
94.0934271844658099
 31
0.0
  0
LINE
  5
EF
100
AcDbEntity
  8
0
 62
256
370
-1
 48
1.0
  6
ByLayer
100
AcDbLine
 10
-600.0
 20
-314.1999999999999886
 30
0.0
 11
-604.0
 21
-314.2000000000001023
 31
0.0
  0
LINE
  5
F0
100
AcDbEntity
  8
0
 62
256
370
-1
 48
1.0
  6
ByLayer
100
AcDbLine
 10
-79.9999999999999858
 20
-314.1999999999999886
 30
0.0
 11
-75.9999999999996163
 21
-314.1999999999999886
 31
0.0
  0
LINE
  5
F1
100
AcDbEntity
  8
0
 62
256
370
-1
 48
1.0
  6
ByLayer
100
AcDbLine
 10
-594.8319223300970862
 20
94.0934271844661509
 30
0.0
 11
-598.8319223300974272
 21
94.0934271844661509
 31
0.0
  0
LINE
  5
F2
100
AcDbEntity
  8
0
 62
256
370
-1
 48
1.0
  6
ByLayer
100
AcDbLine
 10
-74.8319223300969725
 20
94.093427184465753
 30
0.0
 11
-70.8319223300969725
 21
94.0934271844658099
 31
0.0
  0
LINE
  5
F3
100
AcDbEntity
  8
0
 62
256
370
-1
 48
1.0
  6
ByLayer
100
AcDbLine
 10
-600.0
 20
-165.0
 30
0.0
 11
-604.0
 21
-165.0
 31
0.0
  0
LINE
  5
F4
100
AcDbEntity
  8
0
 62
256
370
-1
 48
1.0
  6
ByLayer
100
AcDbLine
 10
-79.9999999999999858
 20
-165.0000000000001137
 30
0.0
 11
-76.000000000000739
 21
-165.0000000000001137
 31
0.0
  0
LINE
  5
F5
100
AcDbEntity
  8
0
 62
256
370
-1
 48
1.0
  6
ByLayer
100
AcDbLine
 10
-594.8319223300970862
 20
243.2934271844661396
 30
0.0
 11
-598.8319223300962904
 21
243.2934271844661396
 31
0.0
  0
LINE
  5
F6
100
AcDbEntity
  8
0
 62
256
370
-1
 48
1.0
  6
ByLayer
100
AcDbLine
 10
-74.8319223300968588
 20
243.2934271844657417
 30
0.0
 11
-70.8319223300970862
 21
243.2934271844662533
 31
0.0
  0
LINE
  5
F7
100
AcDbEntity
  8
0
 62
256
370
-1
 48
1.0
  6
ByLayer
100
AcDbLine
 10
-604.0000000000001137
 20
-205.8000000000002103
 30
0.0
 11
-604.0
 21
-165.0
 31
0.0
  0
LINE
  5
F8
100
AcDbEntity
  8
0
 62
256
370
-1
 48
1.0
  6
ByLayer
100
AcDbLine
 10
-76.000000000001009
 20
-205.8000000000000966
 30
0.0
 11
-76.000000000000739
 21
-165.0000000000001137
 31
0.0
  0
LINE
  5
F9
100
AcDbEntity
  8
0
 62
256
370
-1
 48
1.0
  6
ByLayer
100
AcDbLine
 10
-598.8319223300959493
 20
202.4934271844662419
 30
0.0
 11
-598.8319223300962904
 21
243.2934271844661396
 31
0.0
  0
LINE
  5
FA
100
AcDbEntity
  8
0
 62
256
370
-1
 48
1.0
  6
ByLayer
100
AcDbLine
 10
-70.8319223300968588
 20
202.4934271844659008
 30
0.0
 11
-70.8319223300970862
 21
243.2934271844662533
 31
0.0
  0
LINE
  5
FB
100
AcDbEntity
  8
0
 62
256
370
-1
 48
1.0
  6
ByLayer
100
AcDbLine
 10
-600.0
 20
-205.8000000000000966
 30
0.0
 11
-604.0000000000001137
 21
-205.8000000000002103
 31
0.0
  0
LINE
  5
FC
100
AcDbEntity
  8
0
 62
256
370
-1
 48
1.0
  6
ByLayer
100
AcDbLine
 10
-79.9999999999999858
 20
-205.8000000000000966
 30
0.0
 11
-76.000000000001009
 21
-205.8000000000000966
 31
0.0
  0
LINE
  5
FD
100
AcDbEntity
  8
0
 62
256
370
-1
 48
1.0
  6
ByLayer
100
AcDbLine
 10
-594.8319223300970862
 20
202.4934271844662419
 30
0.0
 11
-598.8319223300959493
 21
202.4934271844662419
 31
0.0
  0
LINE
  5
FE
100
AcDbEntity
  8
0
 62
256
370
-1
 48
1.0
  6
ByLayer
100
AcDbLine
 10
-74.8319223300970862
 20
202.4934271844659008
 30
0.0
 11
-70.8319223300968588
 21
202.4934271844659008
 31
0.0
  0
LINE
  5
FF
100
AcDbEntity
  8
0
 62
256
370
-1
 48
1.0
  6
ByLayer
100
AcDbLine
 10
-600.0
 20
-314.1999999999999886
 30
0.0
 11
-600.0
 21
-205.8000000000000966
 31
0.0
  0
LINE
  5
100
100
AcDbEntity
  8
0
 62
256
370
-1
 48
1.0
  6
ByLayer
100
AcDbLine
 10
-79.9999999999999858
 20
-314.1999999999999886
 30
0.0
 11
-79.9999999999999858
 21
-205.8000000000000966
 31
0.0
  0
LINE
  5
101
100
AcDbEntity
  8
0
 62
256
370
-1
 48
1.0
  6
ByLayer
100
AcDbLine
 10
-594.8319223300970862
 20
94.0934271844661509
 30
0.0
 11
-594.8319223300970862
 21
202.4934271844662419
 31
0.0
  0
LINE
  5
102
100
AcDbEntity
  8
0
 62
256
370
-1
 48
1.0
  6
ByLayer
100
AcDbLine
 10
-74.8319223300969725
 20
94.093427184465753
 30
0.0
 11
-74.8319223300970862
 21
202.4934271844659008
 31
0.0
  0
LINE
  5
103
100
AcDbEntity
  8
0
 62
256
370
-1
 48
1.0
  6
ByLayer
100
AcDbLine
 10
-506.1999999999999886
 20
-440.0
 30
0.0
 11
-600.0
 21
-440.0
 31
0.0
  0
LINE
  5
104
100
AcDbEntity
  8
0
 62
256
370
-1
 48
1.0
  6
ByLayer
100
AcDbLine
 10
-501.0319223300970748
 20
-31.7065728155338604
 30
0.0
 11
-594.8319223300970862
 21
-31.7065728155338604
 31
0.0
  0
INSERT
  5
105
100
AcDbEntity
  8
0
 62
256
370
-1
 48
1.0
  6
ByLayer
100
AcDbBlockReference
  2
\U+0431\U+043b\U+043e\U+043a 2
 10
-506.1999999999999886
 20
-440.0
 30
0.0
 50
90.0
  0
INSERT
  5
106
100
AcDbEntity
  8
0
 62
256
370
-1
 48
1.0
  6
ByLayer
100
AcDbBlockReference
  2
\U+0431\U+043b\U+043e\U+043a 2
 10
-501.0319223300970748
 20
-31.7065728155338604
 30
0.0
 50
90.0
  0
LINE
  5
107
100
AcDbEntity
  8
0
 62
256
370
-1
 48
1.0
  6
ByLayer
100
AcDbLine
 10
-80.0
 20
-440.0000000000001137
 30
0.0
 11
-173.8000000000000114
 21
-440.0000000000001137
 31
0.0
  0
LINE
  5
108
100
AcDbEntity
  8
0
 62
256
370
-1
 48
1.0
  6
ByLayer
100
AcDbLine
 10
-74.8319223300970862
 20
-31.7065728155339741
 30
0.0
 11
-168.6319223300970407
 21
-31.7065728155339741
 31
0.0
  0
LINE
  5
109
100
AcDbEntity
  8
0
 62
256
370
-1
 48
1.0
  6
ByLayer
100
AcDbLine
 10
-44.1778058252425012
 20
-123.2744757281553802
 30
0.0
 11
-44.1778058252425012
 21
-32.4744757281553689
 31
0.0
  0
LINE
  5
10A
100
AcDbEntity
  8
0
 62
256
370
-1
 48
1.0
  6
ByLayer
100
AcDbLine
 10
-44.1778058252425012
 20
-264.0744757281553916
 30
0.0
 11
-44.1778058252425012
 21
-173.2744757281553802
 31
0.0
  0
LINE
  5
10B
100
AcDbEntity
  8
0
 62
256
370
-1
 48
1.0
  6
ByLayer
100
AcDbLine
 10
-369.6142524271845105
 20
-476.0568058252430319
 30
0.0
 11
-278.8142524271845559
 21
-476.0568058252430319
 31
0.0
  0
LINE
  5
10C
100
AcDbEntity
  8
0
 62
256
370
-1
 48
1.0
  6
ByLayer
100
AcDbLine
 10
-510.4142524271845218
 20
-476.0568058252429182
 30
0.0
 11
-419.6142524271845105
 21
-476.0568058252428045
 31
0.0
  0
LINE
  5
10D
100
AcDbEntity
  8
0
 62
256
370
-1
 48
1.0
  6
ByLayer
100
AcDbLine
 10
-80.0
 20
-470.0
 30
0.0
 11
5.4000000000000057
 21
-470.0
 31
0.0
  0
LINE
  5
10E
100
AcDbEntity
  8
0
 62
256
370
-1
 48
1.0
  6
ByLayer
100
AcDbLine
 10
194.5999999999999943
 20
-470.0
 30
0.0
 11
280.0
 21
-470.0
 31
0.0
  0
LINE
  5
10F
100
AcDbEntity
  8
0
 62
256
370
-1
 48
1.0
  6
ByLayer
100
AcDbLine
 10
5.4000000000000057
 20
-474.0
 30
0.0
 11
5.4000000000000057
 21
-470.0
 31
0.0
  0
LINE
  5
110
100
AcDbEntity
  8
0
 62
256
370
-1
 48
1.0
  6
ByLayer
100
AcDbLine
 10
5.4000000000000057
 20
-474.0
 30
0.0
 11
45.4000000000000128
 21
-474.0
 31
0.0
  0
LINE
  5
111
100
AcDbEntity
  8
0
 62
256
370
-1
 48
1.0
  6
ByLayer
100
AcDbLine
 10
45.4000000000000128
 20
-474.0
 30
0.0
 11
45.4000000000000128
 21
-470.0
 31
0.0
  0
LINE
  5
112
100
AcDbEntity
  8
0
 62
256
370
-1
 48
1.0
  6
ByLayer
100
AcDbLine
 10
154.5999999999999943
 20
-474.0
 30
0.0
 11
154.5999999999999943
 21
-470.0
 31
0.0
  0
LINE
  5
113
100
AcDbEntity
  8
0
 62
256
370
-1
 48
1.0
  6
ByLayer
100
AcDbLine
 10
154.5999999999999943
 20
-474.0
 30
0.0
 11
194.5999999999999943
 21
-474.0
 31
0.0
  0
LINE
  5
114
100
AcDbEntity
  8
0
 62
256
370
-1
 48
1.0
  6
ByLayer
100
AcDbLine
 10
194.5999999999999943
 20
-474.0
 30
0.0
 11
194.5999999999999943
 21
-470.0
 31
0.0
  0
LINE
  5
115
100
AcDbEntity
  8
0
 62
256
370
-1
 48
1.0
  6
ByLayer
100
AcDbLine
 10
-80.0
 20
-490.0
 30
0.0
 11
-80.0
 21
-470.0
 31
0.0
  0
LINE
  5
116
100
AcDbEntity
  8
0
 62
256
370
-1
 48
1.0
  6
ByLayer
100
AcDbLine
 10
280.0
 20
-490.0
 30
0.0
 11
280.0
 21
-470.0
 31
0.0
  0
LINE
  5
117
100
AcDbEntity
  8
0
 62
256
370
-1
 48
1.0
  6
ByLayer
100
AcDbLine
 10
-84.0
 20
-490.0
 30
0.0
 11
-80.0
 21
-490.0
 31
0.0
  0
LINE
  5
118
100
AcDbEntity
  8
0
 62
256
370
-1
 48
1.0
  6
ByLayer
100
AcDbLine
 10
284.0
 20
-490.0
 30
0.0
 11
280.0
 21
-490.0
 31
0.0
  0
LINE
  5
119
100
AcDbEntity
  8
0
 62
256
370
-1
 48
1.0
  6
ByLayer
100
AcDbLine
 10
-84.0
 20
-530.8000000000000682
 30
0.0
 11
-84.0
 21
-490.0000000000001137
 31
0.0
  0
LINE
  5
11A
100
AcDbEntity
  8
0
 62
256
370
-1
 48
1.0
  6
ByLayer
100
AcDbLine
 10
284.0
 20
-530.7999999999999545
 30
0.0
 11
284.0
 21
-490.0000000000001137
 31
0.0
  0
LINE
  5
11B
100
AcDbEntity
  8
0
 62
256
370
-1
 48
1.0
  6
ByLayer
100
AcDbLine
 10
-44.1778058252425012
 20
17.5255242718446205
 30
0.0
 11
-40.1778058252425012
 21
17.5255242718446205
 31
0.0
  0
LINE
  5
11C
100
AcDbEntity
  8
0
 62
256
370
-1
 48
1.0
  6
ByLayer
100
AcDbLine
 10
-44.1778058252425012
 20
-123.2744757281553802
 30
0.0
 11
-40.1778058252425012
 21
-123.2744757281553802
 31
0.0
  0
LINE
  5
11D
100
AcDbEntity
  8
0
 62
256
370
-1
 48
1.0
  6
ByLayer
100
AcDbLine
 10
-44.1778058252425012
 20
-264.0744757281553916
 30
0.0
 11
-40.1778058252425012
 21
-264.0744757281553916
 31
0.0
  0
LINE
  5
11E
100
AcDbEntity
  8
0
 62
256
370
-1
 48
1.0
  6
ByLayer
100
AcDbLine
 10
-228.8142524271845559
 20
-476.0568058252429182
 30
0.0
 11
-228.8142524271845559
 21
-480.0568058252430319
 31
0.0
  0
LINE
  5
11F
100
AcDbEntity
  8
0
 62
256
370
-1
 48
1.0
  6
ByLayer
100
AcDbLine
 10
-369.6142524271845105
 20
-476.0568058252430319
 30
0.0
 11
-369.6142524271845105
 21
-480.056805825241895
 31
0.0
  0
LINE
  5
120
100
AcDbEntity
  8
0
 62
256
370
-1
 48
1.0
  6
ByLayer
100
AcDbLine
 10
-510.4142524271845218
 20
-476.0568058252429182
 30
0.0
 11
-510.4142524271845218
 21
-480.0568058252455899
 31
0.0
  0
LINE
  5
121
100
AcDbEntity
  8
0
 62
256
370
-1
 48
1.0
  6
ByLayer
100
AcDbLine
 10
-40.1778058252425012
 20
-32.4744757281553689
 30
0.0
 11
-40.1778058252425012
 21
17.5255242718446205
 31
0.0
  0
LINE
  5
122
100
AcDbEntity
  8
0
 62
256
370
-1
 48
1.0
  6
ByLayer
100
AcDbLine
 10
-40.1778058252425012
 20
-173.2744757281553802
 30
0.0
 11
-40.1778058252425012
 21
-123.2744757281553802
 31
0.0
  0
LINE
  5
123
100
AcDbEntity
  8
0
 62
256
370
-1
 48
1.0
  6
ByLayer
100
AcDbLine
 10
-40.1778058252425012
 20
-314.0744757281553916
 30
0.0
 11
-40.1778058252425012
 21
-264.0744757281553916
 31
0.0
  0
LINE
  5
124
100
AcDbEntity
  8
0
 62
256
370
-1
 48
1.0
  6
ByLayer
100
AcDbLine
 10
-278.8142524271845559
 20
-480.0568058252432024
 30
0.0
 11
-228.8142524271845559
 21
-480.0568058252430319
 31
0.0
  0
LINE
  5
125
100
AcDbEntity
  8
0
 62
256
370
-1
 48
1.0
  6
ByLayer
100
AcDbLine
 10
-419.6142524271845105
 20
-480.0568058252436003
 30
0.0
 11
-369.6142524271845105
 21
-480.056805825241895
 31
0.0
  0
LINE
  5
126
100
AcDbEntity
  8
0
 62
256
370
-1
 48
1.0
  6
ByLayer
100
AcDbLine
 10
-560.414252427184465
 20
-480.056805825245533
 30
0.0
 11
-510.4142524271845218
 21
-480.0568058252455899
 31
0.0
  0
LINE
  5
127
100
AcDbEntity
  8
0
 62
256
370
-1
 48
1.0
  6
ByLayer
100
AcDbLine
 10
-44.1778058252425012
 20
-32.4744757281553689
 30
0.0
 11
-40.1778058252425012
 21
-32.4744757281553689
 31
0.0
  0
LINE
  5
128
100
AcDbEntity
  8
0
 62
256
370
-1
 48
1.0
  6
ByLayer
100
AcDbLine
 10
-44.1778058252425012
 20
-173.2744757281553802
 30
0.0
 11
-40.1778058252425012
 21
-173.2744757281553802
 31
0.0
  0
LINE
  5
129
100
AcDbEntity
  8
0
 62
256
370
-1
 48
1.0
  6
ByLayer
100
AcDbLine
 10
-44.1778058252425012
 20
-314.0744757281553916
 30
0.0
 11
-40.1778058252425012
 21
-314.0744757281553916
 31
0.0
  0
LINE
  5
12A
100
AcDbEntity
  8
0
 62
256
370
-1
 48
1.0
  6
ByLayer
100
AcDbLine
 10
-278.8142524271845559
 20
-476.0568058252430319
 30
0.0
 11
-278.8142524271845559
 21
-480.0568058252432024
 31
0.0
  0
LINE
  5
12B
100
AcDbEntity
  8
0
 62
256
370
-1
 48
1.0
  6
ByLayer
100
AcDbLine
 10
-419.6142524271845105
 20
-476.0568058252428045
 30
0.0
 11
-419.6142524271845105
 21
-480.0568058252436003
 31
0.0
  0
LINE
  5
12C
100
AcDbEntity
  8
0
 62
256
370
-1
 48
1.0
  6
ByLayer
100
AcDbLine
 10
-560.414252427184465
 20
-476.0568058252428045
 30
0.0
 11
-560.414252427184465
 21
-480.056805825245533
 31
0.0
  0
LINE
  5
12D
100
AcDbEntity
  8
0
 62
256
370
-1
 48
1.0
  6
ByLayer
100
AcDbLine
 10
-84.0
 20
-530.8000000000000682
 30
0.0
 11
-80.0
 21
-530.8000000000000682
 31
0.0
  0
LINE
  5
12E
100
AcDbEntity
  8
0
 62
256
370
-1
 48
1.0
  6
ByLayer
100
AcDbLine
 10
284.0
 20
-530.7999999999999545
 30
0.0
 11
280.0
 21
-530.7999999999999545
 31
0.0
  0
LINE
  5
12F
100
AcDbEntity
  8
0
 62
256
370
-1
 48
1.0
  6
ByLayer
100
AcDbLine
 10
-80.0
 20
-590.8000000000000682
 30
0.0
 11
280.0
 21
-590.8000000000000682
 31
0.0
  0
LINE
  5
130
100
AcDbEntity
  8
0
 62
256
370
-1
 48
1.0
  6
ByLayer
100
AcDbLine
 10
-80.0
 20
-590.8000000000000682
 30
0.0
 11
-80.0
 21
-530.8000000000000682
 31
0.0
  0
LINE
  5
131
100
AcDbEntity
  8
0
 62
256
370
-1
 48
1.0
  6
ByLayer
100
AcDbLine
 10
280.0
 20
-590.7999999999999545
 30
0.0
 11
280.0
 21
-530.7999999999999545
 31
0.0
  0
INSERT
  5
132
100
AcDbEntity
  8
0
 62
256
370
-1
 48
1.0
  6
ByLayer
100
AcDbBlockReference
  2
\U+0431\U+043b\U+043e\U+043a 7
 10
5.4000000000000004
 20
-530.7999999999999545
 30
0.0
  0
INSERT
  5
133
100
AcDbEntity
  8
0
 62
256
370
-1
 48
1.0
  6
ByLayer
100
AcDbBlockReference
  2
\U+0431\U+043b\U+043e\U+043a 7
 10
154.5999999999999943
 20
-530.7999999999999545
 30
0.0
  0
LINE
  5
134
100
AcDbEntity
  8
0
 62
256
370
-1
 48
1.0
  6
ByLayer
100
AcDbLine
 10
-44.1778058252425012
 20
17.5255242718446205
 30
0.0
 11
-44.1778058252425012
 21
115.7255242718446198
 31
0.0
  0
LINE
  5
135
100
AcDbEntity
  8
0
 62
256
370
-1
 48
1.0
  6
ByLayer
100
AcDbLine
 10
-44.1778058252425012
 20
-412.2744757281553802
 30
0.0
 11
-44.1778058252425012
 21
-314.0744757281553916
 31
0.0
  0
LINE
  5
136
100
AcDbEntity
  8
0
 62
256
370
-1
 48
1.0
  6
ByLayer
100
AcDbLine
 10
-228.8142524271845559
 20
-476.0568058252429182
 30
0.0
 11
-130.6142524271845105
 21
-476.0568058252430319
 31
0.0
  0
LINE
  5
137
100
AcDbEntity
  8
0
 62
256
370
-1
 48
1.0
  6
ByLayer
100
AcDbLine
 10
-658.6142524271845105
 20
-476.0568058252428045
 30
0.0
 11
-560.414252427184465
 21
-476.0568058252428045
 31
0.0
  0
LINE
  5
138
100
AcDbEntity
  8
0
 62
256
370
-1
 48
1.0
  6
ByLayer
100
AcDbLine
 10
-23.777805825242524
 20
-412.2744757281553802
 30
0.0
 11
-23.777805825242524
 21
-408.2744757281553802
 31
0.0
  0
LINE
  5
139
100
AcDbEntity
  8
0
 62
256
370
-1
 48
1.0
  6
ByLayer
100
AcDbLine
 10
16.222194174757476
 20
-412.2744757281553802
 30
0.0
 11
16.222194174757476
 21
-408.2744757281553802
 31
0.0
  0
LINE
  5
13A
100
AcDbEntity
  8
0
 62
256
370
-1
 48
1.0
  6
ByLayer
100
AcDbLine
 10
-23.777805825242524
 20
115.7255242718446624
 30
0.0
 11
-23.777805825242524
 21
111.725524271844435
 31
0.0
  0
LINE
  5
13B
100
AcDbEntity
  8
0
 62
256
370
-1
 48
1.0
  6
ByLayer
100
AcDbLine
 10
16.222194174757476
 20
115.7255242718445487
 30
0.0
 11
16.222194174757476
 21
111.7255242718445487
 31
0.0
  0
LINE
  5
13C
100
AcDbEntity
  8
0
 62
256
370
-1
 48
1.0
  6
ByLayer
100
AcDbLine
 10
-658.6142524271845105
 20
-496.4568058252415312
 30
0.0
 11
-654.6142524271842831
 21
-496.4568058252427249
 31
0.0
  0
LINE
  5
13D
100
AcDbEntity
  8
0
 62
256
370
-1
 48
1.0
  6
ByLayer
100
AcDbLine
 10
-658.6142524271845105
 20
-536.4568058252432365
 30
0.0
 11
-654.6142524271845105
 21
-536.4568058252428955
 31
0.0
  0
LINE
  5
13E
100
AcDbEntity
  8
0
 62
256
370
-1
 48
1.0
  6
ByLayer
100
AcDbLine
 10
-130.6142524271845105
 20
-496.4568058252428955
 30
0.0
 11
-134.6142524271846241
 21
-496.4568058252428955
 31
0.0
  0
LINE
  5
13F
100
AcDbEntity
  8
0
 62
256
370
-1
 48
1.0
  6
ByLayer
100
AcDbLine
 10
-130.6142524271845105
 20
-536.4568058252427818
 30
0.0
 11
-134.6142524271845105
 21
-536.4568058252427818
 31
0.0
  0
LINE
  5
140
100
AcDbEntity
  8
0
 62
256
370
-1
 48
1.0
  6
ByLayer
100
AcDbLine
 10
-23.777805825242524
 20
-408.2744757281553802
 30
0.0
 11
16.222194174757476
 21
-408.2744757281553802
 31
0.0
  0
LINE
  5
141
100
AcDbEntity
  8
0
 62
256
370
-1
 48
1.0
  6
ByLayer
100
AcDbLine
 10
-23.777805825242524
 20
111.725524271844435
 30
0.0
 11
16.222194174757476
 21
111.7255242718445487
 31
0.0
  0
LINE
  5
142
100
AcDbEntity
  8
0
 62
256
370
-1
 48
1.0
  6
ByLayer
100
AcDbLine
 10
-654.6142524271842831
 20
-496.4568058252427249
 30
0.0
 11
-654.6142524271845105
 21
-536.4568058252428955
 31
0.0
  0
LINE
  5
143
100
AcDbEntity
  8
0
 62
256
370
-1
 48
1.0
  6
ByLayer
100
AcDbLine
 10
-134.6142524271846241
 20
-496.4568058252428955
 30
0.0
 11
-134.6142524271845105
 21
-536.4568058252427818
 31
0.0
  0
LINE
  5
144
100
AcDbEntity
  8
0
 62
256
370
-1
 48
1.0
  6
ByLayer
100
AcDbLine
 10
-44.1778058252425012
 20
-412.2744757281553802
 30
0.0
 11
-23.777805825242524
 21
-412.2744757281553802
 31
0.0
  0
LINE
  5
145
100
AcDbEntity
  8
0
 62
256
370
-1
 48
1.0
  6
ByLayer
100
AcDbLine
 10
-44.1778058252425012
 20
115.7255242718446198
 30
0.0
 11
-23.777805825242524
 21
115.7255242718446624
 31
0.0
  0
LINE
  5
146
100
AcDbEntity
  8
0
 62
256
370
-1
 48
1.0
  6
ByLayer
100
AcDbLine
 10
-658.6142524271845105
 20
-476.0568058252428045
 30
0.0
 11
-658.6142524271845105
 21
-496.4568058252415312
 31
0.0
  0
LINE
  5
147
100
AcDbEntity
  8
0
 62
256
370
-1
 48
1.0
  6
ByLayer
100
AcDbLine
 10
-130.6142524271845105
 20
-476.0568058252430319
 30
0.0
 11
-130.6142524271845105
 21
-496.4568058252428955
 31
0.0
  0
LINE
  5
148
100
AcDbEntity
  8
0
 62
256
370
-1
 48
1.0
  6
ByLayer
100
AcDbLine
 10
16.222194174757476
 20
-412.2744757281553802
 30
0.0
 11
76.6221941747575102
 21
-412.2744757281553802
 31
0.0
  0
LINE
  5
149
100
AcDbEntity
  8
0
 62
256
370
-1
 48
1.0
  6
ByLayer
100
AcDbLine
 10
16.222194174757476
 20
115.7255242718445487
 30
0.0
 11
76.6221941747575102
 21
115.725524271844634
 31
0.0
  0
LINE
  5
14A
100
AcDbEntity
  8
0
 62
256
370
-1
 48
1.0
  6
ByLayer
100
AcDbLine
 10
-658.6142524271845105
 20
-536.4568058252432365
 30
0.0
 11
-658.6142524271845105
 21
-596.8568058252426454
 31
0.0
  0
LINE
  5
14B
100
AcDbEntity
  8
0
 62
256
370
-1
 48
1.0
  6
ByLayer
100
AcDbLine
 10
-130.6142524271845105
 20
-536.4568058252427818
 30
0.0
 11
-130.6142524271845105
 21
-596.8568058252429864
 31
0.0
  0
LINE
  5
14C
100
AcDbEntity
  8
0
 62
256
370
-1
 48
1.0
  6
ByLayer
100
AcDbLine
 10
76.6221941747575102
 20
-412.2744757281553802
 30
0.0
 11
76.6221941747575102
 21
115.7255242718446198
 31
0.0
  0
LINE
  5
14D
100
AcDbEntity
  8
0
 62
256
370
-1
 48
1.0
  6
ByLayer
100
AcDbLine
 10
-658.6142524271845105
 20
-596.8568058252426454
 30
0.0
 11
-130.6142524271845105
 21
-596.8568058252429864
 31
0.0
  0
INSERT
  5
14E
100
AcDbEntity
  8
0
 62
256
370
-1
 48
1.0
  6
ByLayer
100
AcDbBlockReference
  2
\U+0431\U+043b\U+043e\U+043a 10
 10
16.6221941747575102
 20
17.5255242718446205
 30
0.0
  0
INSERT
  5
14F
100
AcDbEntity
  8
0
 62
256
370
-1
 48
1.0
  6
ByLayer
100
AcDbBlockReference
  2
\U+0431\U+043b\U+043e\U+043a 10
 10
16.6221941747575102
 20
-123.2744757281553802
 30
0.0
  0
INSERT
  5
150
100
AcDbEntity
  8
0
 62
256
370
-1
 48
1.0
  6
ByLayer
100
AcDbBlockReference
  2
\U+0431\U+043b\U+043e\U+043a 10
 10
16.6221941747575102
 20
-264.0744757281553916
 30
0.0
  0
INSERT
  5
151
100
AcDbEntity
  8
0
 62
256
370
-1
 48
1.0
  6
ByLayer
100
AcDbBlockReference
  2
\U+0431\U+043b\U+043e\U+043a 10
 10
-228.8142524271845559
 20
-536.8568058252429864
 30
0.0
 50
270.0
  0
INSERT
  5
152
100
AcDbEntity
  8
0
 62
256
370
-1
 48
1.0
  6
ByLayer
100
AcDbBlockReference
  2
\U+0431\U+043b\U+043e\U+043a 10
 10
-369.6142524271845105
 20
-536.8568058252426454
 30
0.0
 50
270.0
  0
INSERT
  5
153
100
AcDbEntity
  8
0
 62
256
370
-1
 48
1.0
  6
ByLayer
100
AcDbBlockReference
  2
\U+0431\U+043b\U+043e\U+043a 10
 10
-510.4142524271845218
 20
-536.8568058252429864
 30
0.0
 50
270.0
  0
INSERT
  5
154
100
AcDbEntity
  8
0
 62
256
370
-1
 48
1.0
  6
ByLayer
100
AcDbBlockReference
  2
\U+0431\U+043b\U+043e\U+043a 11
 10
-599.9999999999998863
 20
-79.9999999999999432
 30
0.0
 50
90.0
  0
INSERT
  5
155
100
AcDbEntity
  8
0
 62
256
370
-1
 48
1.0
  6
ByLayer
100
AcDbBlockReference
  2
\U+0431\U+043b\U+043e\U+043a 11
 10
-594.8319223300970862
 20
328.293427184466168
 30
0.0
 50
90.0
  0
LINE
  5
156
100
AcDbEntity
  8
0
 62
256
370
-1
 48
1.0
  6
ByLayer
100
AcDbLine
 10
45.4000000000000128
 20
-470.0
 30
0.0
 11
154.5999999999999943
 21
-470.0
 31
0.0
  0
CIRCLE
  5
157
100
AcDbEntity
  8
0
 62
256
370
-1
 48
1.0
  6
ByLayer
100
AcDbCircle
 10
-209.2898834951456593
 20
-511.3736601941753861
 30
0.0
 40
9.5
  0
CIRCLE
  5
158
100
AcDbEntity
  8
0
 62
256
370
-1
 48
1.0
  6
ByLayer
100
AcDbCircle
 10
-169.7898834951456593
 20
-511.3736601941753861
 30
0.0
 40
9.5
  0
LINE
  5
159
100
AcDbEntity
  8
0
 62
256
370
-1
 48
1.0
  6
ByLayer
100
AcDbLine
 10
100.0
 20
-400.0
 30
0.0
 11
100.0000000000001137
 21
-32.6000000000000227
 31
0.0
  0
LINE
  5
15A
100
AcDbEntity
  8
0
 62
256
370
-1
 48
1.0
  6
ByLayer
100
AcDbLine
 10
520.8000000000000682
 20
-400.0000000000001705
 30
0.0
 11
100.0
 21
-400.0
 31
0.0
  0
LINE
  5
15B
100
AcDbEntity
  8
0
 62
256
370
-1
 48
1.0
  6
ByLayer
100
AcDbLine
 10
520.8000000000001819
 20
-32.6000000000001364
 30
0.0
 11
100.0000000000001137
 21
-32.6000000000000227
 31
0.0
  0
LINE
  5
15C
100
AcDbEntity
  8
0
 62
256
370
-1
 48
1.0
  6
ByLayer
100
AcDbLine
 10
520.8000000000001819
 20
367.3999999999998067
 30
0.0
 11
100.0000000000001137
 21
367.3999999999999204
 31
0.0
  0
LINE
  5
15D
100
AcDbEntity
  8
0
 62
256
370
-1
 48
1.0
  6
ByLayer
100
AcDbLine
 10
520.8000000000000682
 20
-82.6000000000001364
 30
0.0
 11
520.8000000000001819
 21
-32.6000000000001364
 31
0.0
  0
LINE
  5
15E
100
AcDbEntity
  8
0
 62
256
370
-1
 48
1.0
  6
ByLayer
100
AcDbLine
 10
520.8000000000000682
 20
317.3999999999998067
 30
0.0
 11
520.8000000000001819
 21
367.3999999999998067
 31
0.0
  0
LINE
  5
15F
100
AcDbEntity
  8
0
 62
256
370
-1
 48
1.0
  6
ByLayer
100
AcDbLine
 10
520.8000000000000682
 20
-400.0000000000001705
 30
0.0
 11
520.8000000000000682
 21
-350.0
 31
0.0
  0
LINE
  5
160
100
AcDbEntity
  8
0
 62
256
370
-1
 48
1.0
  6
ByLayer
100
AcDbLine
 10
520.8000000000000682
 20
-0.0000000000002274
 30
0.0
 11
520.8000000000000682
 21
49.9999999999999432
 31
0.0
  0
ARC
  5
161
100
AcDbEntity
  8
0
 62
256
370
-1
 48
1.0
  6
ByLayer
100
AcDbCircle
 10
645.9007758620651884
 20
-216.3000000000002956
 30
0.0
 40
183.1007758620662571
100
AcDbArc
 50
133.0969220528942856
 51
226.9030779471057144
  0
ARC
  5
162
100
AcDbEntity
  8
0
 62
256
370
-1
 48
1.0
  6
ByLayer
100
AcDbCircle
 10
645.9007758620651884
 20
183.6999999999996476
 30
0.0
 40
183.1007758620662571
100
AcDbArc
 50
133.0969220528942856
 51
226.9030779471057144
  0
CIRCLE
  5
163
100
AcDbEntity
  8
0
 62
256
370
-1
 48
1.0
  6
ByLayer
100
AcDbCircle
 10
130.0
 20
-72.6000000000000227
 30
0.0
 40
1.5
  0
CIRCLE
  5
164
100
AcDbEntity
  8
0
 62
256
370
-1
 48
1.0
  6
ByLayer
100
AcDbCircle
 10
200.0
 20
-72.6000000000000227
 30
0.0
 40
1.5
  0
CIRCLE
  5
165
100
AcDbEntity
  8
0
 62
256
370
-1
 48
1.0
  6
ByLayer
100
AcDbCircle
 10
130.0
 20
327.3999999999999204
 30
0.0
 40
1.5
  0
CIRCLE
  5
166
100
AcDbEntity
  8
0
 62
256
370
-1
 48
1.0
  6
ByLayer
100
AcDbCircle
 10
200.0
 20
327.3999999999999204
 30
0.0
 40
1.5
  0
INSERT
  5
167
100
AcDbEntity
  8
0
 62
256
370
-1
 48
1.0
  6
ByLayer
100
AcDbBlockReference
  2
\U+0431\U+043b\U+043e\U+043a 15
 10
130.0000000000000568
 20
-360.0000000000000568
 30
0.0
 50
90.0
  0
INSERT
  5
168
100
AcDbEntity
  8
0
 62
256
370
-1
 48
1.0
  6
ByLayer
100
AcDbBlockReference
  2
\U+0431\U+043b\U+043e\U+043a 15
 10
130.0
 20
-216.3000000000000682
 30
0.0
 50
90.0
  0
INSERT
  5
169
100
AcDbEntity
  8
0
 62
256
370
-1
 48
1.0
  6
ByLayer
100
AcDbBlockReference
  2
\U+0431\U+043b\U+043e\U+043a 15
 10
130.0000000000000568
 20
39.9999999999998863
 30
0.0
 50
90.0
  0
INSERT
  5
16A
100
AcDbEntity
  8
0
 62
256
370
-1
 48
1.0
  6
ByLayer
100
AcDbBlockReference
  2
\U+0431\U+043b\U+043e\U+043a 15
 10
130.0
 20
183.6999999999998749
 30
0.0
 50
90.0
  0
LINE
  5
16B
100
AcDbEntity
  8
0
 62
256
370
-1
 48
1.0
  6
ByLayer
100
AcDbLine
 10
130.0
 20
0.0
 30
0.0
 11
130.0
 21
30.0
 31
0.0
  0
LINE
  5
16C
100
AcDbEntity
  8
0
 62
256
370
-1
 48
1.0
  6
ByLayer
100
AcDbLine
 10
100.0
 20
30.0
 30
0.0
 11
130.0
 21
30.0
 31
0.0
  0
LINE
  5
16D
100
AcDbEntity
  8
0
 62
256
370
-1
 48
1.0
  6
ByLayer
100
AcDbLine
 10
130.0
 20
0.0
 30
0.0
 11
520.7999999999999545
 21
0.0
 31
0.0
  0
LINE
  5
16E
100
AcDbEntity
  8
0
 62
256
370
-1
 48
1.0
  6
ByLayer
100
AcDbLine
 10
100.0
 20
30.0
 30
0.0
 11
100.0000000000000142
 21
367.3999999999999773
 31
0.0
  0
ENDSEC
  0
SECTION
  2
OBJECTS
  0
DICTIONARY
  5
C
100
AcDbDictionary
280
0
281
1
  3
ACAD_GROUP
350
D
  3
ACAD_LAYOUT
350
1A
  3
ACAD_MLINESTYLE
350
17
  3
ACAD_PLOTSETTINGS
350
19
  3
ACAD_PLOTSTYLENAME
350
E
  3
AcDbVariableDictionary
350
16F
  3
QCAD_OBJECTS
350
170
  0
DICTIONARY
  5
D
100
AcDbDictionary
280
0
281
1
  0
ACDBDICTIONARYWDFLT
  5
E
100
AcDbDictionary
281
1
  3
Normal
350
F
100
AcDbDictionaryWithDefault
340
F
  0
ACDBPLACEHOLDER
  5
F
  0
DICTIONARY
  5
17
100
AcDbDictionary
280
0
281
1
  3
Standard
350
18
  0
MLINESTYLE
  5
18
100
AcDbMlineStyle
  2
STANDARD
 70
0
  3

 62
256
 51
90.0
 52
90.0
 71
2
 49
0.5
 62
256
  6
BYLAYER
 49
-0.5
 62
256
  6
BYLAYER
  0
DICTIONARY
  5
19
100
AcDbDictionary
280
0
281
1
  0
DICTIONARY
  5
1A
100
AcDbDictionary
281
1
  3
Layout1
350
1E
  3
Layout2
350
26
  3
Model
350
22
  0
LAYOUT
  5
1E
100
AcDbPlotSettings
  1

  2
none_device
  4

  6

 40
0.0
 41
0.0
 42
0.0
 43
0.0
 44
0.0
 45
0.0
 46
0.0
 47
0.0
 48
0.0
 49
0.0
140
0.0
141
0.0
142
1.0
143
1.0
 70
688
 72
0
 73
0
 74
5
  7

 75
16
147
1.0
148
0.0
149
0.0
100
AcDbLayout
  1
Layout1
 70
1
 71
1
 10
0.0
 20
0.0
 11
420.0
 21
297.0
 12
0.0
 22
0.0
 32
0.0
 14
100000000000000000000.0
 24
100000000000000000000.0
 34
100000000000000000000.0
 15
-100000000000000000000.0
 25
-100000000000000000000.0
 35
-100000000000000000000.0
146
0.0
 13
0.0
 23
0.0
 33
0.0
 16
1.0
 26
0.0
 36
0.0
 17
0.0
 27
1.0
 37
0.0
 76
0
330
1B
  0
LAYOUT
  5
22
100
AcDbPlotSettings
  1

  2
none_device
  4

  6

 40
0.0
 41
0.0
 42
0.0
 43
0.0
 44
0.0
 45
0.0
 46
0.0
 47
0.0
 48
0.0
 49
0.0
140
0.0
141
0.0
142
1.0
143
1.0
 70
1712
 72
0
 73
0
 74
0
  7

 75
0
147
1.0
148
0.0
149
0.0
100
AcDbLayout
  1
Model
 70
1
 71
0
 10
0.0
 20
0.0
 11
12.0
 21
9.0
 12
0.0
 22
0.0
 32
0.0
 14
0.0
 24
0.0
 34
0.0
 15
0.0
 25
0.0
 35
0.0
146
0.0
 13
0.0
 23
0.0
 33
0.0
 16
1.0
 26
0.0
 36
0.0
 17
0.0
 27
1.0
 37
0.0
 76
0
330
1F
  0
LAYOUT
  5
26
100
AcDbPlotSettings
  1

  2
none_device
  4

  6

 40
0.0
 41
0.0
 42
0.0
 43
0.0
 44
0.0
 45
0.0
 46
0.0
 47
0.0
 48
0.0
 49
0.0
140
0.0
141
0.0
142
1.0
143
1.0
 70
688
 72
0
 73
0
 74
5
  7

 75
16
147
1.0
148
0.0
149
0.0
100
AcDbLayout
  1
Layout2
 70
1
 71
2
 10
0.0
 20
0.0
 11
12.0
 21
9.0
 12
0.0
 22
0.0
 32
0.0
 14
0.0
 24
0.0
 34
0.0
 15
0.0
 25
0.0
 35
0.0
146
0.0
 13
0.0
 23
0.0
 33
0.0
 16
1.0
 26
0.0
 36
0.0
 17
0.0
 27
1.0
 37
0.0
 76
0
330
23
  0
DICTIONARY
  5
16F
100
AcDbDictionary
281
1
  3
DIMASSOC
350
172
  3
HIDETEXT
350
171
  0
DICTIONARYVAR
  5
171
100
DictionaryVariables
280
0
  1
2
  0
DICTIONARYVAR
  5
172
100
DictionaryVariables
280
0
  1
1
  0
DICTIONARY
  5
170
100
AcDbDictionary
281
1
  3
ColorSettings/BackgroundColor
350
173
  3
ColorSettings/ColorMode
350
174
  3
Grid/DisplayGrid00
350
175
  3
Grid/DisplayGrid01
350
176
  3
Grid/DisplayGrid02
350
177
  3
Grid/DisplayGrid03
350
178
  3
Grid/GridSpacingX00
350
179
  3
Grid/GridSpacingX01
350
17A
  3
Grid/GridSpacingX02
350
17B
  3
Grid/GridSpacingX03
350
17C
  3
Grid/GridSpacingY00
350
17D
  3
Grid/GridSpacingY01
350
17E
  3
Grid/GridSpacingY02
350
17F
  3
Grid/GridSpacingY03
350
180
  3
Grid/IsometricGrid00
350
181
  3
Grid/IsometricGrid01
350
182
  3
Grid/IsometricGrid02
350
183
  3
Grid/IsometricGrid03
350
184
  3
Grid/IsometricProjection00
350
185
  3
Grid/IsometricProjection01
350
186
  3
Grid/IsometricProjection02
350
187
  3
Grid/IsometricProjection03
350
188
  3
Grid/MetaGridSpacingX00
350
189
  3
Grid/MetaGridSpacingX01
350
18A
  3
Grid/MetaGridSpacingX02
350
18B
  3
Grid/MetaGridSpacingX03
350
18C
  3
Grid/MetaGridSpacingY00
350
18D
  3
Grid/MetaGridSpacingY01
350
18E
  3
Grid/MetaGridSpacingY02
350
18F
  3
Grid/MetaGridSpacingY03
350
190
  3
MultiPageSettings/Columns
350
191
  3
MultiPageSettings/GlueMarginsBottom
350
192
  3
MultiPageSettings/GlueMarginsLeft
350
193
  3
MultiPageSettings/GlueMarginsRight
350
194
  3
MultiPageSettings/GlueMarginsTop
350
195
  3
MultiPageSettings/PrintCropMarks
350
196
  3
MultiPageSettings/Rows
350
197
  3
PageSettings/OffsetX
350
198
  3
PageSettings/OffsetY
350
199
  3
PageSettings/PageOrientation
350
19A
  3
PageSettings/PaperHeight
350
19B
  3
PageSettings/PaperWidth
350
19C
  3
PageSettings/Scale
350
19D
  3
PageSettings/ShowPaperBorders
350
19E
  3
PageTagSettings/EnablePageTags
350
19F
  3
PageTagSettings/TagAlignment
350
1A0
  3
PageTagSettings/TagFont
350
1A1
  3
PageTagSettings/TagPosition
350
1A2
  3
QCADVersion
350
1A3
  3
UnitSettings/PaperUnit
350
1A4
  3
ViewportCenter
350
1A5
  3
ViewportHeight
350
1A6
  3
ViewportWidth
350
1A7
  0
XRECORD
  5
173
330
170
100
AcDbXrecord
280
1
1000
\U+0411\U+0435\U+043b\U+044b\U+0439
  0
XRECORD
  5
174
330
170
100
AcDbXrecord
280
1
1000
FullColor
  0
XRECORD
  5
175
330
170
100
AcDbXrecord
280
1
290
1
  0
XRECORD
  5
176
330
170
100
AcDbXrecord
280
1
290
1
  0
XRECORD
  5
177
330
170
100
AcDbXrecord
280
1
290
1
  0
XRECORD
  5
178
330
170
100
AcDbXrecord
280
1
290
1
  0
XRECORD
  5
179
330
170
100
AcDbXrecord
280
1
1000
auto
  0
XRECORD
  5
17A
330
170
100
AcDbXrecord
280
1
1000
auto
  0
XRECORD
  5
17B
330
170
100
AcDbXrecord
280
1
1000
auto
  0
XRECORD
  5
17C
330
170
100
AcDbXrecord
280
1
1000
auto
  0
XRECORD
  5
17D
330
170
100
AcDbXrecord
280
1
1000
auto
  0
XRECORD
  5
17E
330
170
100
AcDbXrecord
280
1
1000
auto
  0
XRECORD
  5
17F
330
170
100
AcDbXrecord
280
1
1000
auto
  0
XRECORD
  5
180
330
170
100
AcDbXrecord
280
1
1000
auto
  0
XRECORD
  5
181
330
170
100
AcDbXrecord
280
1
290
0
  0
XRECORD
  5
182
330
170
100
AcDbXrecord
280
1
290
0
  0
XRECORD
  5
183
330
170
100
AcDbXrecord
280
1
290
0
  0
XRECORD
  5
184
330
170
100
AcDbXrecord
280
1
290
0
  0
XRECORD
  5
185
330
170
100
AcDbXrecord
280
1
 90
65537
  0
XRECORD
  5
186
330
170
100
AcDbXrecord
280
1
 90
65537
  0
XRECORD
  5
187
330
170
100
AcDbXrecord
280
1
 90
65537
  0
XRECORD
  5
188
330
170
100
AcDbXrecord
280
1
 90
65537
  0
XRECORD
  5
189
330
170
100
AcDbXrecord
280
1
1000
auto
  0
XRECORD
  5
18A
330
170
100
AcDbXrecord
280
1
1000
auto
  0
XRECORD
  5
18B
330
170
100
AcDbXrecord
280
1
1000
auto
  0
XRECORD
  5
18C
330
170
100
AcDbXrecord
280
1
1000
auto
  0
XRECORD
  5
18D
330
170
100
AcDbXrecord
280
1
1000
auto
  0
XRECORD
  5
18E
330
170
100
AcDbXrecord
280
1
1000
auto
  0
XRECORD
  5
18F
330
170
100
AcDbXrecord
280
1
1000
auto
  0
XRECORD
  5
190
330
170
100
AcDbXrecord
280
1
1000
auto
  0
XRECORD
  5
191
330
170
100
AcDbXrecord
280
1
 90
1
  0
XRECORD
  5
192
330
170
100
AcDbXrecord
280
1
 40
10.0
  0
XRECORD
  5
193
330
170
100
AcDbXrecord
280
1
 40
10.0
  0
XRECORD
  5
194
330
170
100
AcDbXrecord
280
1
 40
10.0
  0
XRECORD
  5
195
330
170
100
AcDbXrecord
280
1
 40
10.0
  0
XRECORD
  5
196
330
170
100
AcDbXrecord
280
1
290
0
  0
XRECORD
  5
197
330
170
100
AcDbXrecord
280
1
 90
1
  0
XRECORD
  5
198
330
170
100
AcDbXrecord
280
1
 40
0.0
  0
XRECORD
  5
199
330
170
100
AcDbXrecord
280
1
 40
0.0
  0
XRECORD
  5
19A
330
170
100
AcDbXrecord
280
1
1000
Portrait
  0
XRECORD
  5
19B
330
170
100
AcDbXrecord
280
1
 40
297.0
  0
XRECORD
  5
19C
330
170
100
AcDbXrecord
280
1
 40
210.0
  0
XRECORD
  5
19D
330
170
100
AcDbXrecord
280
1
1000
1:1
  0
XRECORD
  5
19E
330
170
100
AcDbXrecord
280
1
290
1
  0
XRECORD
  5
19F
330
170
100
AcDbXrecord
280
1
290
0
  0
XRECORD
  5
1A0
330
170
100
AcDbXrecord
280
1
1000
Inside
  0
XRECORD
  5
1A1
330
170
100
AcDbXrecord
280
1
1000
Arial,10,-1,5,50,0,0,0,0,0
  0
XRECORD
  5
1A2
330
170
100
AcDbXrecord
280
1
1000
TopLeft
  0
XRECORD
  5
1A3
330
170
100
AcDbXrecord
280
1
1000
3.24.0
  0
XRECORD
  5
1A4
330
170
100
AcDbXrecord
280
1
 90
4
  0
XRECORD
  5
1A6
330
170
100
AcDbXrecord
280
1
 40
1058.0165927985674443
  0
XRECORD
  5
1A7
330
170
100
AcDbXrecord
280
1
 40
1587.961187067584433
  0
ENDSEC
  0
EOF
