999
dxflib 3.17.0.0
  0
SECTION
  2
HEADER
  9
$ACADVER
  1
AC1015
  9
$HANDSEED
  5
FFFF
  9
$DIMADEC
 70
0
  9
$DIMASZ
 40
2.5
  9
$DIMAUNIT
 70
0
  9
$DIMAZIN
 70
2
  9
$DIMDEC
 70
4
  9
$DIMDLI
 40
5.0
  9
$DIMDSEP
 70
46
  9
$DIMEXE
 40
1.25
  9
$DIMEXO
 40
0.625
  9
$DIMGAP
 40
0.625
  9
$DIMLUNIT
 70
2
  9
$DIMSCALE
 40
1.0
  9
$DIMTSZ
 40
0.0
  9
$DIMTXT
 40
2.5
  9
$DIMZIN
 70
8
  9
$DWGCODEPAGE
  3
ANSI_1252
  9
$INSUNITS
 70
4
  9
$LTSCALE
 40
1.0
  9
$MAXACTVP
 70
64
  9
$MEASUREMENT
 70
1
  9
$PDMODE
 70
0
  9
$PDSIZE
 40
0.0
  0
ENDSEC
  0
SECTION
  2
TABLES
  0
TABLE
  2
VPORT
  5
8
100
AcDbSymbolTable
 70
1
  0
VPORT
  5
30
100
AcDbSymbolTableRecord
100
AcDbViewportTableRecord
  2
*Active
 70
0
 10
0.0
 20
0.0
 11
1.0
 21
1.0
 12
286.3055555555554861
 22
148.5
 13
0.0
 23
0.0
 14
10.0
 24
10.0
 15
10.0
 25
10.0
 16
0.0
 26
0.0
 36
1.0
 17
0.0
 27
0.0
 37
0.0
 40
297.0
 41
1.92798353909465
 42
50.0
 43
0.0
 44
0.0
 50
0.0
 51
0.0
 71
0
 72
100
 73
1
 74
3
 75
1
 76
1
 77
0
 78
0
281
0
 65
1
110
0.0
120
0.0
130
0.0
111
1.0
121
0.0
131
0.0
112
0.0
122
1.0
132
0.0
 79
0
146
0.0
  0
ENDTAB
  0
TABLE
  2
LTYPE
  5
5
100
AcDbSymbolTable
 70
41
  0
LTYPE
  5
16
100
AcDbSymbolTableRecord
100
AcDbLinetypeTableRecord
  2
Continuous
 70
0
  3
Solid line
 72
65
 73
0
 40
0.0
  0
LTYPE
  5
31
100
AcDbSymbolTableRecord
100
AcDbLinetypeTableRecord
  2
HIDDEN
 70
0
  3
Hidden __ __ __ __ __ __ __ __ __ __ __ __ __ __
 72
65
 73
2
 40
9.5249999999999986
 49
6.3499999999999996
 74
0
 49
-3.1749999999999998
 74
0
  0
LTYPE
  5
32
100
AcDbSymbolTableRecord
100
AcDbLinetypeTableRecord
  2
DASHED2
 70
0
  3
Dashed (.5x) _ _ _ _ _ _ _ _ _ _ _ _ _ _ _ _ _ 
 72
65
 73
2
 40
9.5249999999999986
 49
6.3499999999999996
 74
0
 49
-3.1749999999999998
 74
0
  0
LTYPE
  5
33
100
AcDbSymbolTableRecord
100
AcDbLinetypeTableRecord
  2
ACAD_ISO03W100
 70
0
  3
ISO dash space __    __    __    __    __    __
 72
65
 73
2
 40
30.0
 49
12.0
 74
0
 49
-18.0
 74
0
  0
LTYPE
  5
34
100
AcDbSymbolTableRecord
100
AcDbLinetypeTableRecord
  2
CENTERX2
 70
0
  3
Center (2x) ________  __  ________  __  _____
 72
65
 73
4
 40
101.6000000000000085
 49
63.5
 74
0
 49
-12.6999999999999993
 74
0
 49
12.6999999999999993
 74
0
 49
-12.6999999999999993
 74
0
  0
LTYPE
  5
35
100
AcDbSymbolTableRecord
100
AcDbLinetypeTableRecord
  2
DIVIDEX2
 70
0
  3
Divide (2x) ________  .  .  ________  .  .  _
 72
65
 73
6
 40
63.5
 49
25.3999999999999986
 74
0
 49
-12.6499999999999986
 74
0
 49
0.1
 74
0
 49
-12.5999999999999979
 74
0
 49
0.1
 74
0
 49
-12.6499999999999986
 74
0
  0
LTYPE
  5
36
100
AcDbSymbolTableRecord
100
AcDbLinetypeTableRecord
  2
ACAD_ISO11W100
 70
0
  3
ISO double-dash dot __ __ . __ __ . __ __ . __ _
 72
65
 73
6
 40
33.0
 49
12.0
 74
0
 49
-3.0
 74
0
 49
12.0
 74
0
 49
-2.9500000000000002
 74
0
 49
0.1
 74
0
 49
-2.9500000000000002
 74
0
  0
LTYPE
  5
15
100
AcDbSymbolTableRecord
100
AcDbLinetypeTableRecord
  2
BYLAYER
 70
0
  3

 72
65
 73
0
 40
0.0
  0
LTYPE
  5
37
100
AcDbSymbolTableRecord
100
AcDbLinetypeTableRecord
  2
PHANTOM
 70
0
  3
Phantom ______  __  __  ______  __  __  ______ 
 72
65
 73
6
 40
63.5000000000000071
 49
31.75
 74
0
 49
-6.3499999999999996
 74
0
 49
6.3499999999999996
 74
0
 49
-6.3499999999999996
 74
0
 49
6.3499999999999996
 74
0
 49
-6.3499999999999996
 74
0
  0
LTYPE
  5
38
100
AcDbSymbolTableRecord
100
AcDbLinetypeTableRecord
  2
BORDER2
 70
0
  3
Border (.5x) __.__.__.__.__.__.__.__.__.__.__.
 72
65
 73
6
 40
22.2250000000000014
 49
6.3499999999999996
 74
0
 49
-3.1749999999999998
 74
0
 49
6.3499999999999996
 74
0
 49
-3.125
 74
0
 49
0.1
 74
0
 49
-3.125
 74
0
  0
LTYPE
  5
39
100
AcDbSymbolTableRecord
100
AcDbLinetypeTableRecord
  2
BORDERX2
 70
0
  3
Border (2x) ____  ____  .  ____  ____  .  ___
 72
65
 73
6
 40
88.8999999999999773
 49
25.3999999999999986
 74
0
 49
-12.6999999999999993
 74
0
 49
25.3999999999999986
 74
0
 49
-12.6499999999999986
 74
0
 49
0.1
 74
0
 49
-12.6499999999999986
 74
0
  0
LTYPE
  5
3A
100
AcDbSymbolTableRecord
100
AcDbLinetypeTableRecord
  2
PHANTOM2
 70
0
  3
Phantom (.5x) ___ _ _ ___ _ _ ___ _ _ ___ _ _
 72
65
 73
6
 40
31.7500000000000036
 49
15.875
 74
0
 49
-3.1749999999999998
 74
0
 49
3.1749999999999998
 74
0
 49
-3.1749999999999998
 74
0
 49
3.1749999999999998
 74
0
 49
-3.1749999999999998
 74
0
  0
LTYPE
  5
3B
100
AcDbSymbolTableRecord
100
AcDbLinetypeTableRecord
  2
ACAD_ISO12W100
 70
0
  3
ISO dash double-dot __ . . __ . . __ . . __ . . 
 72
65
 73
6
 40
21.0
 49
12.0
 74
0
 49
-2.9500000000000002
 74
0
 49
0.1
 74
0
 49
-2.9000000000000004
 74
0
 49
0.1
 74
0
 49
-2.9500000000000002
 74
0
  0
LTYPE
  5
3C
100
AcDbSymbolTableRecord
100
AcDbLinetypeTableRecord
  2
CENTER
 70
0
  3
Center ____ _ ____ _ ____ _ ____ _ ____ _ ____
 72
65
 73
4
 40
50.8000000000000043
 49
31.75
 74
0
 49
-6.3499999999999996
 74
0
 49
6.3499999999999996
 74
0
 49
-6.3499999999999996
 74
0
  0
LTYPE
  5
3D
100
AcDbSymbolTableRecord
100
AcDbLinetypeTableRecord
  2
PHANTOMX2
 70
0
  3
Phantom (2x) ____________    ____    ____   _
 72
65
 73
6
 40
127.0000000000000142
 49
63.5
 74
0
 49
-12.6999999999999993
 74
0
 49
12.6999999999999993
 74
0
 49
-12.6999999999999993
 74
0
 49
12.6999999999999993
 74
0
 49
-12.6999999999999993
 74
0
  0
LTYPE
  5
3E
100
AcDbSymbolTableRecord
100
AcDbLinetypeTableRecord
  2
DOT
 70
0
  3
Dot . . . . . . . . . . . . . . . . . . . . . . . .
 72
65
 73
2
 40
6.3499999999999996
 49
0.1
 74
0
 49
-6.25
 74
0
  0
LTYPE
  5
3F
100
AcDbSymbolTableRecord
100
AcDbLinetypeTableRecord
  2
DASHEDX2
 70
0
  3
Dashed (2x) ____  ____  ____  ____  ____  ___
 72
65
 73
2
 40
38.0999999999999943
 49
25.3999999999999986
 74
0
 49
-12.6999999999999993
 74
0
  0
LTYPE
  5
14
100
AcDbSymbolTableRecord
100
AcDbLinetypeTableRecord
  2
BYBLOCK
 70
0
  3

 72
65
 73
0
 40
0.0
  0
LTYPE
  5
40
100
AcDbSymbolTableRecord
100
AcDbLinetypeTableRecord
  2
DASHDOT2
 70
0
  3
Dash dot (.5x) _._._._._._._._._._._._._._._.
 72
65
 73
4
 40
12.6999999999999993
 49
6.3499999999999996
 74
0
 49
-3.125
 74
0
 49
0.1
 74
0
 49
-3.125
 74
0
  0
LTYPE
  5
41
100
AcDbSymbolTableRecord
100
AcDbLinetypeTableRecord
  2
DIVIDE2
 70
0
  3
Divide (.5x) __..__..__..__..__..__..__..__.._
 72
65
 73
6
 40
15.8749999999999982
 49
6.3499999999999996
 74
0
 49
-3.125
 74
0
 49
0.1
 74
0
 49
-3.0750000000000002
 74
0
 49
0.1
 74
0
 49
-3.125
 74
0
  0
LTYPE
  5
42
100
AcDbSymbolTableRecord
100
AcDbLinetypeTableRecord
  2
ACAD_ISO15W100
 70
0
  3
ISO double-dash triple-dot __ __ . . . __ __ . .
 72
65
 73
10
 40
39.0000000000000071
 49
12.0
 74
0
 49
-3.0
 74
0
 49
12.0
 74
0
 49
-2.9500000000000002
 74
0
 49
0.1
 74
0
 49
-2.9000000000000004
 74
0
 49
0.1
 74
0
 49
-2.9000000000000004
 74
0
 49
0.1
 74
0
 49
-2.9500000000000002
 74
0
  0
LTYPE
  5
43
100
AcDbSymbolTableRecord
100
AcDbLinetypeTableRecord
  2
ACAD_ISO05W100
 70
0
  3
ISO long-dash double-dot ____ .. ____ .. ____ . 
 72
65
 73
6
 40
33.0000000000000071
 49
24.0
 74
0
 49
-2.9500000000000002
 74
0
 49
0.1
 74
0
 49
-2.9000000000000004
 74
0
 49
0.1
 74
0
 49
-2.9500000000000002
 74
0
  0
LTYPE
  5
44
100
AcDbSymbolTableRecord
100
AcDbLinetypeTableRecord
  2
CENTER2
 70
0
  3
Center (.5x) ___ _ ___ _ ___ _ ___ _ ___ _ ___
 72
65
 73
4
 40
28.5750000000000028
 49
19.0500000000000007
 74
0
 49
-3.1749999999999998
 74
0
 49
3.1749999999999998
 74
0
 49
-3.1749999999999998
 74
0
  0
LTYPE
  5
45
100
AcDbSymbolTableRecord
100
AcDbLinetypeTableRecord
  2
ACAD_ISO04W100
 70
0
  3
ISO long-dash dot ____ . ____ . ____ . ____ . _
 72
65
 73
4
 40
30.0
 49
24.0
 74
0
 49
-2.9500000000000002
 74
0
 49
0.1
 74
0
 49
-2.9500000000000002
 74
0
  0
LTYPE
  5
46
100
AcDbSymbolTableRecord
100
AcDbLinetypeTableRecord
  2
HIDDEN2
 70
0
  3
Hidden (.5x) _ _ _ _ _ _ _ _ _ _ _ _ _ _ _ _ _ 
 72
65
 73
2
 40
4.7624999999999993
 49
3.1749999999999998
 74
0
 49
-1.5874999999999999
 74
0
  0
LTYPE
  5
47
100
AcDbSymbolTableRecord
100
AcDbLinetypeTableRecord
  2
ACAD_ISO08W100
 70
0
  3
ISO long-dash short-dash ____ __ ____ __ ____ _
 72
65
 73
4
 40
36.0
 49
24.0
 74
0
 49
-3.0
 74
0
 49
6.0
 74
0
 49
-3.0
 74
0
  0
LTYPE
  5
48
100
AcDbSymbolTableRecord
100
AcDbLinetypeTableRecord
  2
ACAD_ISO06W100
 70
0
  3
ISO long-dash triple-dot ____ ... ____ ... ____
 72
65
 73
8
 40
36.0000000000000071
 49
24.0
 74
0
 49
-2.9500000000000002
 74
0
 49
0.1
 74
0
 49
-2.9000000000000004
 74
0
 49
0.1
 74
0
 49
-2.9000000000000004
 74
0
 49
0.1
 74
0
 49
-2.9500000000000002
 74
0
  0
LTYPE
  5
49
100
AcDbSymbolTableRecord
100
AcDbLinetypeTableRecord
  2
ACAD_ISO14W100
 70
0
  3
ISO dash triple-dot __ . . . __ . . . __ . . . _
 72
65
 73
8
 40
24.0000000000000036
 49
12.0
 74
0
 49
-2.9500000000000002
 74
0
 49
0.1
 74
0
 49
-2.9000000000000004
 74
0
 49
0.1
 74
0
 49
-2.9000000000000004
 74
0
 49
0.1
 74
0
 49
-2.9500000000000002
 74
0
  0
LTYPE
  5
4A
100
AcDbSymbolTableRecord
100
AcDbLinetypeTableRecord
  2
ACAD_ISO09W100
 70
0
  3
ISO long-dash double-short-dash ____ __ __ ____
 72
65
 73
6
 40
45.0
 49
24.0
 74
0
 49
-3.0
 74
0
 49
6.0
 74
0
 49
-3.0
 74
0
 49
6.0
 74
0
 49
-3.0
 74
0
  0
LTYPE
  5
4B
100
AcDbSymbolTableRecord
100
AcDbLinetypeTableRecord
  2
ACAD_ISO13W100
 70
0
  3
ISO double-dash double-dot __ __ . . __ __ . . _
 72
65
 73
8
 40
36.0000000000000071
 49
12.0
 74
0
 49
-3.0
 74
0
 49
12.0
 74
0
 49
-2.9500000000000002
 74
0
 49
0.1
 74
0
 49
-2.9000000000000004
 74
0
 49
0.1
 74
0
 49
-2.9500000000000002
 74
0
  0
LTYPE
  5
4C
100
AcDbSymbolTableRecord
100
AcDbLinetypeTableRecord
  2
DASHDOTX2
 70
0
  3
Dash dot (2x) ____  .  ____  .  ____  .  ___
 72
65
 73
4
 40
50.7999999999999972
 49
25.3999999999999986
 74
0
 49
-12.6499999999999986
 74
0
 49
0.1
 74
0
 49
-12.6499999999999986
 74
0
  0
LTYPE
  5
4D
100
AcDbSymbolTableRecord
100
AcDbLinetypeTableRecord
  2
DIVIDE
 70
0
  3
Divide ____ . . ____ . . ____ . . ____ . . ____
 72
65
 73
6
 40
31.7500000000000036
 49
12.6999999999999993
 74
0
 49
-6.2999999999999998
 74
0
 49
0.1
 74
0
 49
-6.25
 74
0
 49
0.1
 74
0
 49
-6.2999999999999998
 74
0
  0
LTYPE
  5
4E
100
AcDbSymbolTableRecord
100
AcDbLinetypeTableRecord
  2
DOTX2
 70
0
  3
Dot (2x) .  .  .  .  .  .  .  .  .  .  .  .  .  .
 72
65
 73
2
 40
12.6999999999999993
 49
0.1
 74
0
 49
-12.5999999999999996
 74
0
  0
LTYPE
  5
4F
100
AcDbSymbolTableRecord
100
AcDbLinetypeTableRecord
  2
ACAD_ISO02W100
 70
0
  3
ISO dash __ __ __ __ __ __ __ __ __ __ __ __ __
 72
65
 73
2
 40
15.0
 49
12.0
 74
0
 49
-3.0
 74
0
  0
LTYPE
  5
50
100
AcDbSymbolTableRecord
100
AcDbLinetypeTableRecord
  2
DASHDOT
 70
0
  3
Dash dot __ . __ . __ . __ . __ . __ . __ . __
 72
65
 73
4
 40
25.4000000000000021
 49
12.6999999999999993
 74
0
 49
-6.2999999999999998
 74
0
 49
0.1
 74
0
 49
-6.2999999999999998
 74
0
  0
LTYPE
  5
51
100
AcDbSymbolTableRecord
100
AcDbLinetypeTableRecord
  2
ACAD_ISO10W100
 70
0
  3
ISO dash dot __ . __ . __ . __ . __ . __ . __ . 
 72
65
 73
4
 40
18.0
 49
12.0
 74
0
 49
-2.9500000000000002
 74
0
 49
0.1
 74
0
 49
-2.9500000000000002
 74
0
  0
LTYPE
  5
52
100
AcDbSymbolTableRecord
100
AcDbLinetypeTableRecord
  2
DASHED
 70
0
  3
Dashed __ __ __ __ __ __ __ __ __ __ __ __ __ _
 72
65
 73
2
 40
19.0499999999999972
 49
12.6999999999999993
 74
0
 49
-6.3499999999999996
 74
0
  0
LTYPE
  5
53
100
AcDbSymbolTableRecord
100
AcDbLinetypeTableRecord
  2
BORDER
 70
0
  3
Border __ __ . __ __ . __ __ . __ __ . __ __ .
 72
65
 73
6
 40
44.4499999999999957
 49
12.6999999999999993
 74
0
 49
-6.3499999999999996
 74
0
 49
12.6999999999999993
 74
0
 49
-6.2999999999999998
 74
0
 49
0.1
 74
0
 49
-6.2999999999999998
 74
0
  0
LTYPE
  5
54
100
AcDbSymbolTableRecord
100
AcDbLinetypeTableRecord
  2
HIDDENX2
 70
0
  3
Hidden (2x) ____ ____ ____ ____ ____ ____ ____ 
 72
65
 73
2
 40
19.0499999999999972
 49
12.6999999999999993
 74
0
 49
-6.3499999999999996
 74
0
  0
LTYPE
  5
55
100
AcDbSymbolTableRecord
100
AcDbLinetypeTableRecord
  2
ACAD_ISO07W100
 70
0
  3
ISO dot . . . . . . . . . . . . . . . . . . . . 
 72
65
 73
2
 40
3.0
 49
0.1
 74
0
 49
-2.8999999999999999
 74
0
  0
LTYPE
  5
56
100
AcDbSymbolTableRecord
100
AcDbLinetypeTableRecord
  2
DOT2
 70
0
  3
Dot (.5x) ........................................
 72
65
 73
2
 40
3.1749999999999998
 49
0.1
 74
0
 49
-3.0749999999999997
 74
0
  0
ENDTAB
  0
TABLE
  2
LAYER
  5
2
100
AcDbSymbolTable
 70
2
  0
LAYER
  5
57
100
AcDbSymbolTableRecord
100
AcDbLayerTableRecord
  2
Layer 1
 70
0
 62
7
420
16777215
  6
Continuous
370
-3
390
F
  0
LAYER
  5
10
100
AcDbSymbolTableRecord
100
AcDbLayerTableRecord
  2
0
 70
0
 62
7
420
0
  6
Continuous
370
13
390
F
  0
ENDTAB
  0
TABLE
  2
STYLE
  5
3
100
AcDbSymbolTable
 70
1
  0
STYLE
  5
58
100
AcDbSymbolTableRecord
100
AcDbTextStyleTableRecord
  2
Standard
 70
0
 40
0.0
 41
1.0
 50
0.0
 71
0
 42
2.5
  3

  4

1001
ACAD
1000
txt
1071
0
  0
ENDTAB
  0
TABLE
  2
VIEW
  5
6
100
AcDbSymbolTable
 70
0
  0
ENDTAB
  0
TABLE
  2
UCS
  5
7
100
AcDbSymbolTable
 70
0
  0
ENDTAB
  0
TABLE
  2
APPID
  5
9
100
AcDbSymbolTable
 70
1
  0
APPID
  5
12
100
AcDbSymbolTableRecord
100
AcDbRegAppTableRecord
  2
ACAD
 70
0
  0
APPID
  5
59
100
AcDbSymbolTableRecord
100
AcDbRegAppTableRecord
  2
QCAD
 70
0
  0
ENDTAB
  0
TABLE
  2
DIMSTYLE
  5
A
100
AcDbSymbolTable
 70
1
100
AcDbDimStyleTable
 71
0
  0
DIMSTYLE
105
27
100
AcDbSymbolTableRecord
100
AcDbDimStyleTableRecord
  2
Standard
 41
2.5
 42
0.625
 43
3.75
 44
1.25
 70
0
 73
0
 74
0
 77
1
 78
8
140
2.5
141
2.5
143
0.03937007874016
147
0.625
171
3
172
1
271
2
272
2
274
3
278
44
283
0
284
8
340
58
  0
ENDTAB
  0
TABLE
  2
BLOCK_RECORD
  5
1
100
AcDbSymbolTable
 70
1
  0
BLOCK_RECORD
  5
1F
100
AcDbSymbolTableRecord
100
AcDbBlockTableRecord
  2
*Model_Space
340
22
  0
BLOCK_RECORD
  5
1B
100
AcDbSymbolTableRecord
100
AcDbBlockTableRecord
  2
*Paper_Space
340
1E
  0
BLOCK_RECORD
  5
23
100
AcDbSymbolTableRecord
100
AcDbBlockTableRecord
  2
*Paper_Space0
340
26
  0
BLOCK_RECORD
  5
5A
100
AcDbSymbolTableRecord
100
AcDbBlockTableRecord
  2
\U+0431\U+043b\U+043e\U+043a 17
340
0
  0
BLOCK_RECORD
  5
5B
100
AcDbSymbolTableRecord
100
AcDbBlockTableRecord
  2
\U+0431\U+043b\U+043e\U+043a 2
340
0
  0
BLOCK_RECORD
  5
5C
100
AcDbSymbolTableRecord
100
AcDbBlockTableRecord
  2
\U+0431\U+043b\U+043e\U+043a 11
340
0
  0
BLOCK_RECORD
  5
5D
100
AcDbSymbolTableRecord
100
AcDbBlockTableRecord
  2
\U+0431\U+043b\U+043e\U+043a 3
340
0
  0
BLOCK_RECORD
  5
5E
100
AcDbSymbolTableRecord
100
AcDbBlockTableRecord
  2
\U+0431\U+043b\U+043e\U+043a 5
340
0
  0
BLOCK_RECORD
  5
5F
100
AcDbSymbolTableRecord
100
AcDbBlockTableRecord
  2
\U+0431\U+043b\U+043e\U+043a 4
340
0
  0
BLOCK_RECORD
  5
60
100
AcDbSymbolTableRecord
100
AcDbBlockTableRecord
  2
\U+0431\U+043b\U+043e\U+043a 16
340
0
  0
BLOCK_RECORD
  5
61
100
AcDbSymbolTableRecord
100
AcDbBlockTableRecord
  2
\U+0431\U+043b\U+043e\U+043a 10
340
0
  0
BLOCK_RECORD
  5
62
100
AcDbSymbolTableRecord
100
AcDbBlockTableRecord
  2
\U+0431\U+043b\U+043e\U+043a 6
340
0
  0
BLOCK_RECORD
  5
63
100
AcDbSymbolTableRecord
100
AcDbBlockTableRecord
  2
\U+0431\U+043b\U+043e\U+043a 15
340
0
  0
BLOCK_RECORD
  5
64
100
AcDbSymbolTableRecord
100
AcDbBlockTableRecord
  2
\U+0431\U+043b\U+043e\U+043a 13
340
0
  0
BLOCK_RECORD
  5
65
100
AcDbSymbolTableRecord
100
AcDbBlockTableRecord
  2
\U+0431\U+043b\U+043e\U+043a 12
340
0
  0
BLOCK_RECORD
  5
66
100
AcDbSymbolTableRecord
100
AcDbBlockTableRecord
  2
\U+0431\U+043b\U+043e\U+043a 14
340
0
  0
BLOCK_RECORD
  5
67
100
AcDbSymbolTableRecord
100
AcDbBlockTableRecord
  2
\U+0431\U+043b\U+043e\U+043a 7
340
0
  0
BLOCK_RECORD
  5
68
100
AcDbSymbolTableRecord
100
AcDbBlockTableRecord
  2
\U+0431\U+043b\U+043e\U+043a 1
340
0
  0
BLOCK_RECORD
  5
69
100
AcDbSymbolTableRecord
100
AcDbBlockTableRecord
  2
\U+0431\U+043b\U+043e\U+043a 9
340
0
  0
BLOCK_RECORD
  5
6A
100
AcDbSymbolTableRecord
100
AcDbBlockTableRecord
  2
\U+0431\U+043b\U+043e\U+043a 8
340
0
  0
ENDTAB
  0
ENDSEC
  0
SECTION
  2
BLOCKS
  0
BLOCK
  5
20
100
AcDbEntity
  8
0
100
AcDbBlockBegin
  2
*Model_Space
 70
0
 10
0.0
 20
0.0
 30
0.0
  3
*Model_Space
  1

  0
ENDBLK
  5
21
100
AcDbEntity
  8
0
100
AcDbBlockEnd
  0
BLOCK
  5
1C
100
AcDbEntity
 67
1
  8
0
100
AcDbBlockBegin
  2
*Paper_Space
 70
0
 10
0.0
 20
0.0
 30
0.0
  3
*Paper_Space
  1

  0
ENDBLK
  5
1D
100
AcDbEntity
 67
1
  8
0
100
AcDbBlockEnd
  0
BLOCK
  5
24
100
AcDbEntity
  8
0
100
AcDbBlockBegin
  2
*Paper_Space0
 70
0
 10
0.0
 20
0.0
 30
0.0
  3
*Paper_Space0
  1

  0
ENDBLK
  5
25
100
AcDbEntity
  8
0
100
AcDbBlockEnd
  0
BLOCK
  5
6B
100
AcDbEntity
  8
0
100
AcDbBlockBegin
  2
\U+0431\U+043b\U+043e\U+043a 17
 70
0
 10
0.0
 20
0.0
 30
0.0
  3
\U+0431\U+043b\U+043e\U+043a 17
  1

  0
SPLINE
  5
6C
100
AcDbEntity
  8
Layer 1
 62
250
420
5526612
370
-1
 48
1.0
  6
BYLAYER
100
AcDbSpline
 70
8
 71
3
 72
60
 73
56
 74
0
 40
0.0
 40
0.0
 40
0.0
 40
0.0
 40
0.0666666666666667
 40
0.0666666666666667
 40
0.0666666666666667
 40
0.0666666666666667
 40
0.1333333333333333
 40
0.1333333333333333
 40
0.1333333333333333
 40
0.1333333333333333
 40
0.2
 40
0.2
 40
0.2
 40
0.2
 40
0.2666666666666667
 40
0.2666666666666667
 40
0.2666666666666667
 40
0.2666666666666667
 40
0.3333333333333333
 40
0.3333333333333333
 40
0.3333333333333333
 40
0.3333333333333333
 40
0.4
 40
0.4
 40
0.4
 40
0.4
 40
0.4666666666666667
 40
0.4666666666666667
 40
0.4666666666666667
 40
0.4666666666666667
 40
0.5333333333333333
 40
0.5333333333333333
 40
0.5333333333333333
 40
0.5333333333333333
 40
0.6
 40
0.6
 40
0.6
 40
0.6
 40
0.6666666666666666
 40
0.6666666666666666
 40
0.6666666666666666
 40
0.6666666666666666
 40
0.7333333333333333
 40
0.7333333333333333
 40
0.7333333333333333
 40
0.7333333333333333
 40
0.8
 40
0.8
 40
0.8
 40
0.8
 40
0.8666666666666667
 40
0.8666666666666667
 40
0.8666666666666667
 40
0.8666666666666667
 40
1.0
 40
1.0
 40
1.0
 40
1.0
 10
-2.0309500000000025
 20
7.583000000000002
 30
0.0
 10
-1.895150000000001
 20
7.7188000000000123
 30
0.0
 10
-1.6259500000000049
 20
7.7188000000000123
 30
0.0
 10
-1.3543500000000019
 20
7.7188000000000123
 30
0.0
 10
-1.3543500000000019
 20
7.7188000000000123
 30
0.0
 10
-1.3543500000000019
 20
7.7188000000000123
 30
0.0
 10
-1.4901500000000034
 20
7.9893999999999998
 30
0.0
 10
-1.4901500000000034
 20
7.9893999999999998
 30
0.0
 10
-1.4901500000000034
 20
7.9893999999999998
 30
0.0
 10
-2.164950000000001
 20
9.2079000000000022
 30
0.0
 10
-2.3015499999999989
 20
10.2930000000000099
 30
0.0
 10
-2.0309500000000025
 20
11.5104000000000006
 30
0.0
 10
-2.0309500000000025
 20
11.5104000000000006
 30
0.0
 10
-1.895150000000001
 20
12.3239000000000054
 30
0.0
 10
-1.3543500000000019
 20
13.1357000000000035
 30
0.0
 10
-0.6766499999999986
 20
13.407
 30
0.0
 10
-0.6766499999999986
 20
13.407
 30
0.0
 10
-0.6766499999999986
 20
12.8650999999999982
 30
0.0
 10
-0.1354500000000058
 20
12.4587000000000003
 30
0.0
 10
0.2716500000000011
 20
12.0516000000000112
 30
0.0
 10
0.2716500000000011
 20
12.0516000000000112
 30
0.0
 10
0.9493499999999955
 20
11.5104000000000006
 30
0.0
 10
0.9493499999999955
 20
10.426700000000011
 30
0.0
 10
0.4070499999999999
 20
10.021400000000007
 30
0.0
 10
0.4070499999999999
 20
10.021400000000007
 30
0.0
 10
0.5429499999999976
 20
10.426700000000011
 30
0.0
 10
0.1361499999999971
 20
10.9696000000000105
 30
0.0
 10
-0.2695500000000006
 20
10.9696000000000105
 30
0.0
 10
-0.2695500000000006
 20
10.9696000000000105
 30
0.0
 10
-0.9471499999999988
 20
10.9696000000000105
 30
0.0
 10
-1.2185500000000005
 20
10.2930000000000099
 30
0.0
 10
-1.0830500000000054
 20
9.885900000000003
 30
0.0
 10
-1.0830500000000054
 20
9.885900000000003
 30
0.0
 10
-0.8113500000000062
 20
8.9372999999999969
 30
0.0
 10
0.5429499999999976
 20
8.2606000000000002
 30
0.0
 10
1.4890500000000007
 20
9.0731000000000073
 30
0.0
 10
1.4890500000000007
 20
9.0731000000000073
 30
0.0
 10
2.7083499999999994
 20
10.1571999999999996
 30
0.0
 10
2.5724499999999928
 20
11.7810000000000059
 30
0.0
 10
1.4890500000000007
 20
13.1357000000000035
 30
0.0
 10
1.4890500000000007
 20
13.1357000000000035
 30
0.0
 10
0.6780499999999989
 20
14.2194000000000109
 30
0.0
 10
-0.6766499999999986
 20
15.031800000000004
 30
0.0
 10
-0.9472500000000039
 20
16.1148999999999987
 30
0.0
 10
-0.9472500000000039
 20
16.1148999999999987
 30
0.0
 10
-3.5193500000000011
 20
13.407
 30
0.0
 10
-3.3845500000000062
 20
11.1044000000000054
 30
0.0
 10
-2.5728500000000043
 20
8.5312000000000054
 30
0.0
 10
-2.5728500000000043
 20
8.5312000000000054
 30
0.0
 10
-2.4369500000000066
 20
8.2606999999999964
 30
0.0
 10
-2.3015499999999989
 20
7.9893999999999998
 30
0.0
 10
-2.0309500000000025
 20
7.583000000000002
 30
0.0
 10
-2.0309500000000025
 20
7.583000000000002
 30
0.0
 10
-2.0309500000000025
 20
7.583000000000002
 30
0.0
 10
-2.0309500000000025
 20
7.583000000000002
 30
0.0
 10
-2.0309500000000025
 20
7.583000000000002
 30
0.0
  0
SPLINE
  5
6D
100
AcDbEntity
  8
Layer 1
 62
250
420
5526612
370
-1
 48
1.0
  6
BYLAYER
100
AcDbSpline
 70
8
 71
3
 72
64
 73
60
 74
0
 40
0.0
 40
0.0
 40
0.0
 40
0.0
 40
0.0625
 40
0.0625
 40
0.0625
 40
0.0625
 40
0.125
 40
0.125
 40
0.125
 40
0.125
 40
0.1875
 40
0.1875
 40
0.1875
 40
0.1875
 40
0.25
 40
0.25
 40
0.25
 40
0.25
 40
0.3125
 40
0.3125
 40
0.3125
 40
0.3125
 40
0.375
 40
0.375
 40
0.375
 40
0.375
 40
0.4375
 40
0.4375
 40
0.4375
 40
0.4375
 40
0.5
 40
0.5
 40
0.5
 40
0.5
 40
0.5625
 40
0.5625
 40
0.5625
 40
0.5625
 40
0.625
 40
0.625
 40
0.625
 40
0.625
 40
0.6875
 40
0.6875
 40
0.6875
 40
0.6875
 40
0.75
 40
0.75
 40
0.75
 40
0.75
 40
0.8125
 40
0.8125
 40
0.8125
 40
0.8125
 40
0.875
 40
0.875
 40
0.875
 40
0.875
 40
1.0
 40
1.0
 40
1.0
 40
1.0
 10
7.8550499999999968
 20
5.281400000000005
 30
0.0
 10
9.3426499999999901
 20
5.4173000000000116
 30
0.0
 10
10.1578500000000016
 20
6.6356999999999999
 30
0.0
 10
10.4280500000000043
 20
8.2606000000000002
 30
0.0
 10
10.4280500000000043
 20
8.2606000000000002
 30
0.0
 10
10.5639499999999931
 20
9.4801999999999964
 30
0.0
 10
10.1578500000000016
 20
11.1044000000000054
 30
0.0
 10
10.6969500000000028
 20
11.9161000000000072
 30
0.0
 10
10.6969500000000028
 20
11.9161000000000072
 30
0.0
 10
7.0418499999999984
 20
11.9161000000000072
 30
0.0
 10
5.5527499999999996
 20
10.2930000000000099
 30
0.0
 10
4.3338499999999947
 20
7.853500000000011
 30
0.0
 10
4.3338499999999947
 20
7.853500000000011
 30
0.0
 10
4.0622500000000006
 20
7.448200000000007
 30
0.0
 10
4.0622500000000006
 20
7.1769000000000105
 30
0.0
 10
3.9267499999999966
 20
6.9053000000000075
 30
0.0
 10
3.9267499999999966
 20
6.9053000000000075
 30
0.0
 10
4.1981499999999983
 20
6.7716000000000065
 30
0.0
 10
4.3338499999999947
 20
6.6356999999999999
 30
0.0
 10
4.6051500000000001
 20
6.364099999999997
 30
0.0
 10
4.6051500000000001
 20
6.364099999999997
 30
0.0
 10
4.6051500000000001
 20
6.364099999999997
 30
0.0
 10
4.6052499999999963
 20
6.6356999999999999
 30
0.0
 10
4.6052499999999963
 20
6.6356999999999999
 30
0.0
 10
4.6052499999999963
 20
6.6356999999999999
 30
0.0
 10
5.0116499999999942
 20
8.1248000000000076
 30
0.0
 10
5.6885500000000011
 20
8.9372999999999969
 30
0.0
 10
6.7701499999999992
 20
9.4801999999999964
 30
0.0
 10
6.7701499999999992
 20
9.4801999999999964
 30
0.0
 10
7.4500499999999992
 20
10.021400000000007
 30
0.0
 10
8.3964499999999997
 20
10.1571999999999996
 30
0.0
 10
9.0737499999999915
 20
10.021400000000007
 30
0.0
 10
9.0737499999999915
 20
10.021400000000007
 30
0.0
 10
8.6678499999999925
 20
9.4801999999999964
 30
0.0
 10
8.6677499999999963
 20
8.9372999999999969
 30
0.0
 10
8.8035499999999889
 20
8.2606000000000002
 30
0.0
 10
8.8035499999999889
 20
8.2606000000000002
 30
0.0
 10
8.8036500000000029
 20
7.448200000000007
 30
0.0
 10
8.1248499999999968
 20
6.7716000000000065
 30
0.0
 10
7.3141499999999926
 20
6.7716000000000065
 30
0.0
 10
7.3141499999999926
 20
6.7716000000000065
 30
0.0
 10
7.8550499999999968
 20
6.9053000000000075
 30
0.0
 10
7.8549500000000005
 20
7.583000000000002
 30
0.0
 10
7.583650000000004
 20
7.853500000000011
 30
0.0
 10
7.583650000000004
 20
7.853500000000011
 30
0.0
 10
7.1773500000000023
 20
8.3965000000000067
 30
0.0
 10
6.4999499999999966
 20
8.1248000000000076
 30
0.0
 10
6.2303499999999978
 20
7.7188000000000123
 30
0.0
 10
6.2303499999999978
 20
7.7188000000000123
 30
0.0
 10
5.8244499999999988
 20
6.7716000000000065
 30
0.0
 10
6.2303499999999978
 20
5.4171999999999976
 30
0.0
 10
7.449950000000003
 20
5.281400000000005
 30
0.0
 10
7.449950000000003
 20
5.281400000000005
 30
0.0
 10
7.583650000000004
 20
5.281400000000005
 30
0.0
 10
7.7194499999999966
 20
5.281400000000005
 30
0.0
 10
7.8549500000000005
 20
5.281400000000005
 30
0.0
 10
7.8549500000000005
 20
5.281400000000005
 30
0.0
 10
7.8549500000000005
 20
5.281400000000005
 30
0.0
 10
7.8550499999999968
 20
5.281400000000005
 30
0.0
 10
7.8550499999999968
 20
5.281400000000005
 30
0.0
  0
SPLINE
  5
6E
100
AcDbEntity
  8
Layer 1
 62
250
420
5526612
370
-1
 48
1.0
  6
BYLAYER
100
AcDbSpline
 70
8
 71
3
 72
60
 73
56
 74
0
 40
0.0
 40
0.0
 40
0.0
 40
0.0
 40
0.0666666666666667
 40
0.0666666666666667
 40
0.0666666666666667
 40
0.0666666666666667
 40
0.1333333333333333
 40
0.1333333333333333
 40
0.1333333333333333
 40
0.1333333333333333
 40
0.2
 40
0.2
 40
0.2
 40
0.2
 40
0.2666666666666667
 40
0.2666666666666667
 40
0.2666666666666667
 40
0.2666666666666667
 40
0.3333333333333333
 40
0.3333333333333333
 40
0.3333333333333333
 40
0.3333333333333333
 40
0.4
 40
0.4
 40
0.4
 40
0.4
 40
0.4666666666666667
 40
0.4666666666666667
 40
0.4666666666666667
 40
0.4666666666666667
 40
0.5333333333333333
 40
0.5333333333333333
 40
0.5333333333333333
 40
0.5333333333333333
 40
0.6
 40
0.6
 40
0.6
 40
0.6
 40
0.6666666666666666
 40
0.6666666666666666
 40
0.6666666666666666
 40
0.6666666666666666
 40
0.7333333333333333
 40
0.7333333333333333
 40
0.7333333333333333
 40
0.7333333333333333
 40
0.8
 40
0.8
 40
0.8
 40
0.8
 40
0.8666666666666667
 40
0.8666666666666667
 40
0.8666666666666667
 40
0.8666666666666667
 40
1.0
 40
1.0
 40
1.0
 40
1.0
 10
-6.9066500000000008
 20
3.9268000000000036
 30
0.0
 10
-6.771250000000002
 20
4.1973000000000127
 30
0.0
 10
-6.6354500000000005
 20
4.3321000000000076
 30
0.0
 10
-6.4995500000000028
 20
4.6044000000000018
 30
0.0
 10
-6.4995500000000028
 20
4.6044000000000018
 30
0.0
 10
-6.4995500000000028
 20
4.6044000000000018
 30
0.0
 10
-6.771250000000002
 20
4.604499999999998
 30
0.0
 10
-6.771250000000002
 20
4.604499999999998
 30
0.0
 10
-6.771250000000002
 20
4.604499999999998
 30
0.0
 10
-8.1251500000000032
 20
5.009800000000002
 30
0.0
 10
-8.9369500000000013
 20
5.6874999999999964
 30
0.0
 10
-9.6146500000000046
 20
6.6356999999999999
 30
0.0
 10
-9.6146500000000046
 20
6.6356999999999999
 30
0.0
 10
-10.0202500000000061
 20
7.3127000000000031
 30
0.0
 10
-10.2912500000000051
 20
8.2606000000000002
 30
0.0
 10
-10.0202500000000061
 20
9.0731000000000073
 30
0.0
 10
-10.0202500000000061
 20
9.0731000000000073
 30
0.0
 10
-9.6145499999999995
 20
8.667100000000012
 30
0.0
 10
-8.9369500000000013
 20
8.666999999999998
 30
0.0
 10
-8.3968500000000024
 20
8.666999999999998
 30
0.0
 10
-8.3968500000000024
 20
8.666999999999998
 30
0.0
 10
-7.4477500000000063
 20
8.802500000000002
 30
0.0
 10
-6.771250000000002
 20
8.1248000000000076
 30
0.0
 10
-6.771250000000002
 20
7.3127000000000031
 30
0.0
 10
-6.771250000000002
 20
7.3127000000000031
 30
0.0
 10
-7.0424500000000023
 20
7.853500000000011
 30
0.0
 10
-7.717350000000005
 20
7.853500000000011
 30
0.0
 10
-7.9890500000000042
 20
7.583000000000002
 30
0.0
 10
-7.9890500000000042
 20
7.583000000000002
 30
0.0
 10
-8.529750000000007
 20
7.0411000000000001
 30
0.0
 10
-8.1251500000000032
 20
6.4999000000000073
 30
0.0
 10
-7.717350000000005
 20
6.2283000000000044
 30
0.0
 10
-7.717350000000005
 20
6.2283000000000044
 30
0.0
 10
-6.9066500000000008
 20
5.8233000000000068
 30
0.0
 10
-5.416950000000007
 20
6.2283000000000044
 30
0.0
 10
-5.416950000000007
 20
7.448200000000007
 30
0.0
 10
-5.416950000000007
 20
7.448200000000007
 30
0.0
 10
-5.2810500000000005
 20
9.2079000000000022
 30
0.0
 10
-6.4995500000000028
 20
10.1571999999999996
 30
0.0
 10
-8.2610500000000009
 20
10.426700000000011
 30
0.0
 10
-8.2610500000000009
 20
10.426700000000011
 30
0.0
 10
-9.6145499999999995
 20
10.5625000000000036
 30
0.0
 10
-11.1051500000000036
 20
10.1571999999999996
 30
0.0
 10
-12.0519500000000068
 20
10.6980000000000075
 30
0.0
 10
-12.0519500000000068
 20
10.6980000000000075
 30
0.0
 10
-12.0519500000000068
 20
7.0411000000000001
 30
0.0
 10
-10.2912500000000051
 20
5.5517000000000039
 30
0.0
 10
-7.8531500000000065
 20
4.1973000000000127
 30
0.0
 10
-7.8531500000000065
 20
4.1973000000000127
 30
0.0
 10
-7.5815500000000036
 20
4.0625999999999962
 30
0.0
 10
-7.3113500000000009
 20
4.0625999999999962
 30
0.0
 10
-6.9066500000000008
 20
3.9268000000000036
 30
0.0
 10
-6.9066500000000008
 20
3.9268000000000036
 30
0.0
 10
-6.9066500000000008
 20
3.9268000000000036
 30
0.0
 10
-6.9066500000000008
 20
3.9268000000000036
 30
0.0
 10
-6.9066500000000008
 20
3.9268000000000036
 30
0.0
  0
SPLINE
  5
6F
100
AcDbEntity
  8
Layer 1
 62
250
420
5526612
370
-1
 48
1.0
  6
BYLAYER
100
AcDbSpline
 70
8
 71
3
 72
36
 73
32
 74
0
 40
0.0
 40
0.0
 40
0.0
 40
0.0
 40
0.1111111111111111
 40
0.1111111111111111
 40
0.1111111111111111
 40
0.1111111111111111
 40
0.2222222222222222
 40
0.2222222222222222
 40
0.2222222222222222
 40
0.2222222222222222
 40
0.3333333333333333
 40
0.3333333333333333
 40
0.3333333333333333
 40
0.3333333333333333
 40
0.4444444444444444
 40
0.4444444444444444
 40
0.4444444444444444
 40
0.4444444444444444
 40
0.5555555555555556
 40
0.5555555555555556
 40
0.5555555555555556
 40
0.5555555555555556
 40
0.6666666666666666
 40
0.6666666666666666
 40
0.6666666666666666
 40
0.6666666666666666
 40
0.7777777777777778
 40
0.7777777777777778
 40
0.7777777777777778
 40
0.7777777777777778
 40
1.0
 40
1.0
 40
1.0
 40
1.0
 10
-0.2695500000000006
 20
0.5412000000000106
 30
0.0
 10
-0.2695500000000006
 20
1.6246000000000116
 30
0.0
 10
-0.6766499999999986
 20
2.5735000000000063
 30
0.0
 10
-1.7596500000000059
 20
3.2501000000000069
 30
0.0
 10
-1.7596500000000059
 20
3.2501000000000069
 30
0.0
 10
-2.8444500000000073
 20
3.790899999999997
 30
0.0
 10
-3.2487500000000047
 20
4.7403000000000084
 30
0.0
 10
-3.3845500000000062
 20
5.5517000000000039
 30
0.0
 10
-3.3845500000000062
 20
5.5517000000000039
 30
0.0
 10
-3.3845500000000062
 20
5.5517000000000039
 30
0.0
 10
-3.3844500000000011
 20
5.5517000000000039
 30
0.0
 10
-3.3844500000000011
 20
5.5517000000000039
 30
0.0
 10
-3.3844500000000011
 20
5.5517000000000039
 30
0.0
 10
-4.467150000000002
 20
4.8754000000000097
 30
0.0
 10
-5.2810500000000005
 20
4.0625999999999962
 30
0.0
 10
-5.8218499999999995
 20
3.1142999999999965
 30
0.0
 10
-5.8218499999999995
 20
3.1142999999999965
 30
0.0
 10
-5.8218499999999995
 20
3.1142999999999965
 30
0.0
 10
-5.8218499999999995
 20
2.9788000000000103
 30
0.0
 10
-5.8218499999999995
 20
2.9788000000000103
 30
0.0
 10
-5.8218499999999995
 20
2.9788000000000103
 30
0.0
 10
-5.0093500000000013
 20
2.437699999999996
 30
0.0
 10
-4.3345500000000037
 20
2.5735000000000063
 30
0.0
 10
-3.5193500000000011
 20
2.5735000000000063
 30
0.0
 10
-3.5193500000000011
 20
2.5735000000000063
 30
0.0
 10
-2.164950000000001
 20
2.5735000000000063
 30
0.0
 10
-0.9472500000000039
 20
1.8965000000000032
 30
0.0
 10
-0.2695500000000006
 20
0.5410999999999966
 30
0.0
 10
-0.2695500000000006
 20
0.5410999999999966
 30
0.0
 10
-0.2695500000000006
 20
0.5410999999999966
 30
0.0
 10
-0.2695500000000006
 20
0.5412000000000106
 30
0.0
 10
-0.2695500000000006
 20
0.5412000000000106
 30
0.0
  0
SPLINE
  5
70
100
AcDbEntity
  8
Layer 1
 62
250
420
5526612
370
-1
 48
1.0
  6
BYLAYER
100
AcDbSpline
 70
8
 71
3
 72
36
 73
32
 74
0
 40
0.0
 40
0.0
 40
0.0
 40
0.0
 40
0.1111111111111111
 40
0.1111111111111111
 40
0.1111111111111111
 40
0.1111111111111111
 40
0.2222222222222222
 40
0.2222222222222222
 40
0.2222222222222222
 40
0.2222222222222222
 40
0.3333333333333333
 40
0.3333333333333333
 40
0.3333333333333333
 40
0.3333333333333333
 40
0.4444444444444444
 40
0.4444444444444444
 40
0.4444444444444444
 40
0.4444444444444444
 40
0.5555555555555556
 40
0.5555555555555556
 40
0.5555555555555556
 40
0.5555555555555556
 40
0.6666666666666666
 40
0.6666666666666666
 40
0.6666666666666666
 40
0.6666666666666666
 40
0.7777777777777778
 40
0.7777777777777778
 40
0.7777777777777778
 40
0.7777777777777778
 40
1.0
 40
1.0
 40
1.0
 40
1.0
 10
0.2716500000000011
 20
0.5412000000000106
 30
0.0
 10
0.9493499999999955
 20
1.3546999999999976
 30
0.0
 10
1.3536499999999929
 20
2.3022000000000098
 30
0.0
 10
0.9493499999999955
 20
3.5207000000000122
 30
0.0
 10
0.9493499999999955
 20
3.5207000000000122
 30
0.0
 10
0.6780499999999989
 20
4.7403000000000084
 30
0.0
 10
1.0819499999999938
 20
5.5517000000000039
 30
0.0
 10
1.625949999999996
 20
6.2283000000000044
 30
0.0
 10
1.625949999999996
 20
6.2283000000000044
 30
0.0
 10
1.625949999999996
 20
6.2283000000000044
 30
0.0
 10
1.4891499999999969
 20
6.364099999999997
 30
0.0
 10
1.4891499999999969
 20
6.364099999999997
 30
0.0
 10
1.4891499999999969
 20
6.364099999999997
 30
0.0
 10
0.4071499999999961
 20
6.6356999999999999
 30
0.0
 10
-0.8113500000000062
 20
6.4999000000000073
 30
0.0
 10
-1.895150000000001
 20
6.2283000000000044
 30
0.0
 10
-1.895150000000001
 20
6.2283000000000044
 30
0.0
 10
-1.895150000000001
 20
6.2283000000000044
 30
0.0
 10
-2.0309500000000025
 20
6.2283000000000044
 30
0.0
 10
-2.0309500000000025
 20
6.2283000000000044
 30
0.0
 10
-2.0309500000000025
 20
6.2283000000000044
 30
0.0
 10
-1.7595500000000008
 20
5.281400000000005
 30
0.0
 10
-1.2185500000000005
 20
4.8754000000000097
 30
0.0
 10
-0.6766499999999986
 20
4.3321000000000076
 30
0.0
 10
-0.6766499999999986
 20
4.3321000000000076
 30
0.0
 10
0.4071499999999961
 20
3.2502000000000031
 30
0.0
 10
0.6780499999999989
 20
1.8965000000000032
 30
0.0
 10
0.2716500000000011
 20
0.5410999999999966
 30
0.0
 10
0.2716500000000011
 20
0.5410999999999966
 30
0.0
 10
0.2716500000000011
 20
0.5410999999999966
 30
0.0
 10
0.2716500000000011
 20
0.5412000000000106
 30
0.0
 10
0.2716500000000011
 20
0.5412000000000106
 30
0.0
  0
SPLINE
  5
71
100
AcDbEntity
  8
Layer 1
 62
250
420
5526612
370
-1
 48
1.0
  6
BYLAYER
100
AcDbSpline
 70
8
 71
3
 72
36
 73
32
 74
0
 40
0.0
 40
0.0
 40
0.0
 40
0.0
 40
0.1111111111111111
 40
0.1111111111111111
 40
0.1111111111111111
 40
0.1111111111111111
 40
0.2222222222222222
 40
0.2222222222222222
 40
0.2222222222222222
 40
0.2222222222222222
 40
0.3333333333333333
 40
0.3333333333333333
 40
0.3333333333333333
 40
0.3333333333333333
 40
0.4444444444444444
 40
0.4444444444444444
 40
0.4444444444444444
 40
0.4444444444444444
 40
0.5555555555555556
 40
0.5555555555555556
 40
0.5555555555555556
 40
0.5555555555555556
 40
0.6666666666666666
 40
0.6666666666666666
 40
0.6666666666666666
 40
0.6666666666666666
 40
0.7777777777777778
 40
0.7777777777777778
 40
0.7777777777777778
 40
0.7777777777777778
 40
1.0
 40
1.0
 40
1.0
 40
1.0
 10
0.5429499999999976
 20
0.1351000000000013
 30
0.0
 10
1.625949999999996
 20
0.2698999999999963
 30
0.0
 10
2.5724499999999928
 20
0.6770000000000032
 30
0.0
 10
3.2511499999999938
 20
1.7600000000000016
 30
0.0
 10
3.2511499999999938
 20
1.7600000000000016
 30
0.0
 10
3.7920499999999979
 20
2.843
 30
0.0
 10
4.7409499999999927
 20
3.1142999999999965
 30
0.0
 10
5.6885500000000011
 20
3.2501000000000069
 30
0.0
 10
5.6885500000000011
 20
3.2501000000000069
 30
0.0
 10
5.6885500000000011
 20
3.2501000000000069
 30
0.0
 10
5.5527499999999996
 20
3.3860000000000134
 30
0.0
 10
5.5527499999999996
 20
3.3860000000000134
 30
0.0
 10
5.5527499999999996
 20
3.3860000000000134
 30
0.0
 10
5.0116499999999942
 20
4.3321000000000076
 30
0.0
 10
4.0622500000000006
 20
5.1456000000000124
 30
0.0
 10
3.1153500000000012
 20
5.6874999999999964
 30
0.0
 10
3.1153500000000012
 20
5.6874999999999964
 30
0.0
 10
3.1153500000000012
 20
5.6874999999999964
 30
0.0
 10
2.9796499999999959
 20
5.8233000000000068
 30
0.0
 10
2.9796499999999959
 20
5.8233000000000068
 30
0.0
 10
2.9796499999999959
 20
5.8233000000000068
 30
0.0
 10
2.4394500000000008
 20
4.8754000000000097
 30
0.0
 10
2.5724499999999928
 20
4.3321000000000076
 30
0.0
 10
2.5724499999999928
 20
3.5207000000000122
 30
0.0
 10
2.5724499999999928
 20
3.5207000000000122
 30
0.0
 10
2.5725499999999979
 20
2.0323000000000135
 30
0.0
 10
1.897549999999999
 20
0.8128000000000135
 30
0.0
 10
0.5429499999999976
 20
0.1351000000000013
 30
0.0
 10
0.5429499999999976
 20
0.1351000000000013
 30
0.0
 10
0.5429499999999976
 20
0.1351000000000013
 30
0.0
 10
0.5429499999999976
 20
0.1351000000000013
 30
0.0
 10
0.5429499999999976
 20
0.1351000000000013
 30
0.0
  0
SPLINE
  5
72
100
AcDbEntity
  8
Layer 1
 62
250
420
5526612
370
-1
 48
1.0
  6
BYLAYER
100
AcDbSpline
 70
8
 71
3
 72
36
 73
32
 74
0
 40
0.0
 40
0.0
 40
0.0
 40
0.0
 40
0.1111111111111111
 40
0.1111111111111111
 40
0.1111111111111111
 40
0.1111111111111111
 40
0.2222222222222222
 40
0.2222222222222222
 40
0.2222222222222222
 40
0.2222222222222222
 40
0.3333333333333333
 40
0.3333333333333333
 40
0.3333333333333333
 40
0.3333333333333333
 40
0.4444444444444444
 40
0.4444444444444444
 40
0.4444444444444444
 40
0.4444444444444444
 40
0.5555555555555556
 40
0.5555555555555556
 40
0.5555555555555556
 40
0.5555555555555556
 40
0.6666666666666666
 40
0.6666666666666666
 40
0.6666666666666666
 40
0.6666666666666666
 40
0.7777777777777778
 40
0.7777777777777778
 40
0.7777777777777778
 40
0.7777777777777778
 40
1.0
 40
1.0
 40
1.0
 40
1.0
 10
6.3662499999999955
 20
-1.7604000000000042
 30
0.0
 10
6.3662499999999955
 20
-1.7604000000000042
 30
0.0
 10
6.3662499999999955
 20
-1.6244999999999976
 30
0.0
 10
6.3662499999999955
 20
-1.6244999999999976
 30
0.0
 10
6.3662499999999955
 20
-1.6244999999999976
 30
0.0
 10
6.6344500000000028
 20
-0.4068000000000005
 30
0.0
 10
6.6343499999999889
 20
0.6770000000000032
 30
0.0
 10
6.2303499999999978
 20
1.8965000000000032
 30
0.0
 10
6.2303499999999978
 20
1.8965000000000032
 30
0.0
 10
6.2303499999999978
 20
1.8965000000000032
 30
0.0
 10
6.230449999999994
 20
1.8965000000000032
 30
0.0
 10
6.230449999999994
 20
1.8965000000000032
 30
0.0
 10
6.230449999999994
 20
1.8965000000000032
 30
0.0
 10
5.2803500000000003
 20
1.7600000000000016
 30
0.0
 10
4.8757499999999965
 20
1.0829999999999984
 30
0.0
 10
4.3338499999999947
 20
0.5410999999999966
 30
0.0
 10
4.3338499999999947
 20
0.5410999999999966
 30
0.0
 10
3.2512499999999989
 20
-0.4068000000000005
 30
0.0
 10
2.03125
 20
-0.8124999999999893
 30
0.0
 10
0.5429499999999976
 20
-0.2708999999999939
 30
0.0
 10
0.5429499999999976
 20
-0.2708999999999939
 30
0.0
 10
1.3536499999999929
 20
-1.0836999999999897
 30
0.0
 10
2.3036499999999993
 20
-1.3553999999999888
 30
0.0
 10
3.5214500000000015
 20
-1.0836999999999897
 30
0.0
 10
3.5214500000000015
 20
-1.0836999999999897
 30
0.0
 10
4.7410499999999978
 20
-0.8124999999999893
 30
0.0
 10
5.5527499999999996
 20
-1.0836999999999897
 30
0.0
 10
6.3662499999999955
 20
-1.7604000000000042
 30
0.0
 10
6.3662499999999955
 20
-1.7604000000000042
 30
0.0
 10
6.3662499999999955
 20
-1.7604000000000042
 30
0.0
 10
6.3662499999999955
 20
-1.7604000000000042
 30
0.0
 10
6.3662499999999955
 20
-1.7604000000000042
 30
0.0
  0
SPLINE
  5
73
100
AcDbEntity
  8
Layer 1
 62
250
420
5526612
370
-1
 48
1.0
  6
BYLAYER
100
AcDbSpline
 70
8
 71
3
 72
32
 73
28
 74
0
 40
0.0
 40
0.0
 40
0.0
 40
0.0
 40
0.125
 40
0.125
 40
0.125
 40
0.125
 40
0.25
 40
0.25
 40
0.25
 40
0.25
 40
0.375
 40
0.375
 40
0.375
 40
0.375
 40
0.5
 40
0.5
 40
0.5
 40
0.5
 40
0.625
 40
0.625
 40
0.625
 40
0.625
 40
0.75
 40
0.75
 40
0.75
 40
0.75
 40
1.0
 40
1.0
 40
1.0
 40
1.0
 10
-6.2282500000000063
 20
-2.0319999999999894
 30
0.0
 10
-5.2810500000000005
 20
-1.7604000000000042
 30
0.0
 10
-5.0094500000000064
 20
-1.2195999999999962
 30
0.0
 10
-4.467250000000007
 20
-0.6766000000000005
 30
0.0
 10
-4.467250000000007
 20
-0.6766000000000005
 30
0.0
 10
-3.3844500000000011
 20
0.4057000000000066
 30
0.0
 10
-2.0309500000000025
 20
0.6770000000000032
 30
0.0
 10
-0.540850000000006
 20
0.2698999999999963
 30
0.0
 10
-0.540850000000006
 20
0.2698999999999963
 30
0.0
 10
-1.4901500000000034
 20
0.9476000000000084
 30
0.0
 10
-2.4369500000000066
 20
1.3546999999999976
 30
0.0
 10
-3.6551500000000026
 20
0.9476000000000084
 30
0.0
 10
-3.6551500000000026
 20
0.9476000000000084
 30
0.0
 10
-4.7388500000000011
 20
0.6770000000000032
 30
0.0
 10
-5.6881499999999985
 20
1.0829999999999984
 30
0.0
 10
-6.3637500000000014
 20
1.6244999999999976
 30
0.0
 10
-6.3637500000000014
 20
1.6244999999999976
 30
0.0
 10
-6.3637500000000014
 20
1.6244999999999976
 30
0.0
 10
-6.3637500000000014
 20
1.4893999999999963
 30
0.0
 10
-6.3637500000000014
 20
1.4893999999999963
 30
0.0
 10
-6.3637500000000014
 20
1.4893999999999963
 30
0.0
 10
-6.6353500000000043
 20
0.4057000000000066
 30
0.0
 10
-6.6354500000000005
 20
-0.8124999999999893
 30
0.0
 10
-6.3637500000000014
 20
-1.8961999999999968
 30
0.0
 10
-6.3637500000000014
 20
-1.8961999999999968
 30
0.0
 10
-6.3637500000000014
 20
-1.8961999999999968
 30
0.0
 10
-6.2282500000000063
 20
-2.0319999999999894
 30
0.0
 10
-6.2282500000000063
 20
-2.0319999999999894
 30
0.0
  0
SPLINE
  5
74
100
AcDbEntity
  8
Layer 1
 62
250
420
5526612
370
-1
 48
1.0
  6
BYLAYER
100
AcDbSpline
 70
8
 71
3
 72
64
 73
60
 74
0
 40
0.0
 40
0.0
 40
0.0
 40
0.0
 40
0.0625
 40
0.0625
 40
0.0625
 40
0.0625
 40
0.125
 40
0.125
 40
0.125
 40
0.125
 40
0.1875
 40
0.1875
 40
0.1875
 40
0.1875
 40
0.25
 40
0.25
 40
0.25
 40
0.25
 40
0.3125
 40
0.3125
 40
0.3125
 40
0.3125
 40
0.375
 40
0.375
 40
0.375
 40
0.375
 40
0.4375
 40
0.4375
 40
0.4375
 40
0.4375
 40
0.5
 40
0.5
 40
0.5
 40
0.5
 40
0.5625
 40
0.5625
 40
0.5625
 40
0.5625
 40
0.625
 40
0.625
 40
0.625
 40
0.625
 40
0.6875
 40
0.6875
 40
0.6875
 40
0.6875
 40
0.75
 40
0.75
 40
0.75
 40
0.75
 40
0.8125
 40
0.8125
 40
0.8125
 40
0.8125
 40
0.875
 40
0.875
 40
0.875
 40
0.875
 40
1.0
 40
1.0
 40
1.0
 40
1.0
 10
11.1051500000000036
 20
-2.4380999999999986
 30
0.0
 10
11.7817500000000042
 20
-2.4380999999999986
 30
0.0
 10
12.4583500000000047
 20
-2.1663999999999994
 30
0.0
 10
13.2718499999999917
 20
-1.4890999999999899
 30
0.0
 10
13.2718499999999917
 20
-1.4890999999999899
 30
0.0
 10
14.2201499999999914
 20
-0.8124999999999893
 30
0.0
 10
15.0314499999999907
 20
0.5410999999999966
 30
0.0
 10
16.1145500000000013
 20
0.8128000000000135
 30
0.0
 10
16.1145500000000013
 20
0.8128000000000135
 30
0.0
 10
13.406949999999993
 20
3.5207000000000122
 30
0.0
 10
11.2409499999999962
 20
3.3858999999999995
 30
0.0
 10
8.5319500000000037
 20
2.437699999999996
 30
0.0
 10
8.5319500000000037
 20
2.437699999999996
 30
0.0
 10
8.2607500000000034
 20
2.3022000000000098
 30
0.0
 10
7.9890500000000042
 20
2.1663999999999994
 30
0.0
 10
7.7194499999999966
 20
2.0323000000000135
 30
0.0
 10
7.7194499999999966
 20
2.0323000000000135
 30
0.0
 10
7.7194499999999966
 20
1.7600000000000016
 30
0.0
 10
7.7194499999999966
 20
1.4893999999999963
 30
0.0
 10
7.8549500000000005
 20
1.2188000000000088
 30
0.0
 10
7.8549500000000005
 20
1.2188000000000088
 30
0.0
 10
7.8549500000000005
 20
1.2188000000000088
 30
0.0
 10
7.9890500000000042
 20
1.3546999999999976
 30
0.0
 10
7.9890500000000042
 20
1.3546999999999976
 30
0.0
 10
7.9890500000000042
 20
1.3546999999999976
 30
0.0
 10
9.3426499999999901
 20
2.1663999999999994
 30
0.0
 10
10.4280500000000043
 20
2.3022000000000098
 30
0.0
 10
11.5125499999999992
 20
2.0323000000000135
 30
0.0
 10
11.5125499999999992
 20
2.0323000000000135
 30
0.0
 10
12.3225499999999943
 20
1.7600000000000016
 30
0.0
 10
13.1360499999999991
 20
1.2188000000000088
 30
0.0
 10
13.5417500000000057
 20
0.5410999999999966
 30
0.0
 10
13.5417500000000057
 20
0.5410999999999966
 30
0.0
 10
12.8658499999999965
 20
0.5412000000000106
 30
0.0
 10
12.4583500000000047
 20
0.1351000000000013
 30
0.0
 10
12.0522499999999955
 20
-0.2708999999999939
 30
0.0
 10
12.0522499999999955
 20
-0.2708999999999939
 30
0.0
 10
11.5126499999999954
 20
-1.0836999999999897
 30
0.0
 10
10.4280500000000043
 20
-0.9478999999999971
 30
0.0
 10
10.0220499999999912
 20
-0.4068000000000005
 30
0.0
 10
10.0220499999999912
 20
-0.4068000000000005
 30
0.0
 10
10.4281500000000005
 20
-0.6766000000000005
 30
0.0
 10
10.9685500000000058
 20
-0.2708999999999939
 30
0.0
 10
10.9685500000000058
 20
0.1351000000000013
 30
0.0
 10
10.9685500000000058
 20
0.1351000000000013
 30
0.0
 10
10.9685500000000058
 20
0.9476000000000084
 30
0.0
 10
10.2926499999999965
 20
1.0829999999999984
 30
0.0
 10
9.8862499999999986
 20
0.9476000000000084
 30
0.0
 10
9.8862499999999986
 20
0.9476000000000084
 30
0.0
 10
8.9383500000000016
 20
0.6770000000000032
 30
0.0
 10
8.2606499999999894
 20
-0.6766000000000005
 30
0.0
 10
9.0737499999999915
 20
-1.4890999999999899
 30
0.0
 10
9.0737499999999915
 20
-1.4890999999999899
 30
0.0
 10
9.6149500000000021
 20
-2.1663999999999994
 30
0.0
 10
10.2926499999999965
 20
-2.4380999999999986
 30
0.0
 10
11.1050499999999897
 20
-2.4380999999999986
 30
0.0
 10
11.1050499999999897
 20
-2.4380999999999986
 30
0.0
 10
11.1050499999999897
 20
-2.4380999999999986
 30
0.0
 10
11.1051500000000036
 20
-2.4380999999999986
 30
0.0
 10
11.1051500000000036
 20
-2.4380999999999986
 30
0.0
  0
SPLINE
  5
75
100
AcDbEntity
  8
Layer 1
 62
250
420
5526612
370
-1
 48
1.0
  6
BYLAYER
100
AcDbSpline
 70
8
 71
3
 72
64
 73
60
 74
0
 40
0.0
 40
0.0
 40
0.0
 40
0.0
 40
0.0625
 40
0.0625
 40
0.0625
 40
0.0625
 40
0.125
 40
0.125
 40
0.125
 40
0.125
 40
0.1875
 40
0.1875
 40
0.1875
 40
0.1875
 40
0.25
 40
0.25
 40
0.25
 40
0.25
 40
0.3125
 40
0.3125
 40
0.3125
 40
0.3125
 40
0.375
 40
0.375
 40
0.375
 40
0.375
 40
0.4375
 40
0.4375
 40
0.4375
 40
0.4375
 40
0.5
 40
0.5
 40
0.5
 40
0.5
 40
0.5625
 40
0.5625
 40
0.5625
 40
0.5625
 40
0.625
 40
0.625
 40
0.625
 40
0.625
 40
0.6875
 40
0.6875
 40
0.6875
 40
0.6875
 40
0.75
 40
0.75
 40
0.75
 40
0.75
 40
0.8125
 40
0.8125
 40
0.8125
 40
0.8125
 40
0.875
 40
0.875
 40
0.875
 40
0.875
 40
1.0
 40
1.0
 40
1.0
 40
1.0
 10
-11.510050000000005
 20
-3.1156999999999968
 30
0.0
 10
-10.562149999999999
 20
-3.1156999999999968
 30
0.0
 10
-9.6146500000000046
 20
-2.843
 30
0.0
 10
-8.6656500000000047
 20
-2.5738999999999912
 30
0.0
 10
-8.6656500000000047
 20
-2.5738999999999912
 30
0.0
 10
-8.2609500000000047
 20
-2.4380999999999986
 30
0.0
 10
-7.9890500000000042
 20
-2.302199999999992
 30
0.0
 10
-7.717350000000005
 20
-2.1663999999999994
 30
0.0
 10
-7.717350000000005
 20
-2.1663999999999994
 30
0.0
 10
-7.717350000000005
 20
-1.8961999999999968
 30
0.0
 10
-7.8531500000000065
 20
-1.6245999999999938
 30
0.0
 10
-7.8531500000000065
 20
-1.3553999999999888
 30
0.0
 10
-7.8531500000000065
 20
-1.3553999999999888
 30
0.0
 10
-7.8531500000000065
 20
-1.3553999999999888
 30
0.0
 10
-8.1251500000000032
 20
-1.4890999999999899
 30
0.0
 10
-8.1251500000000032
 20
-1.4890999999999899
 30
0.0
 10
-8.1251500000000032
 20
-1.4890999999999899
 30
0.0
 10
-9.3432500000000029
 20
-2.1663999999999994
 30
0.0
 10
-10.4263500000000064
 20
-2.302199999999992
 30
0.0
 10
-11.510050000000005
 20
-2.0319999999999894
 30
0.0
 10
-11.510050000000005
 20
-2.0319999999999894
 30
0.0
 10
-12.3235500000000009
 20
-1.8961999999999968
 30
0.0
 10
-13.1342500000000051
 20
-1.3553999999999888
 30
0.0
 10
-13.5413500000000031
 20
-0.6766000000000005
 30
0.0
 10
-13.5413500000000031
 20
-0.6766000000000005
 30
0.0
 10
-12.9994500000000013
 20
-0.6766000000000005
 30
0.0
 10
-12.4594499999999986
 20
-0.135500000000004
 30
0.0
 10
-12.1877499999999994
 20
0.2698999999999963
 30
0.0
 10
-12.1877499999999994
 20
0.2698999999999963
 30
0.0
 10
-11.510050000000005
 20
0.9476000000000084
 30
0.0
 10
-10.562149999999999
 20
0.9476000000000084
 30
0.0
 10
-10.0202500000000061
 20
0.4057000000000066
 30
0.0
 10
-10.0202500000000061
 20
0.4057000000000066
 30
0.0
 10
-10.562149999999999
 20
0.5412000000000106
 30
0.0
 10
-10.9692500000000059
 20
0.1351000000000013
 30
0.0
 10
-10.9692500000000059
 20
-0.2708999999999939
 30
0.0
 10
-10.9692500000000059
 20
-0.2708999999999939
 30
0.0
 10
-11.1050499999999985
 20
-0.9478999999999971
 30
0.0
 10
-10.4263500000000064
 20
-1.2195999999999962
 30
0.0
 10
-9.8873500000000014
 20
-1.0836999999999897
 30
0.0
 10
-9.8873500000000014
 20
-1.0836999999999897
 30
0.0
 10
-8.9368500000000051
 20
-0.8124999999999893
 30
0.0
 10
-8.3968500000000024
 20
0.5410999999999966
 30
0.0
 10
-9.07165
 20
1.4893999999999963
 30
0.0
 10
-9.07165
 20
1.4893999999999963
 30
0.0
 10
-10.2912500000000051
 20
2.7092999999999989
 30
0.0
 10
-11.9154500000000052
 20
2.5735000000000063
 30
0.0
 10
-13.2697500000000002
 20
1.4893999999999963
 30
0.0
 10
-13.2697500000000002
 20
1.4893999999999963
 30
0.0
 10
-14.2179500000000036
 20
0.6770000000000032
 30
0.0
 10
-15.1669500000000035
 20
-0.6766000000000005
 30
0.0
 10
-16.1145500000000013
 20
-0.9478999999999971
 30
0.0
 10
-16.1145500000000013
 20
-0.9478999999999971
 30
0.0
 10
-14.48855
 20
-2.5738999999999912
 30
0.0
 10
-12.9995500000000064
 20
-3.1156999999999968
 30
0.0
 10
-11.510050000000005
 20
-3.1156999999999968
 30
0.0
 10
-11.510050000000005
 20
-3.1156999999999968
 30
0.0
 10
-11.510050000000005
 20
-3.1156999999999968
 30
0.0
 10
-11.510050000000005
 20
-3.1156999999999968
 30
0.0
 10
-11.510050000000005
 20
-3.1156999999999968
 30
0.0
  0
SPLINE
  5
76
100
AcDbEntity
  8
Layer 1
 62
250
420
5526612
370
-1
 48
1.0
  6
BYLAYER
100
AcDbSpline
 70
8
 71
3
 72
36
 73
32
 74
0
 40
0.0
 40
0.0
 40
0.0
 40
0.0
 40
0.1111111111111111
 40
0.1111111111111111
 40
0.1111111111111111
 40
0.1111111111111111
 40
0.2222222222222222
 40
0.2222222222222222
 40
0.2222222222222222
 40
0.2222222222222222
 40
0.3333333333333333
 40
0.3333333333333333
 40
0.3333333333333333
 40
0.3333333333333333
 40
0.4444444444444444
 40
0.4444444444444444
 40
0.4444444444444444
 40
0.4444444444444444
 40
0.5555555555555556
 40
0.5555555555555556
 40
0.5555555555555556
 40
0.5555555555555556
 40
0.6666666666666666
 40
0.6666666666666666
 40
0.6666666666666666
 40
0.6666666666666666
 40
0.7777777777777778
 40
0.7777777777777778
 40
0.7777777777777778
 40
0.7777777777777778
 40
1.0
 40
1.0
 40
1.0
 40
1.0
 10
3.2512499999999989
 20
-5.6870999999999938
 30
0.0
 10
3.2512499999999989
 20
-5.6870999999999938
 30
0.0
 10
3.38565
 20
-5.6870999999999938
 30
0.0
 10
3.38565
 20
-5.6870999999999938
 30
0.0
 10
3.38565
 20
-5.6870999999999938
 30
0.0
 10
4.3339499999999997
 20
-5.0101999999999869
 30
0.0
 10
5.1473499999999994
 20
-4.1976999999999975
 30
0.0
 10
5.6885500000000011
 20
-3.1156999999999968
 30
0.0
 10
5.6885500000000011
 20
-3.1156999999999968
 30
0.0
 10
5.6885500000000011
 20
-3.1156999999999968
 30
0.0
 10
5.8244499999999988
 20
-2.9787999999999926
 30
0.0
 10
5.8244499999999988
 20
-2.9787999999999926
 30
0.0
 10
5.8244499999999988
 20
-2.9787999999999926
 30
0.0
 10
5.0116499999999942
 20
-2.5738999999999912
 30
0.0
 10
4.3338499999999947
 20
-2.7085999999999899
 30
0.0
 10
3.5214500000000015
 20
-2.7085999999999899
 30
0.0
 10
3.5214500000000015
 20
-2.7085999999999899
 30
0.0
 10
2.0313499999999962
 20
-2.7085999999999899
 30
0.0
 10
0.8134499999999978
 20
-2.0319999999999894
 30
0.0
 10
0.1361499999999971
 20
-0.6766000000000005
 30
0.0
 10
0.1361499999999971
 20
-0.6766000000000005
 30
0.0
 10
0.2716500000000011
 20
-1.7604000000000042
 30
0.0
 10
0.6780499999999989
 20
-2.7085999999999899
 30
0.0
 10
1.7617499999999975
 20
-3.2516000000000034
 30
0.0
 10
1.7617499999999975
 20
-3.2516000000000034
 30
0.0
 10
2.8437499999999982
 20
-3.9284999999999926
 30
0.0
 10
3.1153500000000012
 20
-4.740599999999997
 30
0.0
 10
3.2511499999999938
 20
-5.6870999999999938
 30
0.0
 10
3.2511499999999938
 20
-5.6870999999999938
 30
0.0
 10
3.2511499999999938
 20
-5.6870999999999938
 30
0.0
 10
3.2512499999999989
 20
-5.6870999999999938
 30
0.0
 10
3.2512499999999989
 20
-5.6870999999999938
 30
0.0
  0
SPLINE
  5
77
100
AcDbEntity
  8
Layer 1
 62
250
420
5526612
370
-1
 48
1.0
  6
BYLAYER
100
AcDbSpline
 70
8
 71
3
 72
32
 73
28
 74
0
 40
0.0
 40
0.0
 40
0.0
 40
0.0
 40
0.125
 40
0.125
 40
0.125
 40
0.125
 40
0.25
 40
0.25
 40
0.25
 40
0.25
 40
0.375
 40
0.375
 40
0.375
 40
0.375
 40
0.5
 40
0.5
 40
0.5
 40
0.5
 40
0.625
 40
0.625
 40
0.625
 40
0.625
 40
0.75
 40
0.75
 40
0.75
 40
0.75
 40
1.0
 40
1.0
 40
1.0
 40
1.0
 10
-2.9798500000000061
 20
-5.8235999999999954
 30
0.0
 10
-2.5727499999999992
 20
-5.0101999999999869
 30
0.0
 10
-2.7086500000000058
 20
-4.3334999999999901
 30
0.0
 10
-2.7086500000000058
 20
-3.6568999999999896
 30
0.0
 10
-2.7086500000000058
 20
-3.6568999999999896
 30
0.0
 10
-2.7086500000000058
 20
-2.1663999999999994
 30
0.0
 10
-1.895150000000001
 20
-0.9478999999999971
 30
0.0
 10
-0.6766499999999986
 20
-0.2708999999999939
 30
0.0
 10
-0.6766499999999986
 20
-0.2708999999999939
 30
0.0
 10
-1.7595500000000008
 20
-0.2708999999999939
 30
0.0
 10
-2.7086500000000058
 20
-0.6766000000000005
 30
0.0
 10
-3.2487500000000047
 20
-1.8961999999999968
 30
0.0
 10
-3.2487500000000047
 20
-1.8961999999999968
 30
0.0
 10
-3.9264499999999991
 20
-2.843
 30
0.0
 10
-4.7388500000000011
 20
-3.2516000000000034
 30
0.0
 10
-5.6881499999999985
 20
-3.3859999999999957
 30
0.0
 10
-5.6881499999999985
 20
-3.3859999999999957
 30
0.0
 10
-5.6881499999999985
 20
-3.3859999999999957
 30
0.0
 10
-5.5523500000000059
 20
-3.521099999999997
 30
0.0
 10
-5.5523500000000059
 20
-3.521099999999997
 30
0.0
 10
-5.5523500000000059
 20
-3.521099999999997
 30
0.0
 10
-5.0093500000000013
 20
-4.4693000000000005
 30
0.0
 10
-4.1991500000000048
 20
-5.2813999999999872
 30
0.0
 10
-3.1129500000000032
 20
-5.8236999999999917
 30
0.0
 10
-3.1129500000000032
 20
-5.8236999999999917
 30
0.0
 10
-3.1129500000000032
 20
-5.8236999999999917
 30
0.0
 10
-2.9798500000000061
 20
-5.8235999999999954
 30
0.0
 10
-2.9798500000000061
 20
-5.8235999999999954
 30
0.0
  0
SPLINE
  5
78
100
AcDbEntity
  8
Layer 1
 62
250
420
5526612
370
-1
 48
1.0
  6
BYLAYER
100
AcDbSpline
 70
8
 71
3
 72
40
 73
36
 74
0
 40
0.0
 40
0.0
 40
0.0
 40
0.0
 40
0.1
 40
0.1
 40
0.1
 40
0.1
 40
0.2
 40
0.2
 40
0.2
 40
0.2
 40
0.3
 40
0.3
 40
0.3
 40
0.3
 40
0.4
 40
0.4
 40
0.4
 40
0.4
 40
0.5
 40
0.5
 40
0.5
 40
0.5
 40
0.6
 40
0.6
 40
0.6
 40
0.6
 40
0.7
 40
0.7
 40
0.7
 40
0.7
 40
0.8
 40
0.8
 40
0.8
 40
0.8
 40
1.0
 40
1.0
 40
1.0
 40
1.0
 10
0.1361499999999971
 20
-6.6361000000000026
 30
0.0
 10
0.6780499999999989
 20
-6.6361000000000026
 30
0.0
 10
1.3536499999999929
 20
-6.5005999999999986
 30
0.0
 10
1.897549999999999
 20
-6.3647999999999882
 30
0.0
 10
1.897549999999999
 20
-6.3647999999999882
 30
0.0
 10
1.897549999999999
 20
-6.3647999999999882
 30
0.0
 10
2.0313499999999962
 20
-6.2289999999999957
 30
0.0
 10
2.0313499999999962
 20
-6.2289999999999957
 30
0.0
 10
2.0313499999999962
 20
-6.2289999999999957
 30
0.0
 10
1.7617499999999975
 20
-5.2813999999999872
 30
0.0
 10
1.2177499999999952
 20
-5.0101999999999869
 30
0.0
 10
0.6780499999999989
 20
-4.4693000000000005
 30
0.0
 10
0.6780499999999989
 20
-4.4693000000000005
 30
0.0
 10
-0.4053500000000021
 20
-3.3859999999999957
 30
0.0
 10
-0.8113500000000062
 20
-2.0319999999999894
 30
0.0
 10
-0.2695500000000006
 20
-0.6766000000000005
 30
0.0
 10
-0.2695500000000006
 20
-0.6766000000000005
 30
0.0
 10
-1.0830500000000054
 20
-1.4890999999999899
 30
0.0
 10
-1.3543500000000019
 20
-2.4380999999999986
 30
0.0
 10
-1.0830500000000054
 20
-3.6568999999999896
 30
0.0
 10
-1.0830500000000054
 20
-3.6568999999999896
 30
0.0
 10
-0.6766499999999986
 20
-4.740599999999997
 30
0.0
 10
-1.0830500000000054
 20
-5.6870999999999938
 30
0.0
 10
-1.6259500000000049
 20
-6.3647999999999882
 30
0.0
 10
-1.6259500000000049
 20
-6.3647999999999882
 30
0.0
 10
-1.6259500000000049
 20
-6.3647999999999882
 30
0.0
 10
-1.6259500000000049
 20
-6.3647999999999882
 30
0.0
 10
-1.6259500000000049
 20
-6.3647999999999882
 30
0.0
 10
-1.6259500000000049
 20
-6.3647999999999882
 30
0.0
 10
-0.9471499999999988
 20
-6.5005999999999986
 30
0.0
 10
-0.4053500000000021
 20
-6.6361000000000026
 30
0.0
 10
0.1361499999999971
 20
-6.6361000000000026
 30
0.0
 10
0.1361499999999971
 20
-6.6361000000000026
 30
0.0
 10
0.1361499999999971
 20
-6.6361000000000026
 30
0.0
 10
0.1361499999999971
 20
-6.6361000000000026
 30
0.0
 10
0.1361499999999971
 20
-6.6361000000000026
 30
0.0
  0
SPLINE
  5
79
100
AcDbEntity
  8
Layer 1
 62
250
420
5526612
370
-1
 48
1.0
  6
BYLAYER
100
AcDbSpline
 70
8
 71
3
 72
60
 73
56
 74
0
 40
0.0
 40
0.0
 40
0.0
 40
0.0
 40
0.0666666666666667
 40
0.0666666666666667
 40
0.0666666666666667
 40
0.0666666666666667
 40
0.1333333333333333
 40
0.1333333333333333
 40
0.1333333333333333
 40
0.1333333333333333
 40
0.2
 40
0.2
 40
0.2
 40
0.2
 40
0.2666666666666667
 40
0.2666666666666667
 40
0.2666666666666667
 40
0.2666666666666667
 40
0.3333333333333333
 40
0.3333333333333333
 40
0.3333333333333333
 40
0.3333333333333333
 40
0.4
 40
0.4
 40
0.4
 40
0.4
 40
0.4666666666666667
 40
0.4666666666666667
 40
0.4666666666666667
 40
0.4666666666666667
 40
0.5333333333333333
 40
0.5333333333333333
 40
0.5333333333333333
 40
0.5333333333333333
 40
0.6
 40
0.6
 40
0.6
 40
0.6
 40
0.6666666666666666
 40
0.6666666666666666
 40
0.6666666666666666
 40
0.6666666666666666
 40
0.7333333333333333
 40
0.7333333333333333
 40
0.7333333333333333
 40
0.7333333333333333
 40
0.8
 40
0.8
 40
0.8
 40
0.8
 40
0.8666666666666667
 40
0.8666666666666667
 40
0.8666666666666667
 40
0.8666666666666667
 40
1.0
 40
1.0
 40
1.0
 40
1.0
 10
12.0523499999999917
 20
-10.8330999999999911
 30
0.0
 10
12.0523499999999917
 20
-7.0425000000000004
 30
0.0
 10
10.2926499999999965
 20
-5.5513000000000012
 30
0.0
 10
7.8549500000000005
 20
-4.3334999999999901
 30
0.0
 10
7.8549500000000005
 20
-4.3334999999999901
 30
0.0
 10
7.583650000000004
 20
-4.1976999999999975
 30
0.0
 10
7.1772499999999884
 20
-4.0629000000000026
 30
0.0
 10
6.9059499999999918
 20
-4.0629000000000026
 30
0.0
 10
6.9059499999999918
 20
-4.0629000000000026
 30
0.0
 10
6.7701499999999992
 20
-4.1976999999999975
 30
0.0
 10
6.6343499999999889
 20
-4.4693000000000005
 30
0.0
 10
6.3662499999999955
 20
-4.740599999999997
 30
0.0
 10
6.3662499999999955
 20
-4.740599999999997
 30
0.0
 10
6.3662499999999955
 20
-4.740599999999997
 30
0.0
 10
6.6344500000000028
 20
-4.740599999999997
 30
0.0
 10
6.6344500000000028
 20
-4.740599999999997
 30
0.0
 10
6.6344500000000028
 20
-4.740599999999997
 30
0.0
 10
8.1248499999999968
 20
-5.0101999999999869
 30
0.0
 10
8.9383500000000016
 20
-5.8236999999999917
 30
0.0
 10
9.6149500000000021
 20
-6.7708999999999975
 30
0.0
 10
9.6149500000000021
 20
-6.7708999999999975
 30
0.0
 10
10.0221500000000052
 20
-7.4485999999999919
 30
0.0
 10
10.1578500000000016
 20
-8.3961000000000041
 30
0.0
 10
10.0220499999999912
 20
-9.2081999999999908
 30
0.0
 10
10.0220499999999912
 20
-9.2081999999999908
 30
0.0
 10
9.4792500000000057
 20
-8.8028999999999868
 30
0.0
 10
8.9383500000000016
 20
-8.8028999999999868
 30
0.0
 10
8.3964499999999997
 20
-8.8028999999999868
 30
0.0
 10
8.3964499999999997
 20
-8.8028999999999868
 30
0.0
 10
7.4500499999999992
 20
-8.9379999999999882
 30
0.0
 10
6.7701499999999992
 20
-8.1251999999999924
 30
0.0
 10
6.7701499999999992
 20
-7.4485999999999919
 30
0.0
 10
6.7701499999999992
 20
-7.4485999999999919
 30
0.0
 10
7.0418499999999984
 20
-7.8545999999999871
 30
0.0
 10
7.583650000000004
 20
-7.9903999999999975
 30
0.0
 10
7.9890500000000042
 20
-7.719100000000001
 30
0.0
 10
7.9890500000000042
 20
-7.719100000000001
 30
0.0
 10
8.3964499999999997
 20
-7.1779999999999866
 30
0.0
 10
8.1248499999999968
 20
-6.5005999999999986
 30
0.0
 10
7.7194499999999966
 20
-6.3647999999999882
 30
0.0
 10
7.7194499999999966
 20
-6.3647999999999882
 30
0.0
 10
6.7701499999999992
 20
-5.8235999999999954
 30
0.0
 10
5.4158499999999954
 20
-6.3647999999999882
 30
0.0
 10
5.4158499999999954
 20
-7.5832999999999906
 30
0.0
 10
5.4158499999999954
 20
-7.5832999999999906
 30
0.0
 10
5.2803500000000003
 20
-9.2081999999999908
 30
0.0
 10
6.4999499999999966
 20
-10.2923000000000009
 30
0.0
 10
8.2606499999999894
 20
-10.4266999999999932
 30
0.0
 10
8.2606499999999894
 20
-10.4266999999999932
 30
0.0
 10
9.4792500000000057
 20
-10.5625000000000036
 30
0.0
 10
11.1050499999999897
 20
-10.2923000000000009
 30
0.0
 10
12.0522499999999955
 20
-10.8330999999999911
 30
0.0
 10
12.0522499999999955
 20
-10.8330999999999911
 30
0.0
 10
12.0522499999999955
 20
-10.8330999999999911
 30
0.0
 10
12.0523499999999917
 20
-10.8330999999999911
 30
0.0
 10
12.0523499999999917
 20
-10.8330999999999911
 30
0.0
  0
SPLINE
  5
7A
100
AcDbEntity
  8
Layer 1
 62
250
420
5526612
370
-1
 48
1.0
  6
BYLAYER
100
AcDbSpline
 70
8
 71
3
 72
60
 73
56
 74
0
 40
0.0
 40
0.0
 40
0.0
 40
0.0
 40
0.0666666666666667
 40
0.0666666666666667
 40
0.0666666666666667
 40
0.0666666666666667
 40
0.1333333333333333
 40
0.1333333333333333
 40
0.1333333333333333
 40
0.1333333333333333
 40
0.2
 40
0.2
 40
0.2
 40
0.2
 40
0.2666666666666667
 40
0.2666666666666667
 40
0.2666666666666667
 40
0.2666666666666667
 40
0.3333333333333333
 40
0.3333333333333333
 40
0.3333333333333333
 40
0.3333333333333333
 40
0.4
 40
0.4
 40
0.4
 40
0.4
 40
0.4666666666666667
 40
0.4666666666666667
 40
0.4666666666666667
 40
0.4666666666666667
 40
0.5333333333333333
 40
0.5333333333333333
 40
0.5333333333333333
 40
0.5333333333333333
 40
0.6
 40
0.6
 40
0.6
 40
0.6
 40
0.6666666666666666
 40
0.6666666666666666
 40
0.6666666666666666
 40
0.6666666666666666
 40
0.7333333333333333
 40
0.7333333333333333
 40
0.7333333333333333
 40
0.7333333333333333
 40
0.8
 40
0.8
 40
0.8
 40
0.8
 40
0.8666666666666667
 40
0.8666666666666667
 40
0.8666666666666667
 40
0.8666666666666667
 40
1.0
 40
1.0
 40
1.0
 40
1.0
 10
-10.8334500000000045
 20
-12.0529999999999937
 30
0.0
 10
-7.0424500000000023
 20
-12.0529999999999937
 30
0.0
 10
-5.5523500000000059
 20
-10.4266999999999932
 30
0.0
 10
-4.3345500000000037
 20
-7.8545999999999871
 30
0.0
 10
-4.3345500000000037
 20
-7.8545999999999871
 30
0.0
 10
-4.1990499999999997
 20
-7.5832999999999906
 30
0.0
 10
-4.0622500000000006
 20
-7.313799999999997
 30
0.0
 10
-4.0622500000000006
 20
-6.9055999999999962
 30
0.0
 10
-4.0622500000000006
 20
-6.9055999999999962
 30
0.0
 10
-4.1990499999999997
 20
-6.7708999999999975
 30
0.0
 10
-4.467250000000007
 20
-6.6361000000000026
 30
0.0
 10
-4.6030499999999996
 20
-6.5005999999999986
 30
0.0
 10
-4.6030499999999996
 20
-6.5005999999999986
 30
0.0
 10
-4.6030499999999996
 20
-6.5005999999999986
 30
0.0
 10
-4.7388500000000011
 20
-6.7708999999999975
 30
0.0
 10
-4.7388500000000011
 20
-6.7708999999999975
 30
0.0
 10
-4.7388500000000011
 20
-6.7708999999999975
 30
0.0
 10
-5.0093500000000013
 20
-8.1251999999999924
 30
0.0
 10
-5.8218499999999995
 20
-8.9379999999999882
 30
0.0
 10
-6.771250000000002
 20
-9.6157000000000004
 30
0.0
 10
-6.771250000000002
 20
-9.6157000000000004
 30
0.0
 10
-7.4477500000000063
 20
-10.0216999999999956
 30
0.0
 10
-8.3968500000000024
 20
-10.2923000000000009
 30
0.0
 10
-9.07165
 20
-10.0216999999999956
 30
0.0
 10
-9.07165
 20
-10.0216999999999956
 30
0.0
 10
-8.8010500000000036
 20
-9.6157000000000004
 30
0.0
 10
-8.8011499999999998
 20
-8.9379999999999882
 30
0.0
 10
-8.8011499999999998
 20
-8.3961000000000041
 30
0.0
 10
-8.8011499999999998
 20
-8.3961000000000041
 30
0.0
 10
-8.8010500000000036
 20
-7.4485999999999919
 30
0.0
 10
-8.1251500000000032
 20
-6.7708999999999975
 30
0.0
 10
-7.4478500000000025
 20
-6.7708999999999975
 30
0.0
 10
-7.4478500000000025
 20
-6.7708999999999975
 30
0.0
 10
-7.8531500000000065
 20
-7.0425000000000004
 30
0.0
 10
-7.8531500000000065
 20
-7.719100000000001
 30
0.0
 10
-7.5815500000000036
 20
-7.9903999999999975
 30
0.0
 10
-7.5815500000000036
 20
-7.9903999999999975
 30
0.0
 10
-7.1754500000000032
 20
-8.5311999999999877
 30
0.0
 10
-6.4995500000000028
 20
-8.1251999999999924
 30
0.0
 10
-6.3637500000000014
 20
-7.8545999999999871
 30
0.0
 10
-6.3637500000000014
 20
-7.8545999999999871
 30
0.0
 10
-5.8218499999999995
 20
-6.9055999999999962
 30
0.0
 10
-6.3637500000000014
 20
-5.5513000000000012
 30
0.0
 10
-7.5815500000000036
 20
-5.4172999999999938
 30
0.0
 10
-7.5815500000000036
 20
-5.4172999999999938
 30
0.0
 10
-9.2074500000000015
 20
-5.2813999999999872
 30
0.0
 10
-10.2912500000000051
 20
-6.6361000000000026
 30
0.0
 10
-10.4263500000000064
 20
-8.3961000000000041
 30
0.0
 10
-10.4263500000000064
 20
-8.3961000000000041
 30
0.0
 10
-10.562149999999999
 20
-9.6157000000000004
 30
0.0
 10
-10.2912500000000051
 20
-11.1043999999999876
 30
0.0
 10
-10.8334500000000045
 20
-12.0529999999999937
 30
0.0
 10
-10.8334500000000045
 20
-12.0529999999999937
 30
0.0
 10
-10.8334500000000045
 20
-12.0529999999999937
 30
0.0
 10
-10.8334500000000045
 20
-12.0529999999999937
 30
0.0
 10
-10.8334500000000045
 20
-12.0529999999999937
 30
0.0
  0
SPLINE
  5
7B
100
AcDbEntity
  8
Layer 1
 62
250
420
5526612
370
-1
 48
1.0
  6
BYLAYER
100
AcDbSpline
 70
8
 71
3
 72
60
 73
56
 74
0
 40
0.0
 40
0.0
 40
0.0
 40
0.0
 40
0.0666666666666667
 40
0.0666666666666667
 40
0.0666666666666667
 40
0.0666666666666667
 40
0.1333333333333333
 40
0.1333333333333333
 40
0.1333333333333333
 40
0.1333333333333333
 40
0.2
 40
0.2
 40
0.2
 40
0.2
 40
0.2666666666666667
 40
0.2666666666666667
 40
0.2666666666666667
 40
0.2666666666666667
 40
0.3333333333333333
 40
0.3333333333333333
 40
0.3333333333333333
 40
0.3333333333333333
 40
0.4
 40
0.4
 40
0.4
 40
0.4
 40
0.4666666666666667
 40
0.4666666666666667
 40
0.4666666666666667
 40
0.4666666666666667
 40
0.5333333333333333
 40
0.5333333333333333
 40
0.5333333333333333
 40
0.5333333333333333
 40
0.6
 40
0.6
 40
0.6
 40
0.6
 40
0.6666666666666666
 40
0.6666666666666666
 40
0.6666666666666666
 40
0.6666666666666666
 40
0.7333333333333333
 40
0.7333333333333333
 40
0.7333333333333333
 40
0.7333333333333333
 40
0.8
 40
0.8
 40
0.8
 40
0.8
 40
0.8666666666666667
 40
0.8666666666666667
 40
0.8666666666666667
 40
0.8666666666666667
 40
1.0
 40
1.0
 40
1.0
 40
1.0
 10
0.813549999999994
 20
-16.1148999999999987
 30
0.0
 10
3.5214500000000015
 20
-13.5427999999999926
 30
0.0
 10
3.38565
 20
-11.240199999999998
 30
0.0
 10
2.4394500000000008
 20
-8.666999999999998
 30
0.0
 10
2.4394500000000008
 20
-8.666999999999998
 30
0.0
 10
2.4394500000000008
 20
-8.2602999999999938
 30
0.0
 10
2.1678499999999978
 20
-7.9903999999999975
 30
0.0
 10
2.03125
 20
-7.719100000000001
 30
0.0
 10
2.03125
 20
-7.719100000000001
 30
0.0
 10
1.7617499999999975
 20
-7.8545999999999871
 30
0.0
 10
1.4890500000000007
 20
-7.8545999999999871
 30
0.0
 10
1.2177499999999952
 20
-7.8545999999999871
 30
0.0
 10
1.2177499999999952
 20
-7.8545999999999871
 30
0.0
 10
1.2177499999999952
 20
-7.8545999999999871
 30
0.0
 10
1.3536499999999929
 20
-8.1251999999999924
 30
0.0
 10
1.3536499999999929
 20
-8.1251999999999924
 30
0.0
 10
1.3536499999999929
 20
-8.1251999999999924
 30
0.0
 10
2.1678499999999978
 20
-9.3440000000000012
 30
0.0
 10
2.3036499999999993
 20
-10.4266999999999932
 30
0.0
 10
2.03125
 20
-11.6458999999999868
 30
0.0
 10
2.03125
 20
-11.6458999999999868
 30
0.0
 10
1.7617499999999975
 20
-12.3242999999999903
 30
0.0
 10
1.3536499999999929
 20
-13.1345999999999918
 30
0.0
 10
0.6780499999999989
 20
-13.5427999999999926
 30
0.0
 10
0.6780499999999989
 20
-13.5427999999999926
 30
0.0
 10
0.5429499999999976
 20
-12.9998999999999931
 30
0.0
 10
0.1361499999999971
 20
-12.4579999999999913
 30
0.0
 10
-0.2695500000000006
 20
-12.1888000000000041
 30
0.0
 10
-0.2695500000000006
 20
-12.1888000000000041
 30
0.0
 10
-1.0830500000000054
 20
-11.5110999999999919
 30
0.0
 10
-0.9472500000000039
 20
-10.5625000000000036
 30
0.0
 10
-0.4053500000000021
 20
-10.0216999999999956
 30
0.0
 10
-0.4053500000000021
 20
-10.0216999999999956
 30
0.0
 10
-0.540750000000001
 20
-10.5625000000000036
 30
0.0
 10
-0.1354500000000058
 20
-10.9699999999999953
 30
0.0
 10
0.1361499999999971
 20
-11.1043999999999876
 30
0.0
 10
0.1361499999999971
 20
-11.1043999999999876
 30
0.0
 10
0.9493499999999955
 20
-11.1043999999999876
 30
0.0
 10
1.0819499999999938
 20
-10.4266999999999932
 30
0.0
 10
0.9493499999999955
 20
-10.0216999999999956
 30
0.0
 10
0.9493499999999955
 20
-10.0216999999999956
 30
0.0
 10
0.6780499999999989
 20
-8.9379999999999882
 30
0.0
 10
-0.6766499999999986
 20
-8.3961000000000041
 30
0.0
 10
-1.4901500000000034
 20
-9.2081999999999908
 30
0.0
 10
-1.4901500000000034
 20
-9.2081999999999908
 30
0.0
 10
-2.8444500000000073
 20
-10.2923000000000009
 30
0.0
 10
-2.5728500000000043
 20
-11.9172000000000011
 30
0.0
 10
-1.4901500000000034
 20
-13.2704000000000022
 30
0.0
 10
-1.4901500000000034
 20
-13.2704000000000022
 30
0.0
 10
-0.6766499999999986
 20
-14.2193999999999932
 30
0.0
 10
0.5429499999999976
 20
-15.1670000000000016
 30
0.0
 10
0.8134499999999978
 20
-16.1148999999999987
 30
0.0
 10
0.8134499999999978
 20
-16.1148999999999987
 30
0.0
 10
0.8134499999999978
 20
-16.1148999999999987
 30
0.0
 10
0.813549999999994
 20
-16.1148999999999987
 30
0.0
 10
0.813549999999994
 20
-16.1148999999999987
 30
0.0
  0
ENDBLK
  5
7C
100
AcDbEntity
  8
0
100
AcDbBlockEnd
  0
BLOCK
  5
7D
100
AcDbEntity
  8
0
100
AcDbBlockBegin
  2
\U+0431\U+043b\U+043e\U+043a 2
 70
0
 10
0.0
 20
0.0
 30
0.0
  3
\U+0431\U+043b\U+043e\U+043a 2
  1

  0
LINE
  5
7E
100
AcDbEntity
  8
0
 62
256
370
-1
 48
1.0
  6
BYLAYER
100
AcDbLine
 10
0.0
 20
0.0
 30
0.0
 11
27.0
 21
0.0
 31
0.0
  0
LINE
  5
7F
100
AcDbEntity
  8
0
 62
256
370
-1
 48
1.0
  6
BYLAYER
100
AcDbLine
 10
0.0
 20
12.0
 30
0.0
 11
27.0
 21
12.0
 31
0.0
  0
LINE
  5
80
100
AcDbEntity
  8
0
 62
256
370
-1
 48
1.0
  6
BYLAYER
100
AcDbLine
 10
0.0
 20
0.0
 30
0.0
 11
0.0
 21
12.0
 31
0.0
  0
LINE
  5
81
100
AcDbEntity
  8
0
 62
256
370
-1
 48
1.0
  6
BYLAYER
100
AcDbLine
 10
27.0
 20
0.0
 30
0.0
 11
27.0
 21
12.0
 31
0.0
  0
ENDBLK
  5
82
100
AcDbEntity
  8
0
100
AcDbBlockEnd
  0
BLOCK
  5
83
100
AcDbEntity
  8
0
100
AcDbBlockBegin
  2
\U+0431\U+043b\U+043e\U+043a 11
 70
0
 10
0.0
 20
0.0
 30
0.0
  3
\U+0431\U+043b\U+043e\U+043a 11
  1

  0
LINE
  5
84
100
AcDbEntity
  8
0
 62
256
370
-1
 48
1.0
  6
BYLAYER
100
AcDbLine
 10
0.0
 20
0.0
 30
0.0
 11
25.0
 21
0.0
 31
0.0
  0
LINE
  5
85
100
AcDbEntity
  8
0
 62
256
370
-1
 48
1.0
  6
BYLAYER
100
AcDbLine
 10
0.0
 20
-3.7000000000000002
 30
0.0
 11
25.0
 21
-3.7000000000000002
 31
0.0
  0
LINE
  5
86
100
AcDbEntity
  8
0
 62
256
370
-1
 48
1.0
  6
BYLAYER
100
AcDbLine
 10
0.0
 20
-3.7000000000000002
 30
0.0
 11
0.0
 21
0.0
 31
0.0
  0
LINE
  5
87
100
AcDbEntity
  8
0
 62
256
370
-1
 48
1.0
  6
BYLAYER
100
AcDbLine
 10
25.0
 20
-3.7000000000000002
 30
0.0
 11
25.0
 21
0.0
 31
0.0
  0
ENDBLK
  5
88
100
AcDbEntity
  8
0
100
AcDbBlockEnd
  0
BLOCK
  5
89
100
AcDbEntity
  8
0
100
AcDbBlockBegin
  2
\U+0431\U+043b\U+043e\U+043a 3
 70
0
 10
0.0
 20
0.0
 30
0.0
  3
\U+0431\U+043b\U+043e\U+043a 3
  1

  0
LINE
  5
8A
100
AcDbEntity
  8
0
 62
256
370
-1
 48
1.0
  6
BYLAYER
100
AcDbLine
 10
0.0000000000000142
 20
0.0000000000000142
 30
0.0
 11
14.0000000000000142
 21
0.0000000000000142
 31
0.0
  0
LINE
  5
8B
100
AcDbEntity
  8
0
 62
256
370
-1
 48
1.0
  6
BYLAYER
100
AcDbLine
 10
0.0000000000000284
 20
8.0000000000000284
 30
0.0
 11
14.0000000000000284
 21
8.0000000000000284
 31
0.0
  0
LINE
  5
8C
100
AcDbEntity
  8
0
 62
256
370
-1
 48
1.0
  6
BYLAYER
100
AcDbLine
 10
0.0000000000000142
 20
0.0000000000000142
 30
0.0
 11
0.0000000000000142
 21
8.0000000000000142
 31
0.0
  0
LINE
  5
8D
100
AcDbEntity
  8
0
 62
256
370
-1
 48
1.0
  6
BYLAYER
100
AcDbLine
 10
14.0000000000000284
 20
0.0000000000000284
 30
0.0
 11
14.0000000000000284
 21
8.0000000000000284
 31
0.0
  0
ENDBLK
  5
8E
100
AcDbEntity
  8
0
100
AcDbBlockEnd
  0
BLOCK
  5
8F
100
AcDbEntity
  8
0
100
AcDbBlockBegin
  2
\U+0431\U+043b\U+043e\U+043a 5
 70
0
 10
0.0
 20
0.0
 30
0.0
  3
\U+0431\U+043b\U+043e\U+043a 5
  1

  0
CIRCLE
  5
90
100
AcDbEntity
  8
0
 62
256
370
-1
 48
1.0
  6
BYLAYER
100
AcDbCircle
 10
-5.0
 20
0.0
 30
0.0
 40
1.0
  0
CIRCLE
  5
91
100
AcDbEntity
  8
0
 62
256
370
-1
 48
1.0
  6
BYLAYER
100
AcDbCircle
 10
0.0
 20
0.0
 30
0.0
 40
1.0
  0
ENDBLK
  5
92
100
AcDbEntity
  8
0
100
AcDbBlockEnd
  0
BLOCK
  5
93
100
AcDbEntity
  8
0
100
AcDbBlockBegin
  2
\U+0431\U+043b\U+043e\U+043a 4
 70
0
 10
0.0
 20
0.0
 30
0.0
  3
\U+0431\U+043b\U+043e\U+043a 4
  1

  0
CIRCLE
  5
94
100
AcDbEntity
  8
0
 62
256
370
-1
 48
1.0
  6
BYLAYER
100
AcDbCircle
 10
0.0
 20
0.0
 30
0.0
 40
1.0
  0
CIRCLE
  5
95
100
AcDbEntity
  8
0
 62
256
370
-1
 48
1.0
  6
BYLAYER
100
AcDbCircle
 10
5.0
 20
0.0
 30
0.0
 40
1.0
  0
ENDBLK
  5
96
100
AcDbEntity
  8
0
100
AcDbBlockEnd
  0
BLOCK
  5
97
100
AcDbEntity
  8
0
100
AcDbBlockBegin
  2
\U+0431\U+043b\U+043e\U+043a 16
 70
0
 10
0.0
 20
0.0
 30
0.0
  3
\U+0431\U+043b\U+043e\U+043a 16
  1

  0
LINE
  5
98
100
AcDbEntity
  8
0
 62
256
370
-1
 48
1.0
  6
BYLAYER
100
AcDbLine
 10
0.0
 20
-60.0
 30
0.0
 11
63.6999999999999957
 21
-60.0
 31
0.0
  0
LINE
  5
99
100
AcDbEntity
  8
0
 62
256
370
-1
 48
1.0
  6
BYLAYER
100
AcDbLine
 10
63.6999999999999957
 20
-60.0
 30
0.0
 11
63.6999999999999957
 21
0.0
 31
0.0
  0
LINE
  5
9A
100
AcDbEntity
  8
0
 62
256
370
-1
 48
1.0
  6
BYLAYER
100
AcDbLine
 10
63.6999999999999957
 20
0.0
 30
0.0
 11
0.0
 21
0.0
 31
0.0
  0
LINE
  5
9B
100
AcDbEntity
  8
0
 62
256
370
-1
 48
1.0
  6
BYLAYER
100
AcDbLine
 10
0.0
 20
0.0
 30
0.0
 11
0.0
 21
-60.0
 31
0.0
  0
ENDBLK
  5
9C
100
AcDbEntity
  8
0
100
AcDbBlockEnd
  0
BLOCK
  5
9D
100
AcDbEntity
  8
0
100
AcDbBlockBegin
  2
\U+0431\U+043b\U+043e\U+043a 10
 70
0
 10
0.0
 20
0.0
 30
0.0
  3
\U+0431\U+043b\U+043e\U+043a 10
  1

  0
CIRCLE
  5
9E
100
AcDbEntity
  8
0
 62
256
370
-1
 48
1.0
  6
BYLAYER
100
AcDbCircle
 10
0.0
 20
0.0
 30
0.0
 40
1.0
  0
CIRCLE
  5
9F
100
AcDbEntity
  8
0
 62
256
370
-1
 48
1.0
  6
BYLAYER
100
AcDbCircle
 10
0.0
 20
-6.0
 30
0.0
 40
1.0
  0
ENDBLK
  5
A0
100
AcDbEntity
  8
0
100
AcDbBlockEnd
  0
BLOCK
  5
A1
100
AcDbEntity
  8
0
100
AcDbBlockBegin
  2
\U+0431\U+043b\U+043e\U+043a 6
 70
0
 10
0.0
 20
0.0
 30
0.0
  3
\U+0431\U+043b\U+043e\U+043a 6
  1

  0
LINE
  5
A2
100
AcDbEntity
  8
0
 62
256
370
-1
 48
1.0
  6
BYLAYER
100
AcDbLine
 10
0.0
 20
-40.0
 30
0.0
 11
0.0
 21
0.0
 31
0.0
  0
LINE
  5
A3
100
AcDbEntity
  8
0
 62
256
370
-1
 48
1.0
  6
BYLAYER
100
AcDbLine
 10
3.0
 20
-40.0
 30
0.0
 11
3.0
 21
0.0
 31
0.0
  0
LINE
  5
A4
100
AcDbEntity
  8
0
 62
256
370
-1
 48
1.0
  6
BYLAYER
100
AcDbLine
 10
0.0
 20
0.0
 30
0.0
 11
3.0
 21
0.0
 31
0.0
  0
LINE
  5
A5
100
AcDbEntity
  8
0
 62
256
370
-1
 48
1.0
  6
BYLAYER
100
AcDbLine
 10
0.0
 20
-40.0
 30
0.0
 11
3.0
 21
-40.0
 31
0.0
  0
ENDBLK
  5
A6
100
AcDbEntity
  8
0
100
AcDbBlockEnd
  0
BLOCK
  5
A7
100
AcDbEntity
  8
0
100
AcDbBlockBegin
  2
\U+0431\U+043b\U+043e\U+043a 15
 70
0
 10
0.0
 20
0.0
 30
0.0
  3
\U+0431\U+043b\U+043e\U+043a 15
  1

  0
CIRCLE
  5
A8
100
AcDbEntity
  8
0
 62
256
370
-1
 48
1.0
  6
BYLAYER
100
AcDbCircle
 10
0.0
 20
0.0
 30
0.0
 40
1.5
  0
CIRCLE
  5
A9
100
AcDbEntity
  8
0
 62
256
370
-1
 48
1.0
  6
BYLAYER
100
AcDbCircle
 10
0.0
 20
-49.5299999999999869
 30
0.0
 40
1.5
  0
ENDBLK
  5
AA
100
AcDbEntity
  8
0
100
AcDbBlockEnd
  0
BLOCK
  5
AB
100
AcDbEntity
  8
0
100
AcDbBlockBegin
  2
\U+0431\U+043b\U+043e\U+043a 13
 70
0
 10
0.0
 20
0.0
 30
0.0
  3
\U+0431\U+043b\U+043e\U+043a 13
  1

  0
LINE
  5
AC
100
AcDbEntity
  8
0
 62
256
370
-1
 48
1.0
  6
BYLAYER
100
AcDbLine
 10
45.0000000000000071
 20
0.0
 30
0.0
 11
70.0
 21
0.0
 31
0.0
  0
LINE
  5
AD
100
AcDbEntity
  8
0
 62
256
370
-1
 48
1.0
  6
BYLAYER
100
AcDbLine
 10
0.0000000000000036
 20
0.0
 30
0.0
 11
25.0000000000000071
 21
0.0
 31
0.0
  0
LINE
  5
AE
100
AcDbEntity
  8
0
 62
256
370
-1
 48
1.0
  6
BYLAYER
100
AcDbLine
 10
0.0000000000000036
 20
-3.7000000000000028
 30
0.0
 11
0.0000000000000036
 21
0.0
 31
0.0
  0
LINE
  5
AF
100
AcDbEntity
  8
0
 62
256
370
-1
 48
1.0
  6
BYLAYER
100
AcDbLine
 10
25.0000000000000071
 20
-3.7000000000000028
 30
0.0
 11
25.0000000000000071
 21
0.0
 31
0.0
  0
LINE
  5
B0
100
AcDbEntity
  8
0
 62
256
370
-1
 48
1.0
  6
BYLAYER
100
AcDbLine
 10
45.0000000000000071
 20
-3.7000000000000028
 30
0.0
 11
45.0000000000000071
 21
0.0
 31
0.0
  0
LINE
  5
B1
100
AcDbEntity
  8
0
 62
256
370
-1
 48
1.0
  6
BYLAYER
100
AcDbLine
 10
70.0
 20
-3.7000000000000028
 30
0.0
 11
70.0
 21
0.0
 31
0.0
  0
LINE
  5
B2
100
AcDbEntity
  8
0
 62
256
370
-1
 48
1.0
  6
BYLAYER
100
AcDbLine
 10
0.0000000000000036
 20
-3.7000000000000028
 30
0.0
 11
25.0000000000000071
 21
-3.7000000000000028
 31
0.0
  0
LINE
  5
B3
100
AcDbEntity
  8
0
 62
256
370
-1
 48
1.0
  6
BYLAYER
100
AcDbLine
 10
45.0000000000000071
 20
-3.7000000000000028
 30
0.0
 11
70.0
 21
-3.7000000000000028
 31
0.0
  0
ENDBLK
  5
B4
100
AcDbEntity
  8
0
100
AcDbBlockEnd
  0
BLOCK
  5
B5
100
AcDbEntity
  8
0
100
AcDbBlockBegin
  2
\U+0431\U+043b\U+043e\U+043a 12
 70
0
 10
0.0
 20
0.0
 30
0.0
  3
\U+0431\U+043b\U+043e\U+043a 12
  1

  0
LINE
  5
B6
100
AcDbEntity
  8
0
 62
256
370
-1
 48
1.0
  6
BYLAYER
100
AcDbLine
 10
0.0
 20
0.0
 30
0.0
 11
25.0
 21
0.0
 31
0.0
  0
LINE
  5
B7
100
AcDbEntity
  8
0
 62
256
370
-1
 48
1.0
  6
BYLAYER
100
AcDbLine
 10
0.0
 20
-3.7000000000000002
 30
0.0
 11
25.0
 21
-3.7000000000000002
 31
0.0
  0
LINE
  5
B8
100
AcDbEntity
  8
0
 62
256
370
-1
 48
1.0
  6
BYLAYER
100
AcDbLine
 10
0.0
 20
-3.7000000000000002
 30
0.0
 11
0.0
 21
0.0
 31
0.0
  0
LINE
  5
B9
100
AcDbEntity
  8
0
 62
256
370
-1
 48
1.0
  6
BYLAYER
100
AcDbLine
 10
25.0
 20
-3.7000000000000002
 30
0.0
 11
25.0
 21
0.0
 31
0.0
  0
ENDBLK
  5
BA
100
AcDbEntity
  8
0
100
AcDbBlockEnd
  0
BLOCK
  5
BB
100
AcDbEntity
  8
0
100
AcDbBlockBegin
  2
\U+0431\U+043b\U+043e\U+043a 14
 70
0
 10
0.0
 20
0.0
 30
0.0
  3
\U+0431\U+043b\U+043e\U+043a 14
  1

  0
LINE
  5
BC
100
AcDbEntity
  8
0
 62
256
370
-1
 48
1.0
  6
BYLAYER
100
AcDbLine
 10
0.0
 20
-3.6999999999999886
 30
0.0
 11
15.0
 21
-3.6999999999999886
 31
0.0
  0
LINE
  5
BD
100
AcDbEntity
  8
0
 62
256
370
-1
 48
1.0
  6
BYLAYER
100
AcDbLine
 10
15.0
 20
-3.6999999999999886
 30
0.0
 11
15.0
 21
0.0
 31
0.0
  0
LINE
  5
BE
100
AcDbEntity
  8
0
 62
256
370
-1
 48
1.0
  6
BYLAYER
100
AcDbLine
 10
15.0
 20
0.0
 30
0.0
 11
0.0
 21
0.0
 31
0.0
  0
LINE
  5
BF
100
AcDbEntity
  8
0
 62
256
370
-1
 48
1.0
  6
BYLAYER
100
AcDbLine
 10
0.0
 20
0.0
 30
0.0
 11
0.0
 21
-3.6999999999999886
 31
0.0
  0
ENDBLK
  5
C0
100
AcDbEntity
  8
0
100
AcDbBlockEnd
  0
BLOCK
  5
C1
100
AcDbEntity
  8
0
100
AcDbBlockBegin
  2
\U+0431\U+043b\U+043e\U+043a 7
 70
0
 10
0.0
 20
0.0
 30
0.0
  3
\U+0431\U+043b\U+043e\U+043a 7
  1

  0
INSERT
  5
C2
100
AcDbEntity
  8
0
 62
256
370
-1
 48
1.0
  6
BYLAYER
100
AcDbBlockReference
  2
\U+0431\U+043b\U+043e\U+043a 6
 10
0.0
 20
0.0
 30
0.0
  0
INSERT
  5
C3
100
AcDbEntity
  8
0
 62
256
370
-1
 48
1.0
  6
BYLAYER
100
AcDbBlockReference
  2
\U+0431\U+043b\U+043e\U+043a 6
 10
8.0
 20
0.0
 30
0.0
  0
ENDBLK
  5
C4
100
AcDbEntity
  8
0
100
AcDbBlockEnd
  0
BLOCK
  5
C5
100
AcDbEntity
  8
0
100
AcDbBlockBegin
  2
\U+0431\U+043b\U+043e\U+043a 1
 70
0
 10
0.0
 20
0.0
 30
0.0
  3
\U+0431\U+043b\U+043e\U+043a 1
  1

  0
LINE
  5
C6
100
AcDbEntity
  8
0
 62
256
370
-1
 48
1.0
  6
BYLAYER
100
AcDbLine
 10
0.0
 20
-4.0
 30
0.0
 11
0.0
 21
0.0
 31
0.0
  0
LINE
  5
C7
100
AcDbEntity
  8
0
 62
256
370
-1
 48
1.0
  6
BYLAYER
100
AcDbLine
 10
0.0
 20
0.0
 30
0.0
 11
25.0
 21
0.0
 31
0.0
  0
LINE
  5
C8
100
AcDbEntity
  8
0
 62
256
370
-1
 48
1.0
  6
BYLAYER
100
AcDbLine
 10
0.0
 20
-4.0
 30
0.0
 11
25.0
 21
-4.0
 31
0.0
  0
LINE
  5
C9
100
AcDbEntity
  8
0
 62
256
370
-1
 48
1.0
  6
BYLAYER
100
AcDbLine
 10
25.0
 20
-4.0
 30
0.0
 11
25.0
 21
0.0
 31
0.0
  0
ENDBLK
  5
CA
100
AcDbEntity
  8
0
100
AcDbBlockEnd
  0
BLOCK
  5
CB
100
AcDbEntity
  8
0
100
AcDbBlockBegin
  2
\U+0431\U+043b\U+043e\U+043a 9
 70
0
 10
0.0
 20
0.0
 30
0.0
  3
\U+0431\U+043b\U+043e\U+043a 9
  1

  0
CIRCLE
  5
CC
100
AcDbEntity
  8
0
 62
256
370
-1
 48
1.0
  6
BYLAYER
100
AcDbCircle
 10
0.0
 20
0.0
 30
0.0
 40
1.5
  0
CIRCLE
  5
CD
100
AcDbEntity
  8
0
 62
256
370
-1
 48
1.0
  6
BYLAYER
100
AcDbCircle
 10
0.0
 20
-44.8400000000000034
 30
0.0
 40
1.5
  0
CIRCLE
  5
CE
100
AcDbEntity
  8
0
 62
256
370
-1
 48
1.0
  6
BYLAYER
100
AcDbCircle
 10
89.8400000000000034
 20
0.0
 30
0.0
 40
1.5
  0
CIRCLE
  5
CF
100
AcDbEntity
  8
0
 62
256
370
-1
 48
1.0
  6
BYLAYER
100
AcDbCircle
 10
89.8400000000000034
 20
-44.8400000000000034
 30
0.0
 40
1.5
  0
ENDBLK
  5
D0
100
AcDbEntity
  8
0
100
AcDbBlockEnd
  0
BLOCK
  5
D1
100
AcDbEntity
  8
0
100
AcDbBlockBegin
  2
\U+0431\U+043b\U+043e\U+043a 8
 70
0
 10
0.0
 20
0.0
 30
0.0
  3
\U+0431\U+043b\U+043e\U+043a 8
  1

  0
INSERT
  5
D2
100
AcDbEntity
  8
0
 62
256
370
-1
 48
1.0
  6
BYLAYER
100
AcDbBlockReference
  2
\U+0431\U+043b\U+043e\U+043a 6
 10
24.0
 20
0.0
 30
0.0
  0
INSERT
  5
D3
100
AcDbEntity
  8
0
 62
256
370
-1
 48
1.0
  6
BYLAYER
100
AcDbBlockReference
  2
\U+0431\U+043b\U+043e\U+043a 6
 10
16.0
 20
0.0
 30
0.0
  0
INSERT
  5
D4
100
AcDbEntity
  8
0
 62
256
370
-1
 48
1.0
  6
BYLAYER
100
AcDbBlockReference
  2
\U+0431\U+043b\U+043e\U+043a 6
 10
32.0
 20
0.0
 30
0.0
  0
INSERT
  5
D5
100
AcDbEntity
  8
0
 62
256
370
-1
 48
1.0
  6
BYLAYER
100
AcDbBlockReference
  2
\U+0431\U+043b\U+043e\U+043a 6
 10
40.0
 20
0.0
 30
0.0
  0
INSERT
  5
D6
100
AcDbEntity
  8
0
 62
256
370
-1
 48
1.0
  6
BYLAYER
100
AcDbBlockReference
  2
\U+0431\U+043b\U+043e\U+043a 6
 10
48.0
 20
0.0
 30
0.0
  0
INSERT
  5
D7
100
AcDbEntity
  8
0
 62
256
370
-1
 48
1.0
  6
BYLAYER
100
AcDbBlockReference
  2
\U+0431\U+043b\U+043e\U+043a 6
 10
56.0
 20
0.0
 30
0.0
  0
INSERT
  5
D8
100
AcDbEntity
  8
0
 62
256
370
-1
 48
1.0
  6
BYLAYER
100
AcDbBlockReference
  2
\U+0431\U+043b\U+043e\U+043a 6
 10
64.0
 20
0.0
 30
0.0
  0
INSERT
  5
D9
100
AcDbEntity
  8
0
 62
256
370
-1
 48
1.0
  6
BYLAYER
100
AcDbBlockReference
  2
\U+0431\U+043b\U+043e\U+043a 6
 10
72.0
 20
0.0
 30
0.0
  0
INSERT
  5
DA
100
AcDbEntity
  8
0
 62
256
370
-1
 48
1.0
  6
BYLAYER
100
AcDbBlockReference
  2
\U+0431\U+043b\U+043e\U+043a 6
 10
79.9999999999999716
 20
0.0
 30
0.0
  0
INSERT
  5
DB
100
AcDbEntity
  8
0
 62
256
370
-1
 48
1.0
  6
BYLAYER
100
AcDbBlockReference
  2
\U+0431\U+043b\U+043e\U+043a 6
 10
88.0
 20
0.0
 30
0.0
  0
INSERT
  5
DC
100
AcDbEntity
  8
0
 62
256
370
-1
 48
1.0
  6
BYLAYER
100
AcDbBlockReference
  2
\U+0431\U+043b\U+043e\U+043a 7
 10
0.0
 20
0.0
 30
0.0
  0
ENDBLK
  5
DD
100
AcDbEntity
  8
0
100
AcDbBlockEnd
  0
ENDSEC
  0
SECTION
  2
ENTITIES
  0
LINE
  5
DE
100
AcDbEntity
  8
0
 62
256
370
-1
 48
1.0
  6
BYLAYER
100
AcDbLine
 10
40.0
 20
30.0
 30
0.0
 11
50.0
 21
30.0
 31
0.0
  0
LINE
  5
DF
100
AcDbEntity
  8
0
 62
256
370
-1
 48
1.0
  6
BYLAYER
100
AcDbLine
 10
50.0
 20
30.0
 30
0.0
 11
50.0
 21
33.7000000000000028
 31
0.0
  0
LINE
  5
E0
100
AcDbEntity
  8
0
 62
256
370
-1
 48
1.0
  6
BYLAYER
100
AcDbLine
 10
50.0
 20
33.7000000000000028
 30
0.0
 11
65.0
 21
33.7000000000000028
 31
0.0
  0
LINE
  5
E1
100
AcDbEntity
  8
0
 62
256
370
-1
 48
1.0
  6
BYLAYER
100
AcDbLine
 10
65.0
 20
30.0
 30
0.0
 11
65.0
 21
33.7000000000000028
 31
0.0
  0
LINE
  5
E2
100
AcDbEntity
  8
0
 62
256
370
-1
 48
1.0
  6
BYLAYER
100
AcDbLine
 10
65.0
 20
30.0
 30
0.0
 11
75.0
 21
30.0
 31
0.0
  0
LINE
  5
E3
100
AcDbEntity
  8
0
 62
256
370
-1
 48
1.0
  6
BYLAYER
100
AcDbLine
 10
74.9999999999999716
 20
30.0
 30
0.0
 11
74.9999999999999716
 21
33.7000000000000028
 31
0.0
  0
LINE
  5
E4
100
AcDbEntity
  8
0
 62
256
370
-1
 48
1.0
  6
BYLAYER
100
AcDbLine
 10
74.9999999999999716
 20
33.7000000000000028
 30
0.0
 11
89.9999999999999716
 21
33.7000000000000028
 31
0.0
  0
LINE
  5
E5
100
AcDbEntity
  8
0
 62
256
370
-1
 48
1.0
  6
BYLAYER
100
AcDbLine
 10
89.9999999999999716
 20
30.0
 30
0.0
 11
89.9999999999999716
 21
33.7000000000000028
 31
0.0
  0
LINE
  5
E6
100
AcDbEntity
  8
0
 62
256
370
-1
 48
1.0
  6
BYLAYER
100
AcDbLine
 10
89.9999999999999716
 20
30.0
 30
0.0
 11
99.9999999999999716
 21
30.0
 31
0.0
  0
LINE
  5
E7
100
AcDbEntity
  8
0
 62
256
370
-1
 48
1.0
  6
BYLAYER
100
AcDbLine
 10
40.0
 20
-29.9999999999999716
 30
0.0
 11
40.0
 21
-19.9999999999999716
 31
0.0
  0
LINE
  5
E8
100
AcDbEntity
  8
0
 62
256
370
-1
 48
1.0
  6
BYLAYER
100
AcDbLine
 10
40.0
 20
-19.9999999999999716
 30
0.0
 11
36.3000000000000114
 21
-19.9999999999999716
 31
0.0
  0
LINE
  5
E9
100
AcDbEntity
  8
0
 62
256
370
-1
 48
1.0
  6
BYLAYER
100
AcDbLine
 10
36.3000000000000114
 20
-19.9999999999999716
 30
0.0
 11
36.3000000000000114
 21
-4.9999999999999716
 31
0.0
  0
LINE
  5
EA
100
AcDbEntity
  8
0
 62
256
370
-1
 48
1.0
  6
BYLAYER
100
AcDbLine
 10
40.0
 20
-4.9999999999999716
 30
0.0
 11
36.3000000000000114
 21
-4.9999999999999716
 31
0.0
  0
LINE
  5
EB
100
AcDbEntity
  8
0
 62
256
370
-1
 48
1.0
  6
BYLAYER
100
AcDbLine
 10
40.0
 20
-4.9999999999999716
 30
0.0
 11
40.0
 21
5.0000000000000284
 31
0.0
  0
LINE
  5
EC
100
AcDbEntity
  8
0
 62
256
370
-1
 48
1.0
  6
BYLAYER
100
AcDbLine
 10
40.0
 20
5.0
 30
0.0
 11
36.3000000000000682
 21
5.0
 31
0.0
  0
LINE
  5
ED
100
AcDbEntity
  8
0
 62
256
370
-1
 48
1.0
  6
BYLAYER
100
AcDbLine
 10
36.3000000000000682
 20
5.0
 30
0.0
 11
36.3000000000000114
 21
20.0
 31
0.0
  0
LINE
  5
EE
100
AcDbEntity
  8
0
 62
256
370
-1
 48
1.0
  6
BYLAYER
100
AcDbLine
 10
40.0
 20
20.0
 30
0.0
 11
36.3000000000000114
 21
20.0
 31
0.0
  0
LINE
  5
EF
100
AcDbEntity
  8
0
 62
256
370
-1
 48
1.0
  6
BYLAYER
100
AcDbLine
 10
40.0
 20
20.0
 30
0.0
 11
40.0
 21
30.0
 31
0.0
  0
LINE
  5
F0
100
AcDbEntity
  8
0
 62
256
370
-1
 48
1.0
  6
BYLAYER
100
AcDbLine
 10
100.0000000000000284
 20
-29.9999999999999716
 30
0.0
 11
100.0
 21
-19.9999999999999716
 31
0.0
  0
LINE
  5
F1
100
AcDbEntity
  8
0
 62
256
370
-1
 48
1.0
  6
BYLAYER
100
AcDbLine
 10
100.0
 20
-19.9999999999999716
 30
0.0
 11
103.6999999999999886
 21
-19.9999999999999716
 31
0.0
  0
LINE
  5
F2
100
AcDbEntity
  8
0
 62
256
370
-1
 48
1.0
  6
BYLAYER
100
AcDbLine
 10
103.6999999999999886
 20
-19.9999999999999716
 30
0.0
 11
103.6999999999999886
 21
-4.9999999999999716
 31
0.0
  0
LINE
  5
F3
100
AcDbEntity
  8
0
 62
256
370
-1
 48
1.0
  6
BYLAYER
100
AcDbLine
 10
100.0
 20
-4.9999999999999716
 30
0.0
 11
103.6999999999999886
 21
-4.9999999999999716
 31
0.0
  0
LINE
  5
F4
100
AcDbEntity
  8
0
 62
256
370
-1
 48
1.0
  6
BYLAYER
100
AcDbLine
 10
100.0
 20
-4.9999999999999716
 30
0.0
 11
100.0
 21
5.0000000000000284
 31
0.0
  0
LINE
  5
F5
100
AcDbEntity
  8
0
 62
256
370
-1
 48
1.0
  6
BYLAYER
100
AcDbLine
 10
100.0
 20
5.0
 30
0.0
 11
103.6999999999999318
 21
5.0
 31
0.0
  0
LINE
  5
F6
100
AcDbEntity
  8
0
 62
256
370
-1
 48
1.0
  6
BYLAYER
100
AcDbLine
 10
103.6999999999999318
 20
5.0
 30
0.0
 11
103.6999999999999886
 21
20.0
 31
0.0
  0
LINE
  5
F7
100
AcDbEntity
  8
0
 62
256
370
-1
 48
1.0
  6
BYLAYER
100
AcDbLine
 10
100.0
 20
20.0
 30
0.0
 11
103.6999999999999886
 21
20.0
 31
0.0
  0
LINE
  5
F8
100
AcDbEntity
  8
0
 62
256
370
-1
 48
1.0
  6
BYLAYER
100
AcDbLine
 10
100.0
 20
20.0
 30
0.0
 11
100.0
 21
30.0
 31
0.0
  0
LINE
  5
F9
100
AcDbEntity
  8
0
 62
256
370
-1
 48
1.0
  6
BYLAYER
100
AcDbLine
 10
40.0
 20
-30.0
 30
0.0
 11
50.0
 21
-30.0000000000000284
 31
0.0
  0
LINE
  5
FA
100
AcDbEntity
  8
0
 62
256
370
-1
 48
1.0
  6
BYLAYER
100
AcDbLine
 10
50.0
 20
-30.0000000000000284
 30
0.0
 11
50.0
 21
-33.7000000000000171
 31
0.0
  0
LINE
  5
FB
100
AcDbEntity
  8
0
 62
256
370
-1
 48
1.0
  6
BYLAYER
100
AcDbLine
 10
50.0
 20
-33.7000000000000171
 30
0.0
 11
65.0
 21
-33.7000000000000171
 31
0.0
  0
LINE
  5
FC
100
AcDbEntity
  8
0
 62
256
370
-1
 48
1.0
  6
BYLAYER
100
AcDbLine
 10
65.0
 20
-30.0
 30
0.0
 11
65.0
 21
-33.7000000000000171
 31
0.0
  0
LINE
  5
FD
100
AcDbEntity
  8
0
 62
256
370
-1
 48
1.0
  6
BYLAYER
100
AcDbLine
 10
65.0
 20
-30.0
 30
0.0
 11
75.0
 21
-30.0
 31
0.0
  0
LINE
  5
FE
100
AcDbEntity
  8
0
 62
256
370
-1
 48
1.0
  6
BYLAYER
100
AcDbLine
 10
74.9999999999999716
 20
-30.0
 30
0.0
 11
74.9999999999999716
 21
-33.7000000000000171
 31
0.0
  0
LINE
  5
FF
100
AcDbEntity
  8
0
 62
256
370
-1
 48
1.0
  6
BYLAYER
100
AcDbLine
 10
74.9999999999999716
 20
-33.7000000000000171
 30
0.0
 11
89.9999999999999716
 21
-33.7000000000000171
 31
0.0
  0
LINE
  5
100
100
AcDbEntity
  8
0
 62
256
370
-1
 48
1.0
  6
BYLAYER
100
AcDbLine
 10
89.9999999999999716
 20
-30.0000000000000284
 30
0.0
 11
89.9999999999999716
 21
-33.7000000000000171
 31
0.0
  0
LINE
  5
101
100
AcDbEntity
  8
0
 62
256
370
-1
 48
1.0
  6
BYLAYER
100
AcDbLine
 10
89.9999999999999716
 20
-30.0000000000000284
 30
0.0
 11
99.9999999999999716
 21
-29.9999999999999716
 31
0.0
  0
LINE
  5
102
100
AcDbEntity
  8
0
 62
256
370
-1
 48
1.0
  6
BYLAYER
100
AcDbLine
 10
38.9278571428571638
 20
-35.8873809523809513
 30
0.0
 11
48.9278571428571638
 21
-35.8873809523809797
 31
0.0
  0
LINE
  5
103
100
AcDbEntity
  8
0
 62
256
370
-1
 48
1.0
  6
BYLAYER
100
AcDbLine
 10
48.9278571428571638
 20
-35.8873809523809797
 30
0.0
 11
48.9278571428571638
 21
-39.5873809523809683
 31
0.0
  0
LINE
  5
104
100
AcDbEntity
  8
0
 62
256
370
-1
 48
1.0
  6
BYLAYER
100
AcDbLine
 10
48.9278571428571638
 20
-39.5873809523809683
 30
0.0
 11
63.9278571428571638
 21
-39.5873809523809683
 31
0.0
  0
LINE
  5
105
100
AcDbEntity
  8
0
 62
256
370
-1
 48
1.0
  6
BYLAYER
100
AcDbLine
 10
63.9278571428571638
 20
-35.8873809523809513
 30
0.0
 11
63.9278571428571638
 21
-39.5873809523809683
 31
0.0
  0
LINE
  5
106
100
AcDbEntity
  8
0
 62
256
370
-1
 48
1.0
  6
BYLAYER
100
AcDbLine
 10
63.9278571428571638
 20
-35.8873809523809513
 30
0.0
 11
73.9278571428571638
 21
-35.8873809523809513
 31
0.0
  0
LINE
  5
107
100
AcDbEntity
  8
0
 62
256
370
-1
 48
1.0
  6
BYLAYER
100
AcDbLine
 10
73.9278571428571354
 20
-35.8873809523809513
 30
0.0
 11
73.9278571428571354
 21
-39.5873809523809683
 31
0.0
  0
LINE
  5
108
100
AcDbEntity
  8
0
 62
256
370
-1
 48
1.0
  6
BYLAYER
100
AcDbLine
 10
73.9278571428571354
 20
-39.5873809523809683
 30
0.0
 11
88.9278571428571354
 21
-39.5873809523809683
 31
0.0
  0
LINE
  5
109
100
AcDbEntity
  8
0
 62
256
370
-1
 48
1.0
  6
BYLAYER
100
AcDbLine
 10
88.9278571428571354
 20
-35.8873809523809797
 30
0.0
 11
88.9278571428571354
 21
-39.5873809523809683
 31
0.0
  0
LINE
  5
10A
100
AcDbEntity
  8
0
 62
256
370
-1
 48
1.0
  6
BYLAYER
100
AcDbLine
 10
88.9278571428571354
 20
-35.8873809523809797
 30
0.0
 11
98.9278571428571354
 21
-35.8873809523809228
 31
0.0
  0
LINE
  5
10B
100
AcDbEntity
  8
0
 62
256
370
-1
 48
1.0
  6
BYLAYER
100
AcDbLine
 10
98.9278571428571354
 20
-62.0873809523809115
 30
0.0
 11
102.6278571428570672
 21
-62.0873809523809115
 31
0.0
  0
LINE
  5
10C
100
AcDbEntity
  8
0
 62
256
370
-1
 48
1.0
  6
BYLAYER
100
AcDbLine
 10
102.6278571428570672
 20
-62.0873809523809115
 30
0.0
 11
102.627857142857124
 21
-47.0873809523809115
 31
0.0
  0
LINE
  5
10D
100
AcDbEntity
  8
0
 62
256
370
-1
 48
1.0
  6
BYLAYER
100
AcDbLine
 10
98.9278571428571354
 20
-47.0873809523809115
 30
0.0
 11
102.627857142857124
 21
-47.0873809523809115
 31
0.0
  0
LINE
  5
10E
100
AcDbEntity
  8
0
 62
256
370
-1
 48
1.0
  6
BYLAYER
100
AcDbLine
 10
38.927857142857107
 20
-73.2873809523809001
 30
0.0
 11
48.927857142857107
 21
-73.2873809523809001
 31
0.0
  0
LINE
  5
10F
100
AcDbEntity
  8
0
 62
256
370
-1
 48
1.0
  6
BYLAYER
100
AcDbLine
 10
48.927857142857107
 20
-73.2873809523809001
 30
0.0
 11
48.927857142857107
 21
-69.5873809523808831
 31
0.0
  0
LINE
  5
110
100
AcDbEntity
  8
0
 62
256
370
-1
 48
1.0
  6
BYLAYER
100
AcDbLine
 10
48.927857142857107
 20
-69.5873809523808831
 30
0.0
 11
63.927857142857107
 21
-69.5873809523808831
 31
0.0
  0
LINE
  5
111
100
AcDbEntity
  8
0
 62
256
370
-1
 48
1.0
  6
BYLAYER
100
AcDbLine
 10
63.927857142857107
 20
-73.2873809523809001
 30
0.0
 11
63.927857142857107
 21
-69.5873809523808831
 31
0.0
  0
LINE
  5
112
100
AcDbEntity
  8
0
 62
256
370
-1
 48
1.0
  6
BYLAYER
100
AcDbLine
 10
63.927857142857107
 20
-73.2873809523809001
 30
0.0
 11
73.927857142857107
 21
-73.2873809523809001
 31
0.0
  0
LINE
  5
113
100
AcDbEntity
  8
0
 62
256
370
-1
 48
1.0
  6
BYLAYER
100
AcDbLine
 10
73.9278571428570785
 20
-73.2873809523809001
 30
0.0
 11
73.9278571428570785
 21
-69.5873809523808831
 31
0.0
  0
LINE
  5
114
100
AcDbEntity
  8
0
 62
256
370
-1
 48
1.0
  6
BYLAYER
100
AcDbLine
 10
73.9278571428570785
 20
-69.5873809523808831
 30
0.0
 11
88.9278571428570785
 21
-69.5873809523808831
 31
0.0
  0
LINE
  5
115
100
AcDbEntity
  8
0
 62
256
370
-1
 48
1.0
  6
BYLAYER
100
AcDbLine
 10
88.9278571428570785
 20
-73.2873809523809001
 30
0.0
 11
88.9278571428570785
 21
-69.5873809523808831
 31
0.0
  0
LINE
  5
116
100
AcDbEntity
  8
0
 62
256
370
-1
 48
1.0
  6
BYLAYER
100
AcDbLine
 10
88.9278571428570785
 20
-73.2873809523809001
 30
0.0
 11
98.9278571428570785
 21
-73.2873809523809001
 31
0.0
  0
LINE
  5
117
100
AcDbEntity
  8
0
 62
256
370
-1
 48
1.0
  6
BYLAYER
100
AcDbLine
 10
38.9278571428571638
 20
-62.0873809523809115
 30
0.0
 11
35.227857142857232
 21
-62.0873809523809115
 31
0.0
  0
LINE
  5
118
100
AcDbEntity
  8
0
 62
256
370
-1
 48
1.0
  6
BYLAYER
100
AcDbLine
 10
35.227857142857232
 20
-62.0873809523809115
 30
0.0
 11
35.2278571428571752
 21
-47.0873809523809115
 31
0.0
  0
LINE
  5
119
100
AcDbEntity
  8
0
 62
256
370
-1
 48
1.0
  6
BYLAYER
100
AcDbLine
 10
38.9278571428571638
 20
-47.0873809523809115
 30
0.0
 11
35.2278571428571752
 21
-47.0873809523809115
 31
0.0
  0
LINE
  5
11A
100
AcDbEntity
  8
0
 62
256
370
-1
 48
1.0
  6
BYLAYER
100
AcDbLine
 10
173.6028155339806744
 20
-43.3149514563106663
 30
0.0
 11
159.9028155339806574
 21
-43.3149514563106663
 31
0.0
  0
LINE
  5
11B
100
AcDbEntity
  8
0
 62
256
370
-1
 48
1.0
  6
BYLAYER
100
AcDbLine
 10
159.902815533980629
 20
-43.3149514563106663
 30
0.0
 11
159.902815533980629
 21
-39.6149514563106777
 31
0.0
  0
LINE
  5
11C
100
AcDbEntity
  8
0
 62
256
370
-1
 48
1.0
  6
BYLAYER
100
AcDbLine
 10
159.902815533980629
 20
-39.6149514563106777
 30
0.0
 11
144.902815533980629
 21
-39.6149514563106777
 31
0.0
  0
LINE
  5
11D
100
AcDbEntity
  8
0
 62
256
370
-1
 48
1.0
  6
BYLAYER
100
AcDbLine
 10
144.902815533980629
 20
-43.3149514563106663
 30
0.0
 11
144.902815533980629
 21
-39.6149514563106777
 31
0.0
  0
LINE
  5
11E
100
AcDbEntity
  8
0
 62
256
370
-1
 48
1.0
  6
BYLAYER
100
AcDbLine
 10
144.902815533980629
 20
-43.3149514563106663
 30
0.0
 11
134.902815533980629
 21
-43.3149514563106663
 31
0.0
  0
LINE
  5
11F
100
AcDbEntity
  8
0
 62
256
370
-1
 48
1.0
  6
BYLAYER
100
AcDbLine
 10
134.9028155339806574
 20
-43.3149514563106663
 30
0.0
 11
134.9028155339806574
 21
-39.6149514563107346
 31
0.0
  0
LINE
  5
120
100
AcDbEntity
  8
0
 62
256
370
-1
 48
1.0
  6
BYLAYER
100
AcDbLine
 10
134.9028155339806574
 20
-39.6149514563107346
 30
0.0
 11
119.9028155339806574
 21
-39.6149514563106777
 31
0.0
  0
LINE
  5
121
100
AcDbEntity
  8
0
 62
256
370
-1
 48
1.0
  6
BYLAYER
100
AcDbLine
 10
119.9028155339806574
 20
-43.3149514563106663
 30
0.0
 11
119.9028155339806574
 21
-39.6149514563106777
 31
0.0
  0
LINE
  5
122
100
AcDbEntity
  8
0
 62
256
370
-1
 48
1.0
  6
BYLAYER
100
AcDbLine
 10
119.9028155339806574
 20
-43.3149514563106663
 30
0.0
 11
106.2028155339806688
 21
-43.3149514563106663
 31
0.0
  0
LINE
  5
123
100
AcDbEntity
  8
0
 62
256
370
-1
 48
1.0
  6
BYLAYER
100
AcDbLine
 10
106.2028155339806972
 20
-32.1149514563106493
 30
0.0
 11
109.902815533980629
 21
-32.1149514563106493
 31
0.0
  0
LINE
  5
124
100
AcDbEntity
  8
0
 62
256
370
-1
 48
1.0
  6
BYLAYER
100
AcDbLine
 10
109.902815533980629
 20
-32.1149514563106493
 30
0.0
 11
109.9028155339806858
 21
-17.1149514563106493
 31
0.0
  0
LINE
  5
125
100
AcDbEntity
  8
0
 62
256
370
-1
 48
1.0
  6
BYLAYER
100
AcDbLine
 10
106.2028155339806972
 20
-17.1149514563106493
 30
0.0
 11
109.9028155339806858
 21
-17.1149514563106493
 31
0.0
  0
LINE
  5
126
100
AcDbEntity
  8
0
 62
256
370
-1
 48
1.0
  6
BYLAYER
100
AcDbLine
 10
173.6028155339805608
 20
-32.1149514563106493
 30
0.0
 11
169.902815533980629
 21
-32.1149514563106493
 31
0.0
  0
LINE
  5
127
100
AcDbEntity
  8
0
 62
256
370
-1
 48
1.0
  6
BYLAYER
100
AcDbLine
 10
169.902815533980629
 20
-32.1149514563106493
 30
0.0
 11
169.902815533980629
 21
-17.1149514563106493
 31
0.0
  0
LINE
  5
128
100
AcDbEntity
  8
0
 62
256
370
-1
 48
1.0
  6
BYLAYER
100
AcDbLine
 10
173.6028155339805608
 20
-17.1149514563106493
 30
0.0
 11
169.902815533980629
 21
-17.1149514563106493
 31
0.0
  0
LINE
  5
129
100
AcDbEntity
  8
0
 62
256
370
-1
 48
1.0
  6
BYLAYER
100
AcDbLine
 10
172.9726190476190482
 20
-76.9073809523809757
 30
0.0
 11
159.2726190476190595
 21
-76.9073809523809757
 31
0.0
  0
LINE
  5
12A
100
AcDbEntity
  8
0
 62
256
370
-1
 48
1.0
  6
BYLAYER
100
AcDbLine
 10
159.2726190476190027
 20
-76.9073809523809757
 30
0.0
 11
159.2726190476190027
 21
-73.2073809523809871
 31
0.0
  0
LINE
  5
12B
100
AcDbEntity
  8
0
 62
256
370
-1
 48
1.0
  6
BYLAYER
100
AcDbLine
 10
159.2726190476190027
 20
-73.2073809523809871
 30
0.0
 11
144.2726190476190027
 21
-73.2073809523809871
 31
0.0
  0
LINE
  5
12C
100
AcDbEntity
  8
0
 62
256
370
-1
 48
1.0
  6
BYLAYER
100
AcDbLine
 10
144.2726190476190027
 20
-76.9073809523809757
 30
0.0
 11
144.2726190476190027
 21
-73.2073809523809871
 31
0.0
  0
LINE
  5
12D
100
AcDbEntity
  8
0
 62
256
370
-1
 48
1.0
  6
BYLAYER
100
AcDbLine
 10
144.2726190476190027
 20
-76.9073809523809757
 30
0.0
 11
134.2726190476190027
 21
-76.9073809523809757
 31
0.0
  0
LINE
  5
12E
100
AcDbEntity
  8
0
 62
256
370
-1
 48
1.0
  6
BYLAYER
100
AcDbLine
 10
134.2726190476190595
 20
-76.9073809523809757
 30
0.0
 11
134.2726190476190595
 21
-73.2073809523810439
 31
0.0
  0
LINE
  5
12F
100
AcDbEntity
  8
0
 62
256
370
-1
 48
1.0
  6
BYLAYER
100
AcDbLine
 10
134.2726190476190595
 20
-73.2073809523810439
 30
0.0
 11
119.2726190476190453
 21
-73.2073809523809871
 31
0.0
  0
LINE
  5
130
100
AcDbEntity
  8
0
 62
256
370
-1
 48
1.0
  6
BYLAYER
100
AcDbLine
 10
119.2726190476190453
 20
-76.9073809523809757
 30
0.0
 11
119.2726190476190453
 21
-73.2073809523809871
 31
0.0
  0
LINE
  5
131
100
AcDbEntity
  8
0
 62
256
370
-1
 48
1.0
  6
BYLAYER
100
AcDbLine
 10
119.2726190476190453
 20
-76.9073809523809757
 30
0.0
 11
105.5726190476190567
 21
-76.9073809523809757
 31
0.0
  0
LINE
  5
132
100
AcDbEntity
  8
0
 62
256
370
-1
 48
1.0
  6
BYLAYER
100
AcDbLine
 10
105.5726190476190851
 20
-65.7073809523809587
 30
0.0
 11
109.2726190476190169
 21
-65.7073809523809587
 31
0.0
  0
LINE
  5
133
100
AcDbEntity
  8
0
 62
256
370
-1
 48
1.0
  6
BYLAYER
100
AcDbLine
 10
109.2726190476190169
 20
-65.7073809523809587
 30
0.0
 11
109.2726190476190737
 21
-50.7073809523809587
 31
0.0
  0
LINE
  5
134
100
AcDbEntity
  8
0
 62
256
370
-1
 48
1.0
  6
BYLAYER
100
AcDbLine
 10
105.5726190476190851
 20
-50.7073809523809587
 30
0.0
 11
109.2726190476190737
 21
-50.7073809523809587
 31
0.0
  0
LINE
  5
135
100
AcDbEntity
  8
0
 62
256
370
-1
 48
1.0
  6
BYLAYER
100
AcDbLine
 10
172.9726190476189913
 20
-65.7073809523809587
 30
0.0
 11
169.2726190476190595
 21
-65.7073809523809587
 31
0.0
  0
LINE
  5
136
100
AcDbEntity
  8
0
 62
256
370
-1
 48
1.0
  6
BYLAYER
100
AcDbLine
 10
169.2726190476190595
 20
-65.7073809523809587
 30
0.0
 11
169.2726190476190595
 21
-50.7073809523809587
 31
0.0
  0
LINE
  5
137
100
AcDbEntity
  8
0
 62
256
370
-1
 48
1.0
  6
BYLAYER
100
AcDbLine
 10
172.9726190476189913
 20
-50.7073809523809587
 30
0.0
 11
169.2726190476190595
 21
-50.7073809523809587
 31
0.0
  0
LINE
  5
138
100
AcDbEntity
  8
0
 62
256
370
-1
 48
1.0
  6
BYLAYER
100
AcDbLine
 10
106.6342718446602476
 20
0.262135922330117
 30
0.0
 11
116.6342718446602476
 21
0.2621359223300885
 31
0.0
  0
LINE
  5
139
100
AcDbEntity
  8
0
 62
256
370
-1
 48
1.0
  6
BYLAYER
100
AcDbLine
 10
116.6342718446602476
 20
0.2621359223300885
 30
0.0
 11
116.6342718446602476
 21
-3.4378640776699001
 31
0.0
  0
LINE
  5
13A
100
AcDbEntity
  8
0
 62
256
370
-1
 48
1.0
  6
BYLAYER
100
AcDbLine
 10
116.6342718446602476
 20
-3.4378640776699001
 30
0.0
 11
131.6342718446602476
 21
-3.4378640776699001
 31
0.0
  0
LINE
  5
13B
100
AcDbEntity
  8
0
 62
256
370
-1
 48
1.0
  6
BYLAYER
100
AcDbLine
 10
131.6342718446602476
 20
0.262135922330117
 30
0.0
 11
131.6342718446602476
 21
-3.4378640776699001
 31
0.0
  0
LINE
  5
13C
100
AcDbEntity
  8
0
 62
256
370
-1
 48
1.0
  6
BYLAYER
100
AcDbLine
 10
131.6342718446602476
 20
0.262135922330117
 30
0.0
 11
141.6342718446602476
 21
0.262135922330117
 31
0.0
  0
LINE
  5
13D
100
AcDbEntity
  8
0
 62
256
370
-1
 48
1.0
  6
BYLAYER
100
AcDbLine
 10
141.6342718446602191
 20
0.262135922330117
 30
0.0
 11
141.6342718446602191
 21
-3.4378640776699001
 31
0.0
  0
LINE
  5
13E
100
AcDbEntity
  8
0
 62
256
370
-1
 48
1.0
  6
BYLAYER
100
AcDbLine
 10
141.6342718446602191
 20
-3.4378640776699001
 30
0.0
 11
156.6342718446602191
 21
-3.4378640776699001
 31
0.0
  0
LINE
  5
13F
100
AcDbEntity
  8
0
 62
256
370
-1
 48
1.0
  6
BYLAYER
100
AcDbLine
 10
156.6342718446602191
 20
0.2621359223300885
 30
0.0
 11
156.6342718446602191
 21
-3.4378640776699001
 31
0.0
  0
LINE
  5
140
100
AcDbEntity
  8
0
 62
256
370
-1
 48
1.0
  6
BYLAYER
100
AcDbLine
 10
156.6342718446602191
 20
0.2621359223300885
 30
0.0
 11
166.6342718446602476
 21
0.2621359223301454
 31
0.0
  0
LINE
  5
141
100
AcDbEntity
  8
0
 62
256
370
-1
 48
1.0
  6
BYLAYER
100
AcDbLine
 10
106.8500000000000512
 20
8.9339805825242991
 30
0.0
 11
116.8500000000000512
 21
8.9339805825242706
 31
0.0
  0
LINE
  5
142
100
AcDbEntity
  8
0
 62
256
370
-1
 48
1.0
  6
BYLAYER
100
AcDbLine
 10
116.8500000000000512
 20
8.9339805825242706
 30
0.0
 11
116.8500000000000512
 21
5.233980582524282
 31
0.0
  0
LINE
  5
143
100
AcDbEntity
  8
0
 62
256
370
-1
 48
1.0
  6
BYLAYER
100
AcDbLine
 10
116.8500000000000512
 20
5.233980582524282
 30
0.0
 11
131.8500000000000512
 21
5.233980582524282
 31
0.0
  0
LINE
  5
144
100
AcDbEntity
  8
0
 62
256
370
-1
 48
1.0
  6
BYLAYER
100
AcDbLine
 10
131.8500000000000512
 20
8.9339805825242991
 30
0.0
 11
131.8500000000000512
 21
5.233980582524282
 31
0.0
  0
LINE
  5
145
100
AcDbEntity
  8
0
 62
256
370
-1
 48
1.0
  6
BYLAYER
100
AcDbLine
 10
131.8500000000000512
 20
8.9339805825242991
 30
0.0
 11
141.8500000000000512
 21
8.9339805825242991
 31
0.0
  0
LINE
  5
146
100
AcDbEntity
  8
0
 62
256
370
-1
 48
1.0
  6
BYLAYER
100
AcDbLine
 10
141.8500000000000227
 20
8.9339805825242991
 30
0.0
 11
141.8500000000000227
 21
5.233980582524282
 31
0.0
  0
LINE
  5
147
100
AcDbEntity
  8
0
 62
256
370
-1
 48
1.0
  6
BYLAYER
100
AcDbLine
 10
141.8500000000000227
 20
5.233980582524282
 30
0.0
 11
156.8500000000000227
 21
5.233980582524282
 31
0.0
  0
LINE
  5
148
100
AcDbEntity
  8
0
 62
256
370
-1
 48
1.0
  6
BYLAYER
100
AcDbLine
 10
156.8500000000000227
 20
8.9339805825242706
 30
0.0
 11
156.8500000000000227
 21
5.233980582524282
 31
0.0
  0
LINE
  5
149
100
AcDbEntity
  8
0
 62
256
370
-1
 48
1.0
  6
BYLAYER
100
AcDbLine
 10
156.8500000000000227
 20
8.9339805825242706
 30
0.0
 11
166.8500000000000227
 21
8.9339805825243275
 31
0.0
  0
LINE
  5
14A
100
AcDbEntity
  8
0
 62
256
370
-1
 48
1.0
  6
BYLAYER
100
AcDbLine
 10
106.6342718446602476
 20
17.5429126213591928
 30
0.0
 11
116.6342718446602476
 21
17.5429126213591644
 31
0.0
  0
LINE
  5
14B
100
AcDbEntity
  8
0
 62
256
370
-1
 48
1.0
  6
BYLAYER
100
AcDbLine
 10
116.6342718446602476
 20
17.5429126213591644
 30
0.0
 11
116.6342718446602476
 21
13.8429126213591758
 31
0.0
  0
LINE
  5
14C
100
AcDbEntity
  8
0
 62
256
370
-1
 48
1.0
  6
BYLAYER
100
AcDbLine
 10
116.6342718446602476
 20
13.8429126213591758
 30
0.0
 11
131.6342718446602476
 21
13.8429126213591758
 31
0.0
  0
LINE
  5
14D
100
AcDbEntity
  8
0
 62
256
370
-1
 48
1.0
  6
BYLAYER
100
AcDbLine
 10
131.6342718446602476
 20
17.5429126213591928
 30
0.0
 11
131.6342718446602476
 21
13.8429126213591758
 31
0.0
  0
LINE
  5
14E
100
AcDbEntity
  8
0
 62
256
370
-1
 48
1.0
  6
BYLAYER
100
AcDbLine
 10
131.6342718446602476
 20
17.5429126213591928
 30
0.0
 11
141.6342718446602476
 21
17.5429126213591928
 31
0.0
  0
LINE
  5
14F
100
AcDbEntity
  8
0
 62
256
370
-1
 48
1.0
  6
BYLAYER
100
AcDbLine
 10
141.6342718446602191
 20
17.5429126213591928
 30
0.0
 11
141.6342718446602191
 21
13.8429126213591758
 31
0.0
  0
LINE
  5
150
100
AcDbEntity
  8
0
 62
256
370
-1
 48
1.0
  6
BYLAYER
100
AcDbLine
 10
141.6342718446602191
 20
13.8429126213591758
 30
0.0
 11
156.6342718446602191
 21
13.8429126213591758
 31
0.0
  0
LINE
  5
151
100
AcDbEntity
  8
0
 62
256
370
-1
 48
1.0
  6
BYLAYER
100
AcDbLine
 10
156.6342718446602191
 20
17.5429126213591644
 30
0.0
 11
156.6342718446602191
 21
13.8429126213591758
 31
0.0
  0
LINE
  5
152
100
AcDbEntity
  8
0
 62
256
370
-1
 48
1.0
  6
BYLAYER
100
AcDbLine
 10
156.6342718446602191
 20
17.5429126213591644
 30
0.0
 11
166.6342718446602476
 21
17.5429126213592212
 31
0.0
  0
LINE
  5
153
100
AcDbEntity
  8
0
 62
256
370
-1
 48
1.0
  6
BYLAYER
100
AcDbLine
 10
106.4185436893204439
 20
26.603495145631058
 30
0.0
 11
116.4185436893204439
 21
26.6034951456310296
 31
0.0
  0
LINE
  5
154
100
AcDbEntity
  8
0
 62
256
370
-1
 48
1.0
  6
BYLAYER
100
AcDbLine
 10
116.4185436893204439
 20
26.6034951456310296
 30
0.0
 11
116.4185436893204439
 21
22.9034951456310409
 31
0.0
  0
LINE
  5
155
100
AcDbEntity
  8
0
 62
256
370
-1
 48
1.0
  6
BYLAYER
100
AcDbLine
 10
116.4185436893204439
 20
22.9034951456310409
 30
0.0
 11
131.4185436893204439
 21
22.9034951456310409
 31
0.0
  0
LINE
  5
156
100
AcDbEntity
  8
0
 62
256
370
-1
 48
1.0
  6
BYLAYER
100
AcDbLine
 10
131.4185436893204439
 20
26.603495145631058
 30
0.0
 11
131.4185436893204439
 21
22.9034951456310409
 31
0.0
  0
LINE
  5
157
100
AcDbEntity
  8
0
 62
256
370
-1
 48
1.0
  6
BYLAYER
100
AcDbLine
 10
131.4185436893204439
 20
26.603495145631058
 30
0.0
 11
141.4185436893204439
 21
26.603495145631058
 31
0.0
  0
LINE
  5
158
100
AcDbEntity
  8
0
 62
256
370
-1
 48
1.0
  6
BYLAYER
100
AcDbLine
 10
141.4185436893204155
 20
26.603495145631058
 30
0.0
 11
141.4185436893204155
 21
22.9034951456310409
 31
0.0
  0
LINE
  5
159
100
AcDbEntity
  8
0
 62
256
370
-1
 48
1.0
  6
BYLAYER
100
AcDbLine
 10
141.4185436893204155
 20
22.9034951456310409
 30
0.0
 11
156.4185436893204155
 21
22.9034951456310409
 31
0.0
  0
LINE
  5
15A
100
AcDbEntity
  8
0
 62
256
370
-1
 48
1.0
  6
BYLAYER
100
AcDbLine
 10
156.4185436893204155
 20
26.6034951456310296
 30
0.0
 11
156.4185436893204155
 21
22.9034951456310409
 31
0.0
  0
LINE
  5
15B
100
AcDbEntity
  8
0
 62
256
370
-1
 48
1.0
  6
BYLAYER
100
AcDbLine
 10
156.4185436893204155
 20
26.6034951456310296
 30
0.0
 11
166.4185436893204724
 21
26.6034951456310864
 31
0.0
  0
LINE
  5
15C
100
AcDbEntity
  8
0
 62
256
370
-1
 48
1.0
  6
BYLAYER
100
AcDbLine
 10
98.9278571428571354
 20
-47.0873809523809115
 30
0.0
 11
98.9278571428571354
 21
-35.8873809523809228
 31
0.0
  0
LINE
  5
15D
100
AcDbEntity
  8
0
 62
256
370
-1
 48
1.0
  6
BYLAYER
100
AcDbLine
 10
98.927857142857107
 20
-73.2873809523809001
 30
0.0
 11
98.927857142857107
 21
-62.0873809523809115
 31
0.0
  0
LINE
  5
15E
100
AcDbEntity
  8
0
 62
256
370
-1
 48
1.0
  6
BYLAYER
100
AcDbLine
 10
38.9278571428571638
 20
-47.0873809523809115
 30
0.0
 11
38.9278571428571638
 21
-35.8873809523809228
 31
0.0
  0
LINE
  5
15F
100
AcDbEntity
  8
0
 62
256
370
-1
 48
1.0
  6
BYLAYER
100
AcDbLine
 10
38.9278571428571922
 20
-73.2873809523809001
 30
0.0
 11
38.9278571428571922
 21
-62.0873809523809115
 31
0.0
  0
LINE
  5
160
100
AcDbEntity
  8
0
 62
256
370
-1
 48
1.0
  6
BYLAYER
100
AcDbLine
 10
106.2028155339806972
 20
-17.1149514563106493
 30
0.0
 11
106.2028155339806972
 21
-5.9149514563106607
 31
0.0
  0
LINE
  5
161
100
AcDbEntity
  8
0
 62
256
370
-1
 48
1.0
  6
BYLAYER
100
AcDbLine
 10
106.2028155339806688
 20
-43.3149514563106379
 30
0.0
 11
106.2028155339806688
 21
-32.1149514563106493
 31
0.0
  0
LINE
  5
162
100
AcDbEntity
  8
0
 62
256
370
-1
 48
1.0
  6
BYLAYER
100
AcDbLine
 10
173.6028155339805608
 20
-17.1149514563106493
 30
0.0
 11
173.6028155339805608
 21
-5.9149514563106607
 31
0.0
  0
LINE
  5
163
100
AcDbEntity
  8
0
 62
256
370
-1
 48
1.0
  6
BYLAYER
100
AcDbLine
 10
173.6028155339806744
 20
-43.3149514563106379
 30
0.0
 11
173.6028155339806744
 21
-32.1149514563106493
 31
0.0
  0
LINE
  5
164
100
AcDbEntity
  8
0
 62
256
370
-1
 48
1.0
  6
BYLAYER
100
AcDbLine
 10
105.5726190476190851
 20
-50.7073809523809587
 30
0.0
 11
105.5726190476190851
 21
-46.9073809523809473
 31
0.0
  0
LINE
  5
165
100
AcDbEntity
  8
0
 62
256
370
-1
 48
1.0
  6
BYLAYER
100
AcDbLine
 10
105.5726190476190567
 20
-76.9073809523809473
 30
0.0
 11
105.5726190476190567
 21
-65.7073809523809587
 31
0.0
  0
LINE
  5
166
100
AcDbEntity
  8
0
 62
256
370
-1
 48
1.0
  6
BYLAYER
100
AcDbLine
 10
172.9726190476189913
 20
-50.7073809523809587
 30
0.0
 11
172.9726190476189913
 21
-46.9073809523809473
 31
0.0
  0
LINE
  5
167
100
AcDbEntity
  8
0
 62
256
370
-1
 48
1.0
  6
BYLAYER
100
AcDbLine
 10
172.9726190476190482
 20
-76.9073809523809473
 30
0.0
 11
172.9726190476190482
 21
-65.7073809523809587
 31
0.0
  0
INSERT
  5
168
100
AcDbEntity
  8
0
 62
256
370
-1
 48
1.0
  6
BYLAYER
100
AcDbBlockReference
  2
\U+0431\U+043b\U+043e\U+043a 14
 10
48.9278571428571638
 20
-43.287380952380957
 30
0.0
  0
INSERT
  5
169
100
AcDbEntity
  8
0
 62
256
370
-1
 48
1.0
  6
BYLAYER
100
AcDbBlockReference
  2
\U+0431\U+043b\U+043e\U+043a 14
 10
73.9278571428571638
 20
-43.287380952380957
 30
0.0
  0
LINE
  5
16A
100
AcDbEntity
  8
0
 62
256
370
-1
 48
1.0
  6
BYLAYER
100
AcDbLine
 10
106.2028155339806972
 20
-5.9149514563106607
 30
0.0
 11
173.6028155339806744
 21
-5.9149514563106607
 31
0.0
  0
LINE
  5
16B
100
AcDbEntity
  8
0
 62
256
370
-1
 48
1.0
  6
BYLAYER
100
AcDbLine
 10
105.5726190476190851
 20
-46.9073809523809473
 30
0.0
 11
172.972619047619105
 21
-46.9073809523809473
 31
0.0
  0
LINE
  5
16C
100
AcDbEntity
  8
0
 62
256
370
-1
 48
1.0
  6
BYLAYER
100
AcDbLine
 10
115.9028155339806574
 20
-35.6149514563106777
 30
0.0
 11
163.9028155339806574
 21
-35.6149514563106777
 31
0.0
  0
LINE
  5
16D
100
AcDbEntity
  8
0
 62
256
370
-1
 48
1.0
  6
BYLAYER
100
AcDbLine
 10
115.9028155339806574
 20
-21.3149514563106663
 30
0.0
 11
163.9028155339806574
 21
-21.3149514563106663
 31
0.0
  0
LINE
  5
16E
100
AcDbEntity
  8
0
 62
256
370
-1
 48
1.0
  6
BYLAYER
100
AcDbLine
 10
115.9028155339806574
 20
-35.6149514563106777
 30
0.0
 11
115.9028155339806574
 21
-21.3149514563106663
 31
0.0
  0
LINE
  5
16F
100
AcDbEntity
  8
0
 62
256
370
-1
 48
1.0
  6
BYLAYER
100
AcDbLine
 10
163.9028155339806574
 20
-35.6149514563106777
 30
0.0
 11
163.9028155339806574
 21
-21.3149514563106663
 31
0.0
  0
LINE
  5
170
100
AcDbEntity
  8
0
 62
256
370
-1
 48
1.0
  6
BYLAYER
100
AcDbLine
 10
166.6342718446602476
 20
0.2621359223301454
 30
0.0
 11
166.6342718446602476
 21
3.2621359223301454
 31
0.0
  0
LINE
  5
171
100
AcDbEntity
  8
0
 62
256
370
-1
 48
1.0
  6
BYLAYER
100
AcDbLine
 10
166.8500000000000227
 20
8.9339805825243275
 30
0.0
 11
166.8500000000000227
 21
11.9339805825243275
 31
0.0
  0
LINE
  5
172
100
AcDbEntity
  8
0
 62
256
370
-1
 48
1.0
  6
BYLAYER
100
AcDbLine
 10
166.6342718446602476
 20
17.5429126213592212
 30
0.0
 11
166.6342718446602476
 21
20.5429126213592212
 31
0.0
  0
LINE
  5
173
100
AcDbEntity
  8
0
 62
256
370
-1
 48
1.0
  6
BYLAYER
100
AcDbLine
 10
166.4185436893204724
 20
26.6034951456310864
 30
0.0
 11
166.4185436893204724
 21
29.6034951456310864
 31
0.0
  0
LINE
  5
174
100
AcDbEntity
  8
0
 62
256
370
-1
 48
1.0
  6
BYLAYER
100
AcDbLine
 10
106.6342718446602476
 20
0.262135922330117
 30
0.0
 11
106.6342718446602476
 21
3.262135922330117
 31
0.0
  0
LINE
  5
175
100
AcDbEntity
  8
0
 62
256
370
-1
 48
1.0
  6
BYLAYER
100
AcDbLine
 10
106.8500000000000512
 20
8.9339805825242991
 30
0.0
 11
106.8500000000000512
 21
11.9339805825242991
 31
0.0
  0
LINE
  5
176
100
AcDbEntity
  8
0
 62
256
370
-1
 48
1.0
  6
BYLAYER
100
AcDbLine
 10
106.6342718446602476
 20
17.5429126213591928
 30
0.0
 11
106.6342718446602476
 21
20.5429126213591928
 31
0.0
  0
LINE
  5
177
100
AcDbEntity
  8
0
 62
256
370
-1
 48
1.0
  6
BYLAYER
100
AcDbLine
 10
106.4185436893204439
 20
26.603495145631058
 30
0.0
 11
106.4185436893204439
 21
29.603495145631058
 31
0.0
  0
LINE
  5
178
100
AcDbEntity
  8
0
 62
256
370
-1
 48
1.0
  6
BYLAYER
100
AcDbLine
 10
106.6342718446602476
 20
3.262135922330117
 30
0.0
 11
166.6342718446602476
 21
3.262135922330117
 31
0.0
  0
LINE
  5
179
100
AcDbEntity
  8
0
 62
256
370
-1
 48
1.0
  6
BYLAYER
100
AcDbLine
 10
106.8500000000000512
 20
11.9339805825242991
 30
0.0
 11
166.8500000000000227
 21
11.9339805825242991
 31
0.0
  0
LINE
  5
17A
100
AcDbEntity
  8
0
 62
256
370
-1
 48
1.0
  6
BYLAYER
100
AcDbLine
 10
106.6342718446602476
 20
20.5429126213591928
 30
0.0
 11
166.6342718446602476
 21
20.5429126213591928
 31
0.0
  0
LINE
  5
17B
100
AcDbEntity
  8
0
 62
256
370
-1
 48
1.0
  6
BYLAYER
100
AcDbLine
 10
106.4185436893204439
 20
29.603495145631058
 30
0.0
 11
166.4185436893204724
 21
29.603495145631058
 31
0.0
  0
INSERT
  5
17C
100
AcDbEntity
  8
0
 62
256
370
-1
 48
1.0
  6
BYLAYER
100
AcDbBlockReference
  2
\U+0431\U+043b\U+043e\U+043a 15
 10
46.0
 20
24.7650000000000006
 30
0.0
  0
INSERT
  5
17D
100
AcDbEntity
  8
0
 62
256
370
-1
 48
1.0
  6
BYLAYER
100
AcDbBlockReference
  2
\U+0431\U+043b\U+043e\U+043a 15
 10
77.1150000000000091
 20
24.7650000000000006
 30
0.0
  0
INSERT
  5
17E
100
AcDbEntity
  8
0
 62
256
370
-1
 48
1.0
  6
BYLAYER
100
AcDbBlockReference
  2
\U+0431\U+043b\U+043e\U+043a 16
 10
-31.8500000000000014
 20
30.0
 30
0.0
  0
INSERT
  5
17F
100
AcDbEntity
  8
Layer 1
 62
0
370
-1
 48
1.0
  6
BYLAYER
100
AcDbBlockReference
  2
\U+0431\U+043b\U+043e\U+043a 17
 10
0.0
 20
0.0
 30
0.0
 41
1.54
 42
1.54
 43
1.0
  0
ENDSEC
  0
SECTION
  2
OBJECTS
  0
DICTIONARY
  5
C
100
AcDbDictionary
280
0
281
1
  3
ACAD_GROUP
350
D
  3
ACAD_LAYOUT
350
1A
  3
ACAD_MLINESTYLE
350
17
  3
ACAD_PLOTSETTINGS
350
19
  3
ACAD_PLOTSTYLENAME
350
E
  3
AcDbVariableDictionary
350
180
  3
QCAD_OBJECTS
350
181
  0
DICTIONARY
  5
D
100
AcDbDictionary
280
0
281
1
  0
ACDBDICTIONARYWDFLT
  5
E
100
AcDbDictionary
281
1
  3
Normal
350
F
100
AcDbDictionaryWithDefault
340
F
  0
ACDBPLACEHOLDER
  5
F
  0
DICTIONARY
  5
17
100
AcDbDictionary
280
0
281
1
  3
Standard
350
18
  0
MLINESTYLE
  5
18
100
AcDbMlineStyle
  2
STANDARD
 70
0
  3

 62
256
 51
90.0
 52
90.0
 71
2
 49
0.5
 62
256
  6
BYLAYER
 49
-0.5
 62
256
  6
BYLAYER
  0
DICTIONARY
  5
19
100
AcDbDictionary
280
0
281
1
  0
DICTIONARY
  5
1A
100
AcDbDictionary
281
1
  3
Layout1
350
1E
  3
Layout2
350
26
  3
Model
350
22
  0
LAYOUT
  5
1E
100
AcDbPlotSettings
  1

  2
none_device
  4

  6

 40
0.0
 41
0.0
 42
0.0
 43
0.0
 44
0.0
 45
0.0
 46
0.0
 47
0.0
 48
0.0
 49
0.0
140
0.0
141
0.0
142
1.0
143
1.0
 70
688
 72
0
 73
0
 74
5
  7

 75
16
147
1.0
148
0.0
149
0.0
100
AcDbLayout
  1
Layout1
 70
1
 71
1
 10
0.0
 20
0.0
 11
420.0
 21
297.0
 12
0.0
 22
0.0
 32
0.0
 14
100000000000000000000.0
 24
100000000000000000000.0
 34
100000000000000000000.0
 15
-100000000000000000000.0
 25
-100000000000000000000.0
 35
-100000000000000000000.0
146
0.0
 13
0.0
 23
0.0
 33
0.0
 16
1.0
 26
0.0
 36
0.0
 17
0.0
 27
1.0
 37
0.0
 76
0
330
1B
  0
LAYOUT
  5
22
100
AcDbPlotSettings
  1

  2
none_device
  4

  6

 40
0.0
 41
0.0
 42
0.0
 43
0.0
 44
0.0
 45
0.0
 46
0.0
 47
0.0
 48
0.0
 49
0.0
140
0.0
141
0.0
142
1.0
143
1.0
 70
1712
 72
0
 73
0
 74
0
  7

 75
0
147
1.0
148
0.0
149
0.0
100
AcDbLayout
  1
Model
 70
1
 71
0
 10
0.0
 20
0.0
 11
12.0
 21
9.0
 12
0.0
 22
0.0
 32
0.0
 14
0.0
 24
0.0
 34
0.0
 15
0.0
 25
0.0
 35
0.0
146
0.0
 13
0.0
 23
0.0
 33
0.0
 16
1.0
 26
0.0
 36
0.0
 17
0.0
 27
1.0
 37
0.0
 76
0
330
1F
  0
LAYOUT
  5
26
100
AcDbPlotSettings
  1

  2
none_device
  4

  6

 40
0.0
 41
0.0
 42
0.0
 43
0.0
 44
0.0
 45
0.0
 46
0.0
 47
0.0
 48
0.0
 49
0.0
140
0.0
141
0.0
142
1.0
143
1.0
 70
688
 72
0
 73
0
 74
5
  7

 75
16
147
1.0
148
0.0
149
0.0
100
AcDbLayout
  1
Layout2
 70
1
 71
2
 10
0.0
 20
0.0
 11
12.0
 21
9.0
 12
0.0
 22
0.0
 32
0.0
 14
0.0
 24
0.0
 34
0.0
 15
0.0
 25
0.0
 35
0.0
146
0.0
 13
0.0
 23
0.0
 33
0.0
 16
1.0
 26
0.0
 36
0.0
 17
0.0
 27
1.0
 37
0.0
 76
0
330
23
  0
DICTIONARY
  5
180
100
AcDbDictionary
281
1
  3
DIMASSOC
350
183
  3
HIDETEXT
350
182
  0
DICTIONARYVAR
  5
182
100
DictionaryVariables
280
0
  1
2
  0
DICTIONARYVAR
  5
183
100
DictionaryVariables
280
0
  1
1
  0
DICTIONARY
  5
181
100
AcDbDictionary
281
1
  3
ColorSettings/BackgroundColor
350
184
  3
ColorSettings/ColorMode
350
185
  3
Grid/DisplayGrid00
350
186
  3
Grid/DisplayGrid01
350
187
  3
Grid/DisplayGrid02
350
188
  3
Grid/DisplayGrid03
350
189
  3
Grid/GridSpacingX00
350
18A
  3
Grid/GridSpacingX01
350
18B
  3
Grid/GridSpacingX02
350
18C
  3
Grid/GridSpacingX03
350
18D
  3
Grid/GridSpacingY00
350
18E
  3
Grid/GridSpacingY01
350
18F
  3
Grid/GridSpacingY02
350
190
  3
Grid/GridSpacingY03
350
191
  3
Grid/IsometricGrid00
350
192
  3
Grid/IsometricGrid01
350
193
  3
Grid/IsometricGrid02
350
194
  3
Grid/IsometricGrid03
350
195
  3
Grid/IsometricProjection00
350
196
  3
Grid/IsometricProjection01
350
197
  3
Grid/IsometricProjection02
350
198
  3
Grid/IsometricProjection03
350
199
  3
Grid/MetaGridSpacingX00
350
19A
  3
Grid/MetaGridSpacingX01
350
19B
  3
Grid/MetaGridSpacingX02
350
19C
  3
Grid/MetaGridSpacingX03
350
19D
  3
Grid/MetaGridSpacingY00
350
19E
  3
Grid/MetaGridSpacingY01
350
19F
  3
Grid/MetaGridSpacingY02
350
1A0
  3
Grid/MetaGridSpacingY03
350
1A1
  3
MultiPageSettings/Columns
350
1A2
  3
MultiPageSettings/GlueMarginsBottom
350
1A3
  3
MultiPageSettings/GlueMarginsLeft
350
1A4
  3
MultiPageSettings/GlueMarginsRight
350
1A5
  3
MultiPageSettings/GlueMarginsTop
350
1A6
  3
MultiPageSettings/PrintCropMarks
350
1A7
  3
MultiPageSettings/Rows
350
1A8
  3
PageSettings/OffsetX
350
1A9
  3
PageSettings/OffsetY
350
1AA
  3
PageSettings/PageOrientation
350
1AB
  3
PageSettings/PaperHeight
350
1AC
  3
PageSettings/PaperWidth
350
1AD
  3
PageSettings/Scale
350
1AE
  3
PageSettings/ShowPaperBorders
350
1AF
  3
PageTagSettings/EnablePageTags
350
1B0
  3
PageTagSettings/TagAlignment
350
1B1
  3
PageTagSettings/TagFont
350
1B2
  3
PageTagSettings/TagPosition
350
1B3
  3
QCADVersion
350
1B4
  3
UnitSettings/PaperUnit
350
1B5
  3
ViewportCenter
350
1B6
  3
ViewportHeight
350
1B7
  3
ViewportWidth
350
1B8
  0
XRECORD
  5
184
330
181
100
AcDbXrecord
280
1
1000
\U+0411\U+0435\U+043b\U+044b\U+0439
  0
XRECORD
  5
185
330
181
100
AcDbXrecord
280
1
1000
FullColor
  0
XRECORD
  5
186
330
181
100
AcDbXrecord
280
1
290
1
  0
XRECORD
  5
187
330
181
100
AcDbXrecord
280
1
290
1
  0
XRECORD
  5
188
330
181
100
AcDbXrecord
280
1
290
1
  0
XRECORD
  5
189
330
181
100
AcDbXrecord
280
1
290
1
  0
XRECORD
  5
18A
330
181
100
AcDbXrecord
280
1
1000
auto
  0
XRECORD
  5
18B
330
181
100
AcDbXrecord
280
1
1000
auto
  0
XRECORD
  5
18C
330
181
100
AcDbXrecord
280
1
1000
auto
  0
XRECORD
  5
18D
330
181
100
AcDbXrecord
280
1
1000
auto
  0
XRECORD
  5
18E
330
181
100
AcDbXrecord
280
1
1000
auto
  0
XRECORD
  5
18F
330
181
100
AcDbXrecord
280
1
1000
auto
  0
XRECORD
  5
190
330
181
100
AcDbXrecord
280
1
1000
auto
  0
XRECORD
  5
191
330
181
100
AcDbXrecord
280
1
1000
auto
  0
XRECORD
  5
192
330
181
100
AcDbXrecord
280
1
290
0
  0
XRECORD
  5
193
330
181
100
AcDbXrecord
280
1
290
0
  0
XRECORD
  5
194
330
181
100
AcDbXrecord
280
1
290
0
  0
XRECORD
  5
195
330
181
100
AcDbXrecord
280
1
290
0
  0
XRECORD
  5
196
330
181
100
AcDbXrecord
280
1
 90
65537
  0
XRECORD
  5
197
330
181
100
AcDbXrecord
280
1
 90
65537
  0
XRECORD
  5
198
330
181
100
AcDbXrecord
280
1
 90
65537
  0
XRECORD
  5
199
330
181
100
AcDbXrecord
280
1
 90
65537
  0
XRECORD
  5
19A
330
181
100
AcDbXrecord
280
1
1000
auto
  0
XRECORD
  5
19B
330
181
100
AcDbXrecord
280
1
1000
auto
  0
XRECORD
  5
19C
330
181
100
AcDbXrecord
280
1
1000
auto
  0
XRECORD
  5
19D
330
181
100
AcDbXrecord
280
1
1000
auto
  0
XRECORD
  5
19E
330
181
100
AcDbXrecord
280
1
1000
auto
  0
XRECORD
  5
19F
330
181
100
AcDbXrecord
280
1
1000
auto
  0
XRECORD
  5
1A0
330
181
100
AcDbXrecord
280
1
1000
auto
  0
XRECORD
  5
1A1
330
181
100
AcDbXrecord
280
1
1000
auto
  0
XRECORD
  5
1A2
330
181
100
AcDbXrecord
280
1
 90
1
  0
XRECORD
  5
1A3
330
181
100
AcDbXrecord
280
1
 40
10.0
  0
XRECORD
  5
1A4
330
181
100
AcDbXrecord
280
1
 40
10.0
  0
XRECORD
  5
1A5
330
181
100
AcDbXrecord
280
1
 40
10.0
  0
XRECORD
  5
1A6
330
181
100
AcDbXrecord
280
1
 40
10.0
  0
XRECORD
  5
1A7
330
181
100
AcDbXrecord
280
1
290
0
  0
XRECORD
  5
1A8
330
181
100
AcDbXrecord
280
1
 90
1
  0
XRECORD
  5
1A9
330
181
100
AcDbXrecord
280
1
 40
0.0
  0
XRECORD
  5
1AA
330
181
100
AcDbXrecord
280
1
 40
0.0
  0
XRECORD
  5
1AB
330
181
100
AcDbXrecord
280
1
1000
Portrait
  0
XRECORD
  5
1AC
330
181
100
AcDbXrecord
280
1
 40
297.0
  0
XRECORD
  5
1AD
330
181
100
AcDbXrecord
280
1
 40
210.0
  0
XRECORD
  5
1AE
330
181
100
AcDbXrecord
280
1
1000
1:1
  0
XRECORD
  5
1AF
330
181
100
AcDbXrecord
280
1
290
1
  0
XRECORD
  5
1B0
330
181
100
AcDbXrecord
280
1
290
0
  0
XRECORD
  5
1B1
330
181
100
AcDbXrecord
280
1
1000
Inside
  0
XRECORD
  5
1B2
330
181
100
AcDbXrecord
280
1
1000
Arial,10,-1,5,50,0,0,0,0,0
  0
XRECORD
  5
1B3
330
181
100
AcDbXrecord
280
1
1000
TopLeft
  0
XRECORD
  5
1B4
330
181
100
AcDbXrecord
280
1
1000
3.24.0
  0
XRECORD
  5
1B5
330
181
100
AcDbXrecord
280
1
 90
4
  0
XRECORD
  5
1B7
330
181
100
AcDbXrecord
280
1
 40
145.5567553592720174
  0
XRECORD
  5
1B8
330
181
100
AcDbXrecord
280
1
 40
218.4639443268365824
  0
ENDSEC
  0
EOF
